<?xml version="1.0" encoding="utf-8"?>
<!-- Generator: Adobe Illustrator 28.1.0, SVG Export Plug-In . SVG Version: 6.00 Build 0)  -->
<svg version="1.1" id="Layer_2_00000110458672028142783420000009377652632087968959_"
	 xmlns="http://www.w3.org/2000/svg" xmlns:xlink="http://www.w3.org/1999/xlink" x="0px" y="0px" viewBox="0 0 316 527"
	 style="enable-background:new 0 0 316 527;" xml:space="preserve">
<g id="Layer_1-2">
	<path d="M189.6,79c-1-2.8-1.6-4.6-2.4-6.5c-1.9-4.7-4.4-9.3-5.7-14.2c-2-7.1-3.2-14.4-4.8-21.6c-0.1-0.6-0.5-1.3-0.9-1.6
		c-4.8-3.8-5.6-6.4-3-11.8c1.4-3,3.8-5.6,4.8-8.7c1.3-4,4.1-5.7,7.7-6.9c1.4-0.5,3-0.9,4.1-1.7c6.4-4.8,13.5-4.2,20.6-2.4
		c11.4,3,20.1,9.8,22.6,21.5c1.9,8.8,2,18.2-2.3,26.9c-0.3,0.6-0.4,1.8-0.1,2.2c2.6,3.3,0.7,5.7-1,8.5c-0.8,1.4-1.2,4.2-0.4,5.2
		c3.5,3.9,7,8.4,11.5,10.8c10.6,5.6,21.6,10.3,32.7,14.8c6.2,2.5,8.5,5.1,8.6,11.8c0.1,4.1,0.3,8.5,1.7,12.2
		c9.4,24.5,10.5,50.4,12.2,76.1c1.2,18.1-4.6,35.4-9.9,52.7c-3.6,11.7-6.9,23.5-9.6,35.5c-0.9,4.1,0.2,8.7-5.4,10.2
		c-0.7,0.2-1.2,1.9-1.4,3c-0.9,4.2-2,8.4-2.4,12.7c-1.4,14.4-2.9,28.7-3.8,43.1c-0.3,5.2,0,10.8,1.8,15.6
		c4.1,10.6,6.7,21.5,7.7,32.6c0.9,10.2,0.1,20.5,0.5,30.7c0.4,11.6,1,23.2,1.8,34.8c0.4,5-1.5,8.2-5.8,10.5
		c-1.4,0.8-2.8,2.9-2.9,4.4c-0.3,6.8-0.7,13.6,0.1,20.3c0.8,6.4-1.9,10.1-7,12.6c-2.3,1.1-5,1.7-7.6,1.8c-5.5,0.3-11,0.7-16.4,0.1
		c-5.4-0.6-6.9-3.4-4.9-8.1c1.6-3.8,4.2-7.1,6.2-10.7c3.9-6.6,6.7-13.6,5.6-21.5c-1.4-10.9-3-21.7-4.4-32.5
		c-1-8.6-1.6-17.2-2.6-25.8c-0.5-4.8-1.5-9.4-2.2-14.2c-0.7-4.9,0.1-10.5-2.2-14.4c-3-5.1-4.2-10.2-5.1-15.7c-0.3-2.1-1-4.2-1.5-6.3
		c-2.5-11.2-5.1-22.4-7.6-33.5c-1.8-7.8-3.7-15.6-5.5-23.4c-0.6,0-1.2,0-1.7,0c-0.7,1.6-1.6,3.1-2,4.8c-3.1,13.1-6.4,26.1-8.9,39.4
		c-2.6,13.4-4.4,26.9-6.5,40.3c-1,6.5-2.9,13-2.9,19.5c-0.1,16.2-4.4,31.6-7.2,47.2c-1.1,5.9-1.8,11.8-3.1,17.6
		c-1.2,5.3-3.4,10.5-4.2,15.8c-1.4,8.5-1.8,17.1-3,25.7c-0.3,2.5,0.6,6.4-4.3,6.4c-17.3-0.1-34.7,0-52-0.1c-3.2,0-5.8-3.7-3.9-6.1
		c1.9-2.5,5-5,7.9-5.6c4.4-0.9,8.6,0.3,12.3-4.5c3.6-4.8,6-9.4,3.7-15.8c-0.9,0.2-1.8,0.4-2.8,0.6c-8.3,1.2-9.9-0.9-7.6-8.8
		c0.8-2.9,0.5-6,1-9c0.3-1.9,1.3-3.6,2-5.4c0.6-1.6,1.7-3.3,1.7-4.9c-0.3-10.9-0.1-21.7-6.6-31.5c-7.1-10.5-13.1-21.7-19.9-32.5
		c-0.8-1.3-3.5-3-4.2-2.6c-1.4,0.8-2.5,2.8-3.1,4.6c-3.5,11.6-6.7,23.3-10.3,34.9c-1.4,4.6-3.7,8.8-5.3,13.3
		c-1.1,3.2-2.1,6.6-2.5,10c-0.9,7.5-1.4,15-2,22.5c-0.1,0.8,0.5,1.6,0.6,2.4c0.5,4.2,1.6,8.4,1.3,12.6c-0.4,5.6-3.4,10.2-9.4,11.4
		c-7.3,1.4-14.6,2.8-21.9,3.3c-5.3,0.4-7.3-3.6-4.5-8.3c2.8-4.9,6.6-9.2,8.9-14.3c5.1-11.2,9.6-22.6,14.2-34
		c0.8-1.9,0.8-4.2,0.9-6.4c0.7-18.6,1.4-37.2,1.9-55.7c0.2-8.9,1-18-0.5-26.7c-1.7-10-1-19.2,2.4-28.8c2.1-6,3.2-12.5,1.1-19
		c-2.8-8.7-5.7-17.4-8-26.2c-3.4-13.3-7.7-26.5-5.8-40.6c0.1-0.8-0.3-1.6-0.5-2.5c-3.1,6.2-5.2,12.4-7.2,18.7
		c-1.4,4.5-0.2,10.3-6.7,12.1c-0.7,0.2-1,2-1.4,3c-0.8,1.8-1.5,3.7-2.5,5.4c-3.5,5.6-2.3,9.3,3.8,11.2c-3.2,5.9-10.5,8.3-15.4,5.1
		c-3-2-3.6-11.1-1.3-14.9c2.9-4.7,6.7-9.4,2.7-15.5c-0.6-0.9-0.3-2.6-0.1-3.9c2.6-18.1,5.3-36.2,8-54.3c1.3-8.9,2.6-17.8,4-26.6
		c1.6-10.6,3.9-21.1,4.8-31.8c0.9-10.4,0.3-21,0.4-31.4c0-5.1,1.7-8.8,7-10.9c6.8-2.7,13.5-5.8,19.7-9.7c3.8-2.4,7-6.2,9.4-10
		c0.8-1.3-1.9-4.8-3-7.3c-0.5-1.1-1-2.1-1.2-3.3c-1-5.8-2.9-10.9-7-15.6c-4.3-4.9-2.7-9.3,3.1-11.6c0.1-0.3,0.3-0.6,0.3-0.9
		c0-0.7,0.1-1.4-0.1-2c-2.4-7.1,1-11.9,6.5-15.7c3.1-2.2,6.5-4.1,10-5.7c10.5-5,24.4-1.9,30.3,7.8c2.7,4.4,4.3,10.3,4.2,15.5
		c-0.2,6.9,1.1,14.9-6.6,19.6c-0.5,0.3-0.5,1.4-0.8,2.2c-1.1,2.7-2.5,5.4-3.3,8.2c-0.5,2-1.2,4.9-0.2,6.1
		c8.9,10.9,21.7,15.2,34.9,20c1.3-4.8,2.3-9.2,3.7-13.4c2-6.4,5.5-10.6,12.7-12.5C173,86.8,180.9,82.6,189.6,79L189.6,79z
		 M145.7,433.7c0.5-5.5,0.9-11,1.6-16.4c1.1-8.8,2.7-17.6,3.5-26.4c0.6-5.9,4.1-11.7,1.3-17.9c-0.2-0.4-0.1-1-0.1-1.5
		c0.9-8,1.8-16,2.7-24c0.1-1.1,0.4-2.4,0-3.4c-4.5-11.9-2.1-24.5-3.8-36.6c-0.6-4.1-0.8-8.2-1.2-11.9c-4-0.9-7.6-2-11.2-2.5
		c-1-0.1-2.8,0.9-3.4,1.9c-2.7,4.8-5,9.7-7.7,14.5c-1.4,2.6-2.9,5.3-4.9,7.3c-4,4-5.3,8.2-4.4,13.9c1.3,8.5,1.8,17.2,2.2,25.8
		c0.1,1.7-1.1,4.2-2.5,5.1c-3.6,2.4-4.6,5.7-1.5,8.7c7,6.7,9,15.6,11.2,24.5c1.2,5,2.9,9.8,4.6,14.7c2,5.9,4.1,11.9,6.5,17.7
		c1.1,2.6,3.3,4.7,5,7C144.4,434,145.1,433.8,145.7,433.7L145.7,433.7z"/>
</g>
</svg>
