<?xml version="1.0" encoding="UTF-8"?>
<svg id="Layer_2" data-name="Layer 2" xmlns="http://www.w3.org/2000/svg" viewBox="0 0 164 777">
  <defs>
    <style>
      .cls-1 {
        stroke-width: 0px;
      }
    </style>
  </defs>
  <g id="Layer_1-2" data-name="Layer 1">
    <path class="cls-1" d="M47.36,555.91c-12.78.5-24.27-.27-35.2-5.05-5.97-2.61-6.31-3.53-4.71-9.79,6.38-24.8,12.7-49.62,18.8-74.49,1.57-6.42.81-12.24-3.65-18.16-5.42-7.19-3.62-16.18-1.92-24.48,2.11-10.31,7.52-19.65,7.41-30.76-.06-5.84,2.56-12.12,5.36-17.47,5.02-9.58,5.8-20.02,7.4-30.24,2.2-14.08.78-28.67,5.54-42.42,1.24-3.58,3.18-6.92,4.42-10.5.64-1.85,1.08-4.2.52-5.98-2.49-7.85-6.23-15.39-7.93-23.39-2.43-11.47-5.04-23.1-3.7-35.03.64-5.74,1.22-11.51,2.22-17.19,1.49-8.5,3.03-17.02,5.14-25.38,1.37-5.43,3.43-10.76,5.8-15.84,5.61-12.02,11.48-23.91,19.75-34.41,2.92-3.7,2.58-7.89.19-11.66-2.85-4.49-7.79-6.33-12.29-5.14-1.76.47-3.52.92-5.3,1.31-5.54,1.21-9.59-.37-13.32-5.1-4.8-6.08-10.48-11.52-16.17-16.81-3.49-3.24-4.82-6.81-4.87-11.43-.06-4.94-.98-9.87-1.11-14.82-.27-10.26-.5-20.53-.25-30.79.11-4.33,3.03-6.92,7.37-8.34,2.95-.96,5.79-2.93,8.08-5.1,5.16-4.88,9.31-11.12,15.08-14.98,4.64-3.11,11.14-5.12,16.67-4.83,12.08.64,23.18,6.2,31.22,14.8,6.47,6.92,11,16.27,11.15,26.56.17,11.5.03,11.5,10.54,15.49,1.7.65,3.35,1.61,5.11,1.93,9.57,1.73,12.87,9.2,15.27,17.17.55,1.82-.52,4.56-1.67,6.33-.98,1.51-3.03,2.54-4.81,3.28-14.68,6.15-16.22,8.45-15.23,24.51.1,1.6,1.05,3.98,2.27,4.54,10.11,4.64,15.25,14.1,21.61,22.27,9.58,12.3,13.6,26.49,12.04,42.03-1.34,13.36-3.28,26.65-4.76,40-.61,5.45-.84,10.94-1.05,16.42-.61,16.14-4.74,31.46-10.45,46.44-.46,1.22-.85,2.56-.85,3.85,0,11.47-.35,22.98.4,34.41.33,5.13,3.03,10.08,4.47,15.16,2.9,10.19,5.83,20.38,8.47,30.63,3.93,15.24-.25,30.23-2.7,45.02-2.07,12.54-1.87,24.84-.83,37.23,1,11.9,2.75,23.74,4.4,35.58,2.38,17.1,4.86,34.18,7.54,51.24.98,6.26-2.55,13.05-8.73,15.6-3.9,1.61-9.48,2.32-11.15,5.26-1.5,2.64,1.01,7.85,2.25,11.76,6.04,18.99,6.16,38.08,2.71,57.64-2.79,15.84-3.97,31.96-5.92,47.95-.28,2.3-.93,4.56-1.38,6.84-1.11,5.65-1.78,11.15,2.29,16.17.7.86.39,3.1-.19,4.35-3.57,7.64-3.75,14.92,1.15,22.16,1.13,1.67,1.7,4.01,1.75,6.06.21,8.15,0,16.31.17,24.46.08,3.98-1.74,5.47-5.42,5.19-1.98-.15-3.96-.61-5.93-.56-6.75.16-13.56,0-20.23.85-13.44,1.72-26.76,4.42-40.21,5.97-10.3,1.19-20.78,2.06-31.1,1.49-6.7-.37-13.59-2.83-19.76-5.74-7.03-3.32-6.53-7.82-.11-12.03,6.03-3.96,11.38-8.99,17.51-12.76,4.26-2.62,9.22-4.38,14.09-5.63,5.73-1.47,11.75-1.74,17.56-2.94,8.52-1.77,14.92-10.26,15.49-19.08.32-4.89,1.78-9.7,2.5-14.58.57-3.88.96-7.81,1.13-11.73.11-2.64-.21-5.32-.49-7.96-1.34-12.69-2.73-25.38-4.1-38.06-.04-.33-.16-.65-.19-.98-1.14-15.86-2.18-31.73-3.45-47.58-.39-4.91-1.13-9.84-2.2-14.65-1.16-5.18-2.81-10.26-4.41-15.33-2.29-7.25-4.32-8.69-11.82-8.73-4.8-.03-9.61,0-13.31,0Z"/>
  </g>
</svg>