<?xml version="1.0" encoding="utf-8"?>
<!-- Generator: Adobe Illustrator 28.1.0, SVG Export Plug-In . SVG Version: 6.00 Build 0)  -->
<svg version="1.1" id="Layer_2_00000026135688519802580160000017140729426687261118_"
	 xmlns="http://www.w3.org/2000/svg" xmlns:xlink="http://www.w3.org/1999/xlink" x="0px" y="0px" viewBox="0 0 553 694"
	 style="enable-background:new 0 0 553 694;" xml:space="preserve">
<g>
	<path d="M338.8,551.5l-0.7,41.5c0,0,132.3,3.7,186.5,27.3c-19.6,16-59.5,64.8-68.3,66c-15.2,2.2-25.5-1.4-40.9-0.6
		c-59.2,3.4-118.5-8.4-178.8-4.8c-71.6-1-143.1,3-214.7,0.4c-17.4-0.9-20.2-30.1-8.1-45.4c13.7-17.3,21.5-28.1,40.5-38.2
		c12.9-6.9,28.3-1.4,41.8,3.4c12,4.3,58.2-3.5,86.4-3.7c39.3-2.6,131.9-4.2,131.9-4.2l-0.3-39.8c0,0-129.8,0.3-181.8,1
		c-10.2-1,17.1-63.3,17.1-63.3l28.9-97.2c0,0,118-353.7,122.1-363.7c2.2-5.4,4.9-29.1,9.4-18.4c5.8,13.7,17.3,56.6,17.3,56.6
		l17.2,55.6c0,0,98.3,287.2,147.8,431C460.4,554.8,338.8,551.5,338.8,551.5z"/>
</g>
</svg>
