<?xml version="1.0" encoding="UTF-8"?>
<svg id="Layer_2" data-name="Layer 2" xmlns="http://www.w3.org/2000/svg" viewBox="0 0 235 647">
  <defs>
    <style>
      .cls-1 {
        stroke-width: 0px;
      }
    </style>
  </defs>
  <g id="Layer_1-2" data-name="Layer 1">
    <path class="cls-1" d="M233.39,489.25c-4.8,1.32-9.45,3.14-14.26,3.81-13.96,1.94-27.97,3.42-41.97,5.05-4.05.47-4.81,1.04-5.17,5.23-.98,11.59-2.09,23.19-2.64,34.81-.34,7.2,1.23,14.22,4.47,20.77,2.73,5.52,5.77,11.03,5.78,17.37,0,5.43.22,11.11-1.29,16.19-.87,2.95-4.65,5.47-7.66,7.26-7.93,4.72-13.61,10.87-15.52,20.18-2.86,13.95-2.17,12.55-14.94,19.5-6.4,3.48-12.63,4.76-19.52,2.5-1.05-.34-1.98-1.05-3.22-1.73.37-.93.65-1.65.95-2.37,1.31-3.22.52-4.7-2.87-4.99-4.75-.42-9.51-.69-15.12-1.09,1.12,1.91,1.84,3.49,2.87,4.84,1.91,2.49,1.12,4.32-1.19,5.8-.96.62-2.05,1.26-3.14,1.4-14.71,1.81-29.38,2.22-43.92-1.43-2.61-.65-4.31-1.66-5.13-4.6-.62-2.21-2.61-4.04-4.14-6.27-5.57,4.68-11.03,1.44-16.39.89-2.23-.23-2.55-2.16-2.64-4.16-.21-4.97-.61-9.93-.88-14.9-.42-7.71-.45-7.78-7.7-9.89-.47-.14-.91-.4-1.69-.75-.11-1.13-.33-2.4-.36-3.68-.53-20.11-1.02-40.23-1.56-60.34-.41-15.46-1.34-30.93-1.17-46.38.14-12.26,1.61-24.51,2.49-36.77.4-5.47,1.04-10.92,1.17-16.4.46-18.95.98-37.91,1.02-56.87.03-14.49-.84-28.93-6.72-42.54-.71-1.65-.93-3.52-1.33-5.3-.7-3.16-.54-6.66-4.96-7.68-.86-.2-1.5-3.02-1.56-4.67-.12-2.8.29-5.62.49-8.43.98-14.25,1.92-28.49,3-42.73.19-2.46.6-5.05,1.57-7.28,4.98-11.48,3.66-23.5,3.28-35.43-.21-6.65-.54-13.29-1.07-19.92-.44-5.45-.72-11-1.99-16.28-3.16-13.09-3.45-26.35-2.66-39.62.54-9.11,1.62-18.24,3.25-27.22,2.14-11.75,4.15-23.69,10.15-34.24,2.66-4.68,6.58-8.66,10.02-12.88.45-.56,1.48-.96,2.21-.91,4.25.26,5.16-2.52,5.87-5.88,1.11-5.29,1.07-10.49.12-15.8-1.09-6.04-1.91-12.14-2.7-18.23-.72-5.57.92-10.59,4.38-14.91,3.41-4.27,6.66-8.82,10.77-12.34,6.45-5.53,14.36-7.14,22.83-6.42,11.36.96,21.43,5.27,31.03,11.12,3,1.82,3.11,4.37,2.77,7.32-.22,1.93-.24,3.89-.36,5.84-.2,3.07.5,6.61-.79,9.13-2.95,5.77-1.72,11.62-1.94,18.03,5.95.43,11.26-.75,15.92-4.17,4.92-3.61,10.33-5.24,16.35-4.71,5.92.53,11.01,2.7,15.61,6.78,7.74,6.86,12.24,15.6,15.96,24.92,1.71,4.29,3.77,7.33,8.65,9.68,7.02,3.38,12.71,9.37,14.72,17.83.97,4.07,1.11,8.03,1.12,12.19.01,6.24,1.12,12.48,1.84,19.46-4.53,1.36-9.05,2.85-13.64,4.05-2.83.74-3.92,2.03-2.96,4.99,2.9,8.93,2.32,17.98,1.21,27.15-1.34,11.04-2.18,22.13-3.22,33.21-.36,3.8-.67,7.6-1,11.4-.06.66-.31,1.37-.16,1.98,1.48,5.89.75,11.73-.05,17.62-.32,2.33-.56,4.32-3.19,4.92-2.38.55-3.46,1.97-4.06,4.39-.75,3.03-2.83,5.31-6.08,5.95-2.88.57-4,2.37-3.49,5.01.71,3.73,1.1,7.73,2.8,11.01,4.36,8.4,9.04,16.66,14.19,24.59,6.48,10,9.29,21.14,11.85,32.52,2.34,10.37,4.99,20.7,8.02,30.89,8.65,29.17,17.64,58.23,26.34,87.38,4.37,14.63,8.4,29.35,12.94,45.27ZM103,481.9c-.57.13-1.15.27-1.72.4-.58,3.03-1.37,6.04-1.71,9.1-1.6,14.04-3.04,28.09-4.61,42.13-1.83,16.35-4.51,32.64-3.2,49.19.18,2.29.22,4.74,1.09,6.79,2.02,4.73,4.87,9.11,6.75,13.88,3.63,9.22,12.87,10.19,20.01,14.21,1.66.94,3.24-.11,3.58-2.21.43-2.62.93-5.23,1.19-7.87,1.21-11.93,1.07-23.85.66-35.85-.74-21.15-4.82-41.56-11.17-61.62-2.05-6.48-4.02-12.98-6.07-19.45-.55-1.74-1.04-3.55-1.9-5.14-.71-1.33-1.92-2.38-2.9-3.56ZM97.18,78.82c-.68,0-1.37.02-2.05.02-.69,2.79-1.35,5.59-2.08,8.36-1.79,6.81-2.61,7.42-9.52,7.47-1.32,0-2.67-.06-3.96.18-1.68.32-4.34.51-4.72,1.48-.58,1.49-.16,4.06.86,5.37,6.09,7.84,12.28,15.62,18.83,23.07,3.45,3.92,7.82,6.86,10.43,11.76,2.41,4.54,7.35,4.57,11.28,1.26,4.16-3.51,8.56-6.72,12.87-10.05,1.05-.81,2.41-1.37,3.13-2.4.65-.92,1.12-2.5.8-3.49-1.59-4.8-5.45-7.03-10.61-6.17-7.36,1.23-12.98-.67-15.9-8.12-.28-.72-.92-1.67-1.57-1.83-4.78-1.19-4.65-4.9-4.71-8.64-.04-2.15-.15-4.34-.54-6.45-.73-3.97-1.68-7.89-2.54-11.83ZM146.77,554.67c.66-.09,1.32-.19,1.99-.28-.31-15.81-.98-31.6-3.08-47.39-.92,1.14-1.31,2.32-1.3,3.5.08,7.13.23,14.26.39,21.39.13,5.62.17,11.25.51,16.86.12,2,.97,3.95,1.49,5.92Z"/>
  </g>
</svg>