<?xml version="1.0" encoding="UTF-8"?>
<svg id="Layer_2" data-name="Layer 2" xmlns="http://www.w3.org/2000/svg" viewBox="0 0 198 774">
  <defs>
    <style>
      .cls-1 {
        stroke-width: 0px;
      }
    </style>
  </defs>
  <g id="Layer_1-2" data-name="Layer 1">
    <path class="cls-1" d="M109.09,771.44c-11.25-.56-22.5-1.08-33.75-1.72-2.97-.17-5.91-.74-8.86-1.12-1.97-.25-4-.92-5.9-.64-9.27,1.36-18.11-.95-27.06-2.65-5.2-.98-8.77-3.68-10.68-8.6-.54-1.39-1.25-2.78-1.46-4.24-1.41-10.13-4.16-19.97-4.47-30.39-.28-9.3.55-18.57.02-27.79-.47-8.08-2.34-16.08-3.56-24.12-.6-3.92-1.13-7.85-1.72-11.78-.76-5.07-1.55-10.14-2.34-15.21-.15-.98-.52-1.96-.51-2.94.11-11.97.28-23.94.41-35.91.02-1.82-.15-3.63-.17-5.45-.03-1.98-.58-4.2.11-5.91,2.34-5.79,1.35-11.82,1.99-17.72.74-6.87,1.96-13.78,3.86-20.42,2.96-10.36,6.82-20.45,9.98-30.76,1.1-3.59,1.75-7.46,1.79-11.22.24-20.13.22-40.26.29-60.39,0-.67.21-1.43-.04-1.98-3.12-6.99-1.34-13.94-.02-20.93.33-1.77.52-3.76.07-5.46-1.86-7.07.77-13.81,1.09-20.7.56-12.1.95-24.31.02-36.37-1.55-20.22-4.09-40.36-6.45-60.51-.62-5.25-1.51-10.62-3.29-15.56-7.37-20.4-10.46-41.53-11.35-63.07-.37-9.12-.6-18.25-.8-27.37-.21-9.5.27-18.88,2.61-28.22,1.85-7.38,2.74-15.03,3.71-22.61.72-5.66,2.95-10.48,6.53-14.8,6.45-7.79,12.81-15.65,19.27-23.43,1.48-1.78,3.27-3.29,4.81-5.02,4.4-4.93,8.76-9.91,13.11-14.89,1.53-1.75,2.94-3.6,4.49-5.32,2.28-2.54,5.02-3.39,8.5-2.81,5.7.94,6.52.06,7.29-5.71.96-7.23,1.58-14.55,3.24-21.63,3.51-14.96,9.43-28.56,21.82-38.75,5.66-4.65,10.44-10.39,18.11-11.57,12.77-1.96,25.5-1.64,37.77,2.67,3.09,1.09,5.89,3.69,8.21,6.18,7.78,8.32,15.53,16.71,22.76,25.5,2.49,3.03,3.87,7.23,4.97,11.11.79,2.79.36,5.95.31,8.94-.09,6.12-3.31,9.96-9.28,11.12-1.46.28-2.96.37-4.45.44-3.5.18-5.71,1.85-7.27,5.08-1.42,2.94-3.75,5.43-5.28,8.32-2.07,3.91-4.31,7.86-5.49,12.08-1.68,5.99-5.11,10.26-10,13.76-3.63,2.6-7.36,5.17-10.49,8.31-3.05,3.06-6.26,4.76-10.56,4.38-3.13-.28-6.27-.58-9.41-.67-3.58-.11-4.54,1.22-3.25,4.61.7,1.85,1.77,3.56,2.79,5.27,7.81,13.13,16.22,25.94,23.3,39.46,6.31,12.04,11.21,24.83,16.63,37.33,3.3,7.61,6.57,15.25,9.53,23,1.28,3.34,2.42,6.98,2.46,10.49.14,12.02.88,23.85,3.8,35.63,1.45,5.85.87,12.22,1.24,18.35,1.09,18.07,2.99,36.11,1.91,54.24-.88,14.76-2.5,29.49-2.74,44.25-.15,8.82-3.35,16.09-7.74,23.11-4.44,7.09-10.58,9.47-18.38,6.77-5.43-1.88-9.89-1.07-14.51,1.98-3.44,2.27-5.13,4.9-5.67,9.21-.77,6.18-3.12,12.13-4.23,18.29-1.53,8.5-2.91,17.06-3.65,25.65-1.39,16.24-2.46,32.51-3.32,48.78-.65,12.24-6.63,21.77-14.54,30.31-8.41,9.08-11.77,20.13-13.48,31.96-.61,4.26-.81,8.61-1.8,12.78-1.75,7.32-1.56,14.45.45,21.68,4.58,16.51,5.86,33.38,4.86,50.43-.17,2.79-1.25,5.53-1.51,8.32-.23,2.42-.68,5.29.32,7.29,5.74,11.48,12.81,21.12,27.38,22.33,12.36,1.02,24.62,3.35,36.9,5.23,2.92.45,5.92,1.06,8.62,2.22,9.44,4.03,10.85,14.82,2.03,20.17-8.19,4.98-16.09,11.32-26.55,11.41-3.32.03-5.49,1.97-6.19,5.43-.33,1.62-.93,3.19-1.51,4.75-2.02,5.43-5.85,8.3-11.72,8.28-4.64-.02-9.28,0-13.91,0,0-.2,0-.4,0-.6Z"/>
  </g>
</svg>