<?xml version="1.0" encoding="utf-8"?>
<!-- Generator: Adobe Illustrator 28.1.0, SVG Export Plug-In . SVG Version: 6.00 Build 0)  -->
<svg version="1.1" id="Layer_2_00000057113671893106303210000003962568046036709786_"
	 xmlns="http://www.w3.org/2000/svg" xmlns:xlink="http://www.w3.org/1999/xlink" x="0px" y="0px" viewBox="0 0 344 868"
	 style="enable-background:new 0 0 344 868;" xml:space="preserve">
<g id="Layer_1-2">
	<path d="M74,822.9c2.4,0.6,3.8,2.9,5,5.9c1.1,2.8,2.6,5.5,4.5,7.7c4.4,5,6,11,6.6,17.4c0.3,2.9-0.1,5.9-0.5,8.8
		c-0.5,2.9-2.7,4.3-5.5,4c-7.2-0.8-13.6-3.6-18.7-9c-3.3-3.5-6-7.6-9.6-10.8c-9.2-8-16.9-17.1-23.1-27.7c-3.7-6.3-5.7-12.6-5.5-19.8
		c0.2-7.7-3.2-14.5-5.8-21.5c-0.3-0.9-1.5-2-2.5-2.2c-4.8-1-6.4-4.8-7.9-8.8c-0.8-2-1.9-3.9-2.6-5.9c-2.1-6.3-4.1-12.6-5.9-19
		c-1-3.4,0.6-5.7,3.9-7c2.3-0.9,4.5-2.1,6.5-3.6c6.8-5,13.7-9.9,20.1-15.4c5.2-4.5,11.1-7,17.6-8.7c6.6-1.6,12.3-4.6,14.3-12.1
		c0.6-2.1,2.1-4.4,3.9-5.6c6.5-4.3,11.6-10.2,17.1-15.5c3-2.9,6.4-5.5,9.8-7.9c6.1-4.2,13.1-7.2,17.9-13.2c0.5-0.6,1.2-1.2,1.9-1.6
		c6.2-3.5,12.1-7.5,19.2-9.2c3.2-0.8,6.3-2.1,9.3-3.6c7.5-3.8,14.6-8,18.2-16.2c1.8-4.1,3.4-8.3,5.1-12.4c1.2-3,3.4-21.6,2.9-24.9
		c-0.3-2-0.6-4-0.4-6c0.6-6.4-1.2-12.2-3.9-17.8c-1.1-2.3-2.2-4.5-3-6.8c-3.8-10.6-8.7-20.5-15.4-29.5c-1.8-2.4-2.9-5.6-3.5-8.6
		c-1.1-5.7-1.4-11.5-2.3-17.3c-0.8-5.8-1.2-11.7-3-17.1c-5.8-17.5-12.2-34.9-18.3-52.2c-1.6-4.5-2.6-9.5-5.1-13.5
		c-6.9-11-8.5-23.4-10.2-35.6c-1.5-10.5-1.7-21.2-2.7-31.8c-0.4-4-1.5-7.8-2.1-11.8c-0.5-3.4-1.3-6.9-1.3-10.3
		c0.2-8.3,1.1-16.6,1.2-24.9c0.4-18.1,0.6-36.2,0.6-54.4c0-7.6,1.4-14.8,4.1-21.9c1.6-4.4,2.2-9.3,2.9-14.1
		c1.2-7.7,1.8-15.5,3.4-23.1c1.7-8.4,3.9-16.8,6.4-25.1c1.1-3.8,2.5-7.9,5.1-10.6c5.5-5.7,11.4-11.1,17.8-15.6
		c10.5-7.5,18.6-16.5,23.2-28.6c0.6-1.7,0.6-3.6,0.9-5.6c-6,0.2-6.5,0.1-7.2-5.1c-2.1-16-4.6-31.9-5.9-48
		c-0.7-8.7,0.2-17.7,4.8-25.7c5.3-9.1,12.3-15.7,23.9-14.1c0.9,0.1,2-0.1,2.9-0.4c6.6-2.1,13.2-4.3,19.9-6.2
		c2.5-0.7,5.2-1.4,7.8-1.3c4.5,0.1,8.9,0.7,13.4,1.2c7.4,0.9,14.7,1.8,22.1,2.9c0.9,0.1,1.7,1.3,2.6,1.9c2.6,1.6,5,4,7.8,4.6
		c5.1,1,9.3,3.6,13.2,6.6c1.9,1.4,3.5,4.7,3.3,6.9c-0.5,5-2.3,9.9-3.3,14.9c-1,4.6-2,9.3-2.3,14c-0.3,5.2,1.7,10.3,0.7,15.6
		c-0.5,2.4,0.3,5.2,0.5,7.7c0.1,2.4,0.8,5.1,0.1,7.3c-2.3,7.6-6.4,14.5-8.9,22.2c-1.3,4-2.5,7.7-2.4,11.8c0.1,3.7-1.5,6-4.7,7.4
		c-1.7,0.7-3.4,1.2-5.1,1.8c-7.1,2.5-14.2,5-17.6,12.7c-0.4,1-1,2.3-0.7,3.2c1.7,5.7,3.4,11.3,5.4,16.9c0.9,2.5,2.8,4.6,3.4,7.1
		c2.4,10.2,4.4,20.4,6.5,30.7c0.3,1.4,0,3,0.2,4.5c1.1,6.8,1.4,13.9,8.5,17.8c1,0.5,1.8,1.6,2.3,2.6c5.1,9.5,11.2,18.8,9.1,30.5
		c-0.2,0.9,0.3,2,0.7,2.8c1.7,3.4,3.4,6.8,5.4,10.1c3.1,5.3,6.8,10.3,9.4,15.8c2.6,5.4,4.6,11.1,6.3,16.8c1.6,5.5,3.4,11.2,3.6,16.9
		c0.3,8.6,2.6,16.7,4.4,24.9c0.6,2.6,0.4,5.5,0.2,8.2c-0.2,3.9-1.3,7.9-0.8,11.7c1,8.2,2.9,16.3,4.2,24.5
		c1.7,10.8,3.3,21.7,4.7,32.6c1.4,11,2.6,22.1,3.4,33.1c0.5,6.3,0.1,12.6,0.2,19c0.2,6.4-0.9,12.6-2.8,18.6
		c-2.8,8.7-7.7,16.2-21.5,15c-3.4-0.3-5.3,1.5-5.5,4.9c-0.1,1.6,0.1,3.3,0.2,5c0.6,6.5,1.2,12.9,1.8,19.4
		c0.9,12.3,1.8,24.5,2.7,36.8c0.7,8.9,1.6,17.9,2.2,26.8c0.3,5,0.4,10,0.3,14.9c-0.2,8.5-0.1,17-0.9,25.4
		c-1.2,12.6-2.7,25.1-4.6,37.6c-2,13.3-4.3,26.6-7.2,39.7c-2.5,11.2-5.5,22.3-9.6,33c-2.8,7.3,0.3,12,4,17.1c0.9,1.2,2,2.2,2.9,3.4
		c1,1.5,2.5,3.1,2.7,4.7c1,9.4,1.2,18.7-6.7,25.9c-0.8,0.7-1.3,1.8-2.3,3.2c2.9,1.6,5.7,2.8,7.9,4.6c1.7,1.3,4.1,3.8,3.7,5.2
		c-1.4,5.5,2.2,8.5,5.1,11.6c2.5,2.6,5.5,4.8,8.4,6.9c10.3,7.3,22.2,7.9,34.2,7.5c3.1-0.1,6.3-0.6,9.4-0.8c3.7-0.2,6.9,1.2,9.4,3.9
		c3.4,3.6,3.5,9.8,0.2,11.8c-4.8,2.8-8.9,7.3-15.3,6c-0.4-0.1-1,0.2-1.5,0.3c-14.6,3.3-29.1,6.7-44.2,6.9
		c-6.7,0.1-12.7-0.7-18.7-3.6c-4.2-2-8.6-3.4-13.1-4.6c-4.9-1.2-9.5-0.1-13.6,3.2c-1.6,1.3-3.8,2.3-5.7,2.3
		c-10.3-0.4-20.5-1.2-30.8-1.8c-2-0.1-3-1.1-3.1-3.1c-0.7-11.4-1.7-22.8-2-34.3c-0.2-9.1,0.4-18.3,4-26.9c0.6-1.5,0.2-3.6-0.1-5.3
		c-0.8-4.6-2.1-9.1-2.6-13.7c-0.7-5.8,2.6-10.5,5.5-15.1c1.7-2.7,1.2-4.7-0.3-7.2c-1.9-3.2-4.3-6.8-4.5-10.3
		c-0.7-12.1-0.6-24.2-0.7-36.3c0-1,0-2.1,0-3.8c-1.9,1.7-3.1,2.8-4.4,3.8c-10.8,7.9-21.6,15.8-32.6,23.5c-5.8,4.1-11.8,8-17.7,12
		c-3.8,2.6-7.4,5.5-11.3,8.1c-4.8,3.3-9.9,6-14.5,9.6c-6,4.6-11.8,9.6-17.4,14.7c-3.8,3.4-7.6,7-10.8,10.9
		c-3.7,4.7-7.3,9.6-9.8,14.9c-1.7,3.7-1.4,8.3-1.8,12.5C73.8,818.1,74,820.1,74,822.9L74,822.9z"/>
</g>
</svg>
