<?xml version="1.0" encoding="UTF-8"?>
<svg id="Layer_2" data-name="Layer 2" xmlns="http://www.w3.org/2000/svg" viewBox="0 0 987 483">
  <defs>
    <style>
      .cls-1 {
        stroke-width: 0px;
      }
    </style>
  </defs>
  <g id="Layer_1-2" data-name="Layer 1">
    <g>
      <path class="cls-1" d="M178,1c5.5,3.16,10.88,6.56,16.54,9.39,2.72,1.36,5.94,2.08,8.99,2.35,4.78.42,8.36,2.16,9.77,6.93,2.67,9.01,5.27,18.05,7.69,27.14.49,1.86.67,4.27-.1,5.92-3.02,6.51-.85,12.16,1.98,17.97,2.15,4.41,1.2,7.5-2.57,11.64-4.16,4.58-6.36,11.47-7.93,17.73-2.01,8.05-4.69,10.67-13.37,9.69-1.49-.17-3.03-.24-4.42-.71-5.2-1.78-9.97-2.33-13.76,2.88-4.26,5.86-6.41,11.66-2.79,18.9,1.5,2.99,1.17,6.92,1.56,10.44.38,3.43.28,6.94,1,10.29,1.73,8.04,3.66,16.05,5.82,23.98,1.21,4.44,3.24,8.65,4.54,13.06,3.15,10.69,6.39,21.38,8.95,32.22.8,3.36-.64,7.2-.72,10.82-.12,5.75,2.97,7.86,8.25,5.83,8.3-3.19,16.73-6.1,24.79-9.82,3.23-1.49,6.39-4.35,8.22-7.4,6.94-11.54,19.1-14.16,29.49-6.06,1.18.92,3.96,1.07,5.25.31,5.01-2.94,9.62-2.47,14.34.43,1.69,1.04,3.49,1.9,5.28,2.76,8.25,3.96,12.93,13.11,11.31,22.24-.11.63-.18,1.39-.56,1.84-2.18,2.58-15.15,4.39-18.5,3.84-7.25-1.18-14.72-2.45-21.96-1.92-8.53.62-10.53,9.19-14.47,15.12-.13.2,1.13,1.93,1.78,1.95,4.9.18,9.82,0,14.72.15,3.46.11,6.9.82,10.35.86,32.1.4,64.2.67,96.3,1.07,8.66.11,17.31.64,25.96.69,5.8.04,11.6-.63,17.4-.6,5.45.03,10.9.79,16.35.81,6.2.03,8.8-3.26,7.26-9.14-.78-3-2.1-5.92-3.58-8.66-3.12-5.78-4.09-11.95-3.17-18.28.26-1.76,2.34-4.39,3.88-4.62,5.73-.86,11.58-1.05,17.39-1.15,4.51-.08,6.79,1.55,7.12,7.02.5,8.52-1.88,15.88-5.63,23.14-.37.72-.51,1.57-.77,2.36-2.63,8.06-1.73,9.32,6.28,9.42,11.98.15,23.97.51,35.95.55,1.77,0,4.46-.81,5.07-2.06.64-1.31-.09-4.23-1.27-5.35-7.85-7.48-7.2-17.41-8.17-26.87-.44-4.3,1.45-6.51,6.07-6.36,6.13.2,12.27.04,18.4.07,4.33.02,6.59,1.43,5.22,6.45-.95,3.47-.43,7.36-1.48,10.79-1.51,4.9-3.91,9.53-5.8,14.32-.91,2.31-2.42,4.9-1.98,7.01.25,1.19,3.93,2.32,6.07,2.34,52.81.47,105.62.74,158.44,1.16,9.48.07,18.96.53,28.42,1.06,1.16.06,3.01,1.54,3.2,2.61.76,4.26.84,8.58-3.05,11.73-.39.31-.89.58-1.11.99-5.99,11.01-16.47,10.88-26.91,10.88-25.65,0-51.3-.06-76.95.06-7.14.03-14.31.28-21.38,1.16-2.13.27-4.59,2.62-5.81,4.67-4.57,7.68-8.5,15.73-13,23.45-15.05,25.79-30.25,51.49-45.37,77.24-.83,1.41-1.64,2.88-2.18,4.42-1.22,3.53-.63,5.84,3.88,5.71,5.49-.15,11,.04,16.49-.06,3.84-.07,6.88,1.25,6.97,5.34.09,4.3-3.53,4.01-6.56,4-7,0-14.02-.36-20.98.17-2.77.21-6.63,1.64-7.89,3.76-7.3,12.39-14.14,25.07-20.67,37.89-.85,1.67.37,5.23,1.76,7.04,2.72,3.53,6.42,6.29,9.36,9.68,1.16,1.33,1.35,3.51,1.98,5.3h-42c.88-1.65,1.46-3.59,2.7-4.89,3.8-3.96,7.96-7.57,11.77-11.53,3.43-3.56,3.01-7.36.16-11.22-2.36-3.19-4.56-6.5-6.7-9.85-5.54-8.65-10.77-17.51-16.66-25.91-1.36-1.94-4.82-3.27-7.38-3.36-9.55-.35-19.15.27-28.68-.28-2.22-.13-5.72-3.24-6.04-5.36-.6-3.95,3.2-5.69,6.67-5.65,7.27.08,14.54.74,21.81,1.12,2.04.11,4.09.09,6.13.12-.45-2.17-.86-4.34-1.38-6.49-.15-.62-.64-1.16-.97-1.74-19.37-34.15-38.91-68.21-57.91-102.57-2.85-5.16-5.86-6.33-11.2-6.33-15.29,0-30.59-.38-45.87-1.07-24.06-1.09-48.11-2.35-72.13-4-5.47-.38-10.76-2.86-16.22-3.96-4.27-.86-9.14-2.54-12.93-1.33-13.5,4.3-26.7,9.54-39.9,14.73-5.44,2.14-6.79,6.55-5.17,12.15,1.92,6.64,4.26,13.33,4.84,20.13.91,10.59,5.95,17.42,15.67,20.72,18.73,6.36,37.58,12.33,56.32,18.65,1.83.62,3.23,2.54,4.84,3.84,3.63,2.95,6.88,6.71,10.98,8.65,7.59,3.59,15.74,5.96,23.53,9.15,2.68,1.1,5.09,2.99,7.4,4.81,5.02,3.96,9.58,8.59,14.9,12.07,6.6,4.32,9.59,10.36,7.82,18.07-1.54,6.71-2.7,13.51-4.3,20.2-3.28,13.73-6.73,27.42-10.11,41.13h-53c-.12-3.27-.89-6.69-.2-9.78.89-3.96,3.13-7.6,4.48-11.49,1.83-5.28-3.51-11.44-8.91-10.51-7.05,1.22-11.92,7.42-12.3,14.72-.3,5.71-1.35,11.37-2.07,17.06h-38c.28-5.43.45-10.87.87-16.3.45-5.86-4.84-11.81-11.98-9.83-4.23,1.17-8.86,1.31-13.3,1.22-29.76-.56-59.51-1.28-89.26-2.03-3.31-.08-6.63-.51-9.89-1.12-8.83-1.64-13.01,3.05-11.59,12.12.81,5.19.15,10.61.15,15.93H23c-.25-1.61-.92-3.28-.69-4.82,3.02-19.55.99-38.88-2.17-58.21-1.46-8.95-2.97-18-3.15-27.02-.4-19.89.15-39.78-3.05-59.56-1.48-9.12-1.77-18.42-2.81-27.62-1.32-11.64-2.63-23.28-4.36-34.86-1.64-11.01-3.83-21.95-5.77-32.92,0-2.67,0-5.33,0-8,5.44-4.13,11.41-4.16,16.92-.3,3.09,2.17,6.12,5,9.6,5.89,4.48,1.14,7.23,3.49,8.38,7.5,1.58,5.52,2.48,11.22,3.79,16.82,4.33,18.49,8.41,36.93,8.86,56.12.39,16.56,2.16,33.1,3.73,49.61.86,9.04,2.53,18.01,3.99,26.98.18,1.12,1.27,2.09,1.94,3.13.83-1.08,2.15-2.05,2.38-3.25.64-3.25.89-6.58,1.15-9.89.6-7.49-.07-15.33,1.93-22.41,3.41-12.03,8.64-23.55,12.76-35.4.9-2.58.52-5.68.4-8.53-.2-4.65-1.48-9.41-.82-13.91.83-5.65,3.25-11.05,4.75-16.62.36-1.34.37-3.78-.37-4.24-4.7-2.93-1.47-5.67,0-8.33.69-1.25,2.58-1.97,2.98-3.23,3.56-11.08,7.86-21.72,5.21-34.19-2.56-12.06-3.27-24.64-3.58-37.03-.43-16.75,6.44-32.03,11.47-47.61.66-2.03,1.48-4.15,2.77-5.81,6.87-8.85,11.84-19.16,20.91-26.38,1.8-1.43,2.76-5.44,2.2-7.81-.4-1.71-3.84-3.52-6.12-3.84-6.29-.88-9.87-4.19-11.34-10.17-1.62-6.6-1.25-12.61.83-19.52,2.89-9.58,8.46-15.16,16.57-19.68,1.77-.99,3.76-4.46,3.29-6.11-1.97-6.91.78-12.31,4.12-17.77,1.65-2.69,3.85-5.24,4.7-8.18,3.59-12.46,11.65-20.44,23.58-24.87h20ZM412.87,291.17c0-.33,0-.66,0-.99-7.3.33-14.6.71-21.91.97-3.61.13-4.28,1.89-3.01,4.89.51,1.22,1.09,2.42,1.73,3.57,18.21,32.95,36.53,65.83,54.54,98.88,3.03,5.55,7.56,7.97,13.14,8.23,13.94.63,27.9.78,41.85.96,6.45.08,11.35-2.51,14.46-8.59,4.08-7.96,8.63-15.67,13.02-23.47,13.85-24.56,27.76-49.08,41.57-73.66,4.82-8.59,3.5-10.8-6.07-10.8-16.49,0-32.98,0-49.47,0-33.29,0-66.57,0-99.86,0ZM461.46,418.22c-.05-.48-.11-.95-.16-1.43-1.29.62-3.2.95-3.69,1.96-.48.99.25,2.8.88,4.03,2.87,5.58,5.91,11.07,8.84,16.62,2.55,4.82,5.01,9.68,7.57,14.5,2.06,3.88,4.67,4.58,7.63.96,1.66-2.03,3.3-4.14,4.55-6.43,3.07-5.63,5.89-11.4,8.85-17.09,1.15-2.2,2.78-4.21,3.55-6.52.85-2.54,1.35-5.53-2.96-5.65-11.69-.32-23.38-.63-35.07-.95Z"/>
      <path class="cls-1" d="M598,483c.79-3.32,1.34-6.72,2.4-9.95,3.69-11.26,8.33-22.27,11.17-33.74,3.37-13.62,8.64-26.54,17.58-36.81,8.1-9.3,19.09-16.11,28.85-23.95,8.09-6.49,17.01-11.21,27.11-14.06,13.65-3.85,27.16-8.23,40.62-12.73,9.64-3.22,17.99-8.43,23.23-17.64.8-1.4,2.73-2.27,3.21-3.7.7-2.08,1.56-5.13.59-6.56-3.09-4.53-1.56-7.71,1.73-10.93,1.19-1.16,3.03-2.25,3.3-3.62.36-1.85.09-5.2-.97-5.71-8.93-4.32-10.94-12.51-10.72-20.82.21-8.14-2.63-13.95-8.14-19.38-2.09-2.06-3.45-5.22-4.3-8.13-3.33-11.4,4.86-27.91,15.91-31.77,5.16-1.8,6.33-4.5,4.4-9.37-1.89-4.76-3.18-9.75-5.11-14.49-4.3-10.49-4.19-20.87-.22-31.43,2.15-5.72,3.91-11.59,5.62-17.46,2.39-8.19-3.05-15.38-11.6-15.62-1.31-.04-3.55.04-3.78-.55-3.15-8.11-12.94-8.77-17.28-16.57-4.27-7.67-10.04-15.96-20.26-18.39-4.89-1.16-6.14-5.29-5.36-9.83,1.39-8.13,1.41-15.81-2.11-23.74-2.25-5.08-2.02-11.25-3.04-16.91-.29-1.65-.62-4.23-1.64-4.65-5.26-2.14-4.15-6.09-2-8.9,4.19-5.49,8.94-10.66,14.03-15.33,8.77-8.06,18.85-13.86,30.7-16.51,12.57-2.8,25.4.52,32.95,8.43,7.81,8.19,18.93,13.72,23.56,24.93.57,1.37,1.31,2.69,1.74,4.11,1.65,5.47,3.54,10.9,4.64,16.48.55,2.78-.55,5.85-.68,8.79-.07,1.67-.34,4.03.59,4.93,7.2,6.98,13.79,14.99,25.49,14.52,2.57-.1,5.48,2.17,7.82,3.9,13.06,9.64,27.46,17.64,37.6,30.9,6.31,8.26,13.42,15.94,19.34,24.46,2.47,3.56,3.3,8.53,4.01,12.99,2.57,16.15,5.06,32.33,6.99,48.57,1.03,8.67.59,17.5,1.31,26.22.33,3.99,1.33,8.11,2.94,11.77,3.28,7.46,6.15,14.66,1.72,22.69-.79,1.44-.84,3.59-.54,5.3,2.51,14.26,5.16,28.51,7.87,42.73.21,1.12,1.22,2.08,1.86,3.11.54-.96,1.43-1.88,1.56-2.9,1.46-12.15,2.78-24.31,4.18-36.46,1-8.7,1.84-17.44,3.3-26.07.34-2.02,2.57-4.29,4.53-5.35,7.84-4.27,15.87-8.24,23.93-12.08,6.47-3.08,12.33,1.1,11.5,8.11-2.58,21.83-5.35,43.64-7.84,65.48-2.19,19.22-3.99,38.49-6.16,57.71-2.52,22.33-5.31,44.63-7.89,66.96-1.78,15.43-3.38,30.88-5.11,46.31-.1.92-.73,1.79-1.11,2.68h-20c-.22-4.7-.93-9.45-.52-14.1.44-5.07-.44-6.73-5.6-6.73-29.76-.02-59.53,0-89.29,0-7.43,0-14.86.08-22.28-.05-4.61-.08-9.23-.87-13.81-.7-6.43.25-12.82,1.36-19.25,1.62-7.26.3-9.02,2.46-8,9.81.46,3.31-.12,6.76-.23,10.14h-155Z"/>
    </g>
  </g>
</svg>