<?xml version="1.0" encoding="utf-8"?>
<!-- Generator: Adobe Illustrator 28.1.0, SVG Export Plug-In . SVG Version: 6.00 Build 0)  -->
<svg version="1.1" id="Layer_1" xmlns="http://www.w3.org/2000/svg" xmlns:xlink="http://www.w3.org/1999/xlink" x="0px" y="0px"
	 viewBox="0 0 2900 2900" style="enable-background:new 0 0 2900 2900;" xml:space="preserve">
<style type="text/css">
	.st0{opacity:0.977;fill-rule:evenodd;clip-rule:evenodd;enable-background:new    ;}
	.st1{opacity:2.300000e-02;fill-rule:evenodd;clip-rule:evenodd;enable-background:new    ;}
	.st2{opacity:9.000000e-03;fill-rule:evenodd;clip-rule:evenodd;enable-background:new    ;}
	.st3{opacity:1.600000e-02;fill-rule:evenodd;clip-rule:evenodd;enable-background:new    ;}
	.st4{opacity:6.000000e-03;fill-rule:evenodd;clip-rule:evenodd;enable-background:new    ;}
	.st5{opacity:1.300000e-02;fill-rule:evenodd;clip-rule:evenodd;enable-background:new    ;}
	.st6{opacity:2.700000e-02;fill-rule:evenodd;clip-rule:evenodd;enable-background:new    ;}
	.st7{opacity:1.700000e-02;fill-rule:evenodd;clip-rule:evenodd;enable-background:new    ;}
	.st8{opacity:8.700000e-02;fill-rule:evenodd;clip-rule:evenodd;enable-background:new    ;}
	.st9{opacity:5.000000e-03;fill-rule:evenodd;clip-rule:evenodd;enable-background:new    ;}
	.st10{opacity:4.000000e-03;fill-rule:evenodd;clip-rule:evenodd;enable-background:new    ;}
	.st11{opacity:0.209;fill-rule:evenodd;clip-rule:evenodd;enable-background:new    ;}
	.st12{opacity:1.100000e-02;fill-rule:evenodd;clip-rule:evenodd;enable-background:new    ;}
	.st13{opacity:0.163;fill-rule:evenodd;clip-rule:evenodd;enable-background:new    ;}
	.st14{opacity:1.200000e-02;fill-rule:evenodd;clip-rule:evenodd;enable-background:new    ;}
	.st15{opacity:8.000000e-03;fill-rule:evenodd;clip-rule:evenodd;enable-background:new    ;}
	.st16{opacity:7.700000e-02;fill-rule:evenodd;clip-rule:evenodd;enable-background:new    ;}
	.st17{opacity:1.400000e-02;fill-rule:evenodd;clip-rule:evenodd;enable-background:new    ;}
	.st18{opacity:1.800000e-02;fill-rule:evenodd;clip-rule:evenodd;enable-background:new    ;}
	.st19{opacity:3.500000e-02;fill-rule:evenodd;clip-rule:evenodd;enable-background:new    ;}
	.st20{opacity:1.900000e-02;fill-rule:evenodd;clip-rule:evenodd;enable-background:new    ;}
	.st21{opacity:6.400000e-02;fill-rule:evenodd;clip-rule:evenodd;enable-background:new    ;}
</style>
<g>
	<path class="st0" d="M1910.5,318.5c1,0.5,2,1,3,1.5C1911.8,320.7,1910.8,320.2,1910.5,318.5z M1793.5,569.5c5-2.7,17.8,2.6,6,2
		C1800.4,581.3,1793.6,576.3,1793.5,569.5z M1772.5,622.5c3.7-3,5,0.6,3.5,4C1775.6,624.5,1774.4,623.1,1772.5,622.5z
		 M2346.9,1190.3c-21.3,1.8-120,67.5-141.3,69.7c-19.9,8-41.5-22.2-56.5-9.5c-3-0.2-4.2-1.9-3.5-5c-10.7,4-5.7-14.7-24-6
		c-8.9-10.2,22.1-23.6,13-36c-6.2-11.4-40.9-3.3-14-21.5c-1.4-3.5-15.9-3-6-8c-3.7-7.4-5.4,2.5-11,2.5c-1.4-6.9,7.8-5.5,7-10
		c-34.9-1.3,23.3-14.1-48-52c-86.4,110.3,1.9,257.4-20.5,382c-42.8,97.1-95.7,180.9-105,288c-55.1,129.6-117.9,275.3-93,421
		c-3.2,84.4-27.5,164.2-2,246c12.2,64.7,48.5,112,49.5,177c36.3,23.4,48,73.5,61,113c-0.5,19.7,34.5,42.6,13,63
		c-24.3,19.7-39.8,90.3-174.9-54c-55.4,3.8-66.7-10.7-72.5-65.1c-20.4-29-3.6-51-3.5-81c-22-33.4-30.2-72.8-35-113.5
		c46.5-112.4,18-229.5-29.5-338.5c-25.4-118.9-84.2-208.3-99-341c12.6-40.8-277.2-10.1-336.5-29.5
		c-70.5,148.6-136.5,320.2-52.5,475.5c23.8,62.5,44.4,136.4,81.5,192c26.9,12.6,40.4,28.8,62,47c4.4,19,13.9,36.5,21,53
		c77,91.7-39.2,70.2-105,63.5c-72.2-52.6-16.2-88.9-63.5-101.5c-64.6,7.8-63.6-139-88.5-176c-21.2-74.8-40.2-152.5-78.5-221
		c-28.7-55.2-57.1-121-28-187c33.3-98.8,86.3-207.7,13-309c-21-74.8-30.4,150.3-46,175c-10.4,65.4-29.1,131.7-17,198
		c5.2,41.9,22.8,83.7,7.5,125c-25.2,150-28,312.7,18.5,460c-7.6,36.5,30.5,92,0.5,116.5c-96.1,4.7-121.7,9.5-120-97.5
		c29-50-19.7-38.5-9.5-106c23.9-115.6,9.5-233.2-18-347c-14.9-76.1,3.3-150.5,1.5-226c-19.6-83-26.6-171.8-48.5-262
		c-13.8-41.9-7.5-21.1-4,9c-5.3-12.1-5.9-26.2-9.5-39c-15.1,7.6-16.9,38.9-25.5,53c0-14.1,4.1-52.2-4-20c-1-1.9-1.6-3.9-2-6
		c-33.6,89.5-126.6,124.4-165,213c-10.8-13.1,22.3-37.9-7-21c-13.3-7.8,36-27.5,35.5-45c-55.6,50.8,2.2-18.3,23-32.5
		c-21,9.4-38.5,26-58.5,37.5c8.7-16.4,20.2-30.9,34.5-43.5c-27.8,10.7-46.9,37.4-61.5,62.5c5.7-17,14.2-32.5,25.5-46.5
		c-20.6,11.4-35.5,36.2-45.5,58.5c-25.3,52,12.2-89.4,48.5-97.5c1.6-11.8-23.6,9.4-33.5-5.5c31-13-7.2,0,5.5-13.5
		c22.8-3,29.8-14.7,50-20c-66-12.7-23.6-11.5,12-29c36.9-10,78.2-108,48-82.5c18.9-18.1,32.5-47.5,3-15.5c14.5-35,39.8-83.3,41-128
		c12.9-184.8-93.5-143.3-18.5-391.5c14.3-49.4,46.8-72.9,77-110c28-46.2,69.8-73.3,110.5-112c75-56.9,148.9-55.6,230-29
		c69.4,9.3,165,31.1,242.5,45c143.7-8.8,340.3,37.1,423.5-107c6.7-6.7,29.6-23.4,16-23c-1.8-8.1,15.5-18,1-18.5
		c-2.8-7.6-8.5,8.2-16,2.5c2-13,30.4-15.4,28-27c-65.3,9.4,29.9-12.1,37-43c-41.5,7.1-21.9-6-2-33c-49.8,3.3-52.9-8.7-2-13.5
		c11.3-3.6,8-12.8-3-13.5c8.2,0,18.3-2.2,4.5-6c-1.1,2-2.6,2.3-4.5,1c-6.4-16,23.7,0.5,5-14c21.5,4.7,10.9-3.7,1-18
		c42.5,22.2-4.7-9-23-17.5c18.7,0.8,29,11.6,42,21c16.5-7.1-26.2-37.7-38-46c65.7,13.7-28.3-26.8,17-22c-28.4-30.7-60.8-54.8-100-75
		c-27.1-26.2-52.3-53.8-85-73c-38.6-11.7-92.2-76.6-30.5-91.5c90.8,38.9,186.3,68.7,283,99c-7.1-6.7-15.7-27.9,7-9
		c3.9-0.4-1.8-8.4,5-3c-1.8-12.1,8.7-6,15.5-8c4.7-11.3-33.5-14.4-6-17.5c6,6,14.2,6.5,21,7c-9.8-1.3-19.1-22.2-10-12.5
		c17,1.3,26.8,17.6,36.5,0c14.7,15.4,11,3.1,13.5-11.5c-1.3-9.2-1.3-18.3,0-27.5c8.1,11.3,15.6,22.9,22.5,35c8.7,11,10.5,9.7,5.5-4
		c6.1,15.2,9.6-8.7,8-18c3.1-32.5,5.5,7.5,14.5,19c0.9-7.2-4.6-29.3,4-15c1.7,30.2,17.9-57.1,24.5-39.5
		c-3.7,29.3-4.8,102.6,25.5,95.5c36.6,0.7,2.2,8.1,22.5,13c2.9,15.8,21.4,1.1,20,21c6.5-72.4,59.3-187.2,141-170.5
		c12.3,72.4,23,181.6,4.3,312.8c-8.6,60.3,64.7,3.2,69.1,220.7c2.9,143.9,69.2,131.1,81,287.9
		C2380.2,1059.1,2443.8,1080,2346.9,1190.3z M532.5,1729.5c6.1-0.4,6.5,0.6,1,3C532.6,1731.7,532.3,1730.7,532.5,1729.5z
		 M569.5,1790.5c-0.2,1.9-1.2,3.2-3,4C566.7,1792.6,567.7,1791.3,569.5,1790.5z M566.5,1794.5c-0.2,1.9-1.2,3.2-3,4
		C563.7,1796.6,564.7,1795.3,566.5,1794.5z"/>
</g>
<g>
	<path class="st1" d="M479.5,182.5c475.7,0,951.3,0,1427,0c0,1.3,0,2.7,0,4c-474.3-0.2-948.7,0-1423,0.5c1,494.8,1.3,989.6,1,1484.5
		c-1.6,0.2-3.1-0.1-4.5-1c-0.7-494-0.7-988,0-1482c0.4-0.9,0.9-1.8,1.5-2.5C480.2,185.2,479.5,184,479.5,182.5z"/>
</g>
<g>
	<path class="st2" d="M1918.5,183.5c0.9-1.3,1.9-1.3,3,0C1920.6,184.6,1919.6,184.6,1918.5,183.5z"/>
</g>
<g>
	<path class="st3" d="M1931.5,183.5c1.2-1.3,2.5-1.3,4,0C1934.4,187.1,1933.1,187.1,1931.5,183.5z"/>
</g>
<g>
	<path class="st4" d="M1956.5,182.5c1,0.4,1.2,1.1,0.5,2C1956.5,183.9,1956.4,183.2,1956.5,182.5z"/>
</g>
<g>
	<path class="st5" d="M1975.5,182.5c1,0,2,0,3,0C1977.8,186.3,1976.8,186.3,1975.5,182.5z"/>
</g>
<g>
	<path class="st6" d="M2012.5,182.5c46.7,0,93.3,0,140,0c0.2,1.3-0.2,2.5-1,3.5c-46.3,0.5-92.7,0.7-139,0.5
		C2012.5,185.2,2012.5,183.8,2012.5,182.5z"/>
</g>
<g>
	<path class="st7" d="M2153.5,182.5c1.3,0,2.7,0,4,0c0.3,1.8-0.4,3.2-2,4C2153.9,185.7,2153.2,184.3,2153.5,182.5z"/>
</g>
<g>
	<path class="st1" d="M1948.5,221.5c2.9,3.4,4.4,7.4,4.5,12C1950.1,230,1948.6,226,1948.5,221.5z"/>
</g>
<g>
	<path class="st8" d="M1904.5,228.5c2,0,4,0,6,0c1.8,7.9,2.9,15.9,3.5,24c-4.3-4.4-6.8-9.8-7.5-16c-0.8-1.7-2-3-3.5-4
		C1902.5,230.8,1903,229.5,1904.5,228.5z"/>
</g>
<g>
	<path class="st9" d="M1986.5,238.5c1.6,1.3,2.1,3,1.5,5C1987,242,1986.5,240.3,1986.5,238.5z"/>
</g>
<g>
	<path class="st10" d="M1785.5,532.5C1784.8,531.2,1784.8,531.2,1785.5,532.5z"/>
</g>
<g>
	<path class="st9" d="M1776.5,534.5c1.3-1.3,2.7-1.1,4,0.5C1779.2,535.2,1777.8,535,1776.5,534.5z"/>
</g>
<g>
	<path class="st10" d="M1771.5,535.5C1772.8,536.2,1772.8,536.2,1771.5,535.5z"/>
</g>
<g>
	<path class="st11" d="M1773.5,536.5c3.3,1.7,6.3,3.8,9,6.5c-3,0.2-6-0.1-9-1C1772.9,540.3,1772.9,538.5,1773.5,536.5z"/>
</g>
<g>
	<path class="st10" d="M1754.5,623.5c0.4-1,1.1-1.2,2-0.5C1755.9,623.5,1755.2,623.6,1754.5,623.5z"/>
</g>
<g>
	<path class="st12" d="M1742.5,634.5c4-0.2,8,0,12,0.5c-7.5,2.9-15.2,4.1-23,3.5c2.8-0.9,5.6-1.6,8.5-2
		C1741.4,636.3,1742.2,635.6,1742.5,634.5z"/>
</g>
<g>
	<path class="st13" d="M1718.5,676.5c4.3,0.6,8.6,1.1,13,1.5c-4.2,1.7-8.6,2.9-13,3.5C1718.5,679.8,1718.5,678.2,1718.5,676.5z"/>
</g>
<g>
	<path class="st14" d="M1707.5,740.5c0.9-0.1,1.5,0.2,2,1C1705.4,748.2,1704.8,747.8,1707.5,740.5z"/>
</g>
<g>
	<path class="st15" d="M1684.5,771.5C1685.8,772.2,1685.8,772.2,1684.5,771.5z"/>
</g>
<g>
	<path class="st16" d="M1678.5,773.5c1.8-0.3,3.4,0,5,1c-2.4,4.5-5.6,8.5-9.5,12c-0.5-3.3-0.7-6.7-0.5-10
		C1675.7,776.3,1677.3,775.3,1678.5,773.5z"/>
</g>
<g>
	<path class="st17" d="M613.5,1126.5c0.6,0.4,1,1.1,1,2c-1.1,6.7-2.5,13.4-4,20c-0.3-0.8-0.7-1.7-1-2.5
		C610.8,1139.5,612.1,1133,613.5,1126.5z"/>
</g>
<g>
	<path class="st18" d="M2113.5,1198.5c2.3,0,4.7,0,7,0c0,1.3,0,2.7,0,4c-2.3,0-4.7,0-7,0C2113.5,1201.2,2113.5,1199.8,2113.5,1198.5
		z"/>
</g>
<g>
	<path class="st5" d="M480.5,1672.5c1.3,0,2.7,0,4,0c-0.5,5.1-2.1,5.8-5,2C479.9,1673.8,480.2,1673.2,480.5,1672.5z"/>
</g>
<g>
	<path class="st19" d="M695.5,1678.5c0.6,0.4,1,1.1,1,2c-0.8,3-1.5,6-2,9c-1.2,0.2-2.2-0.1-3-1
		C693.4,1685.4,694.7,1682,695.5,1678.5z"/>
</g>
<g>
	<path class="st20" d="M686.5,1699.5c1,2.1,1.3,4.4,1,7c-1,0-2,0-3,0c-1.5,3.8-2.2,7.8-2,12c-2.3,0.7-4.7,0.8-7,0.5
		C679.8,1712.8,683.5,1706.3,686.5,1699.5z"/>
</g>
<g>
	<path class="st10" d="M654.5,1725.5C655.8,1726.2,655.8,1726.2,654.5,1725.5z"/>
</g>
<g>
	<path class="st10" d="M654.5,1726.5C653.8,1727.2,653.8,1727.2,654.5,1726.5z"/>
</g>
<g>
	<path class="st21" d="M504.5,1745.5c2-0.2,4,0,6,0.5c-3.7,3-7.3,6-11,9c-2.9,2.4-4.9,1.9-6-1.5c0.6-1.5,1.5-2.8,2.5-4
		c2.5-0.6,5-1.3,7.5-2C503.9,1746.8,504.2,1746.2,504.5,1745.5z"/>
</g>
<g>
	<path class="st18" d="M1544.5,1820.5c0.9,1.6,1.6,3.5,2,5.5c-1.8,4.6-3.5,4.6-5,0C1542,1823.8,1543,1822,1544.5,1820.5z"/>
</g>
<g>
	<path class="st18" d="M528.5,1869.5c3,0.5,4.4,2.4,4,5.5c-1.9,3.1-2.9,6.6-3,10.5c-2.4,0.2-4.7,0.5-7,1
		C524.6,1880.8,526.6,1875.2,528.5,1869.5z"/>
</g>
<g>
	<path class="st7" d="M481.5,1885.5c1.5,3,2.4,6.4,2.5,10c0.1,5.4,0.2,10.8,0.5,16c-2.2,0.4-3.8-0.3-5-2
		C479.6,1901.6,480.3,1893.6,481.5,1885.5z"/>
</g>
<g>
	<path class="st5" d="M480.5,1914.5c3.7-0.2,4.7,1.3,3,4.5C480.1,1919.1,479.1,1917.6,480.5,1914.5z"/>
</g>
</svg>
