<?xml version="1.0" encoding="UTF-8"?>
<!DOCTYPE svg PUBLIC "-//W3C//DTD SVG 1.1//EN" "http://www.w3.org/Graphics/SVG/1.1/DTD/svg11.dtd">
<svg xmlns="http://www.w3.org/2000/svg" version="1.1" width="2900px" height="2900px" style="shape-rendering:geometricPrecision; text-rendering:geometricPrecision; image-rendering:optimizeQuality; fill-rule:evenodd; clip-rule:evenodd" xmlns:xlink="http://www.w3.org/1999/xlink">
<g><path style="opacity:0.997" fill="#000000" d="M 1041.5,792.5 C 1081.71,792.703 1122.38,793.87 1163.5,796C 1264.48,804.961 1365.15,816.628 1465.5,831C 1519.86,841.84 1574.2,852.84 1628.5,864C 1675.83,863.835 1723.17,863.835 1770.5,864C 1817.61,866.518 1864.28,872.518 1910.5,882C 1960.36,893.798 2009.69,907.465 2058.5,923C 2088.62,934.061 2118.29,946.228 2147.5,959.5C 2151.62,956.698 2155.62,956.864 2159.5,960C 2161.95,964.452 2165.62,967.452 2170.5,969C 2190.73,975.557 2211.4,980.224 2232.5,983C 2247.26,986.549 2260.93,992.549 2273.5,1001C 2307.91,1023.74 2340.91,1048.41 2372.5,1075C 2412.67,1100.59 2453.67,1124.93 2495.5,1148C 2532.46,1173.96 2560.29,1207.46 2579,1248.5C 2580.58,1250.04 2582.41,1251.21 2584.5,1252C 2590.5,1260.67 2597.83,1268 2606.5,1274C 2610.71,1275.85 2615.04,1276.85 2619.5,1277C 2632.77,1264.38 2641.93,1249.21 2647,1231.5C 2655.03,1224.27 2662.03,1225.27 2668,1234.5C 2675.94,1253.6 2674.28,1271.93 2663,1289.5C 2658.76,1296.41 2653.76,1302.74 2648,1308.5C 2646.43,1319.11 2646.1,1329.77 2647,1340.5C 2647.44,1343.38 2648.44,1346.04 2650,1348.5C 2658.7,1357.54 2667.04,1366.87 2675,1376.5C 2681.42,1386.94 2684.92,1398.27 2685.5,1410.5C 2687.88,1412.59 2689.21,1415.26 2689.5,1418.5C 2686.73,1426.12 2683.9,1433.79 2681,1441.5C 2675.67,1448.17 2670.33,1454.83 2665,1461.5C 2663.75,1466.31 2662.59,1471.15 2661.5,1476C 2663.94,1515.86 2666.77,1555.69 2670,1595.5C 2671.55,1605.14 2674.88,1614.14 2680,1622.5C 2694.27,1633.11 2707.61,1644.77 2720,1657.5C 2735.67,1679.21 2744.34,1703.54 2746,1730.5C 2750.81,1767.08 2748.81,1803.08 2740,1838.5C 2734.17,1852.33 2724.33,1862.17 2710.5,1868C 2701.71,1870.7 2693.05,1873.7 2684.5,1877C 2667.41,1881.21 2650.08,1882.54 2632.5,1881C 2617.85,1879.8 2603.19,1878.8 2588.5,1878C 2565.53,1875.09 2542.53,1872.42 2519.5,1870C 2492.82,1869.9 2466.16,1870.24 2439.5,1871C 2423.61,1870.37 2409.28,1865.37 2396.5,1856C 2369.75,1836.59 2351.58,1811.09 2342,1779.5C 2339.87,1758.37 2341.71,1737.54 2347.5,1717C 2347.36,1716.23 2347.02,1715.56 2346.5,1715C 2323.49,1711.78 2303.16,1702.78 2285.5,1688C 2279.14,1680.64 2272.48,1673.64 2265.5,1667C 2241.93,1669.29 2220.6,1663.63 2201.5,1650C 2193.31,1640.81 2184.81,1631.98 2176,1623.5C 2170.33,1616.84 2165.67,1609.51 2162,1601.5C 2155.97,1607.85 2148.64,1611.85 2140,1613.5C 2129.23,1610.8 2118.73,1607.3 2108.5,1603C 2104.43,1602.34 2100.43,1602.68 2096.5,1604C 2086.76,1607.14 2077.09,1610.47 2067.5,1614C 2063.47,1616.68 2059.47,1619.34 2055.5,1622C 2049.08,1648.11 2042.91,1674.27 2037,1700.5C 2030.88,1723.87 2022.21,1746.2 2011,1767.5C 2002.05,1780.12 1992.72,1792.45 1983,1804.5C 1981.08,1822.89 1978.74,1841.22 1976,1859.5C 1972.38,1875.82 1968.21,1891.98 1963.5,1908C 1973.61,1939 1986.44,1968.83 2002,1997.5C 2002.5,1998 2003,1998.5 2003.5,1999C 2011.69,1999.81 2019.69,2001.48 2027.5,2004C 2041.45,2010.89 2054.28,2019.39 2066,2029.5C 2074.1,2040.55 2076.44,2052.55 2073,2065.5C 2071.17,2066.67 2069.33,2067.83 2067.5,2069C 2060.38,2070.74 2053.21,2072.24 2046,2073.5C 2038.03,2073.03 2031.53,2069.7 2026.5,2063.5C 2010.29,2071.05 1993.29,2073.55 1975.5,2071C 1959.69,2069.64 1945.36,2064.47 1932.5,2055.5C 1928.95,2061.55 1923.95,2066.05 1917.5,2069C 1905.86,2072.21 1894.19,2072.21 1882.5,2069C 1877.88,2066.44 1873.72,2063.27 1870,2059.5C 1866.39,2051.95 1863.06,2044.28 1860,2036.5C 1858.19,2033.72 1856.02,2031.22 1853.5,2029C 1829.66,2033.11 1805.99,2032.11 1782.5,2026C 1770.95,2022.22 1759.61,2017.89 1748.5,2013C 1729.17,2013.11 1711.51,2007.78 1695.5,1997C 1689.43,1990.69 1685.6,1983.19 1684,1974.5C 1683.85,1949.16 1683.85,1923.83 1684,1898.5C 1682.14,1887.4 1679.81,1876.4 1677,1865.5C 1676.33,1860.5 1676.33,1855.5 1677,1850.5C 1679.16,1842.21 1681.16,1833.87 1683,1825.5C 1684.85,1810.14 1686.85,1794.81 1689,1779.5C 1691.44,1768.96 1695.77,1759.3 1702,1750.5C 1708.86,1722.42 1715.03,1694.42 1720.5,1666.5C 1683.62,1669.48 1646.96,1674.31 1610.5,1681C 1547.39,1710.22 1481.06,1726.89 1411.5,1731C 1342.07,1735.58 1272.74,1734.25 1203.5,1727C 1175.39,1722.98 1147.39,1718.32 1119.5,1713C 1093.37,1705.4 1067.37,1697.4 1041.5,1689C 1021.9,1681.2 1002.57,1672.87 983.5,1664C 941.363,1650.13 898.696,1638.13 855.5,1628C 835.554,1624.51 815.554,1621.34 795.5,1618.5C 790.014,1620.47 784.848,1623.14 780,1626.5C 769.311,1654.57 760.645,1683.23 754,1712.5C 752.004,1723.98 750.171,1735.48 748.5,1747C 762.848,1783.38 776.015,1820.21 788,1857.5C 792.199,1868.23 797.199,1878.56 803,1888.5C 809.495,1894 815.662,1899.83 821.5,1906C 839.526,1911.68 856.859,1919.01 873.5,1928C 884.903,1934.79 888.07,1944.29 883,1956.5C 874.578,1964.79 864.411,1968.79 852.5,1968.5C 845.53,1967.61 838.53,1967.28 831.5,1967.5C 832.631,1974.74 829.965,1979.91 823.5,1983C 812.373,1986.81 801.04,1987.48 789.5,1985C 775.744,1981.2 762.244,1976.7 749,1971.5C 746.482,1981.25 740.149,1985.58 730,1984.5C 722.362,1983.86 714.862,1982.53 707.5,1980.5C 707.459,1991.21 702.126,1995.87 691.5,1994.5C 667.448,1994.26 643.614,1991.92 620,1987.5C 617.14,1990.01 613.974,1992.18 610.5,1994C 604.833,1994.67 599.167,1994.67 593.5,1994C 574.512,1991.48 555.512,1989.14 536.5,1987C 530,1984.94 523.5,1983.11 517,1981.5C 513.629,1982.16 510.629,1981.16 508,1978.5C 500.409,1951.06 492.409,1923.73 484,1896.5C 476.942,1879.38 469.609,1862.38 462,1845.5C 450.465,1810.56 439.132,1775.56 428,1740.5C 422.922,1730.01 417.589,1719.68 412,1709.5C 407.549,1693.56 407.549,1677.56 412,1661.5C 423.226,1627.26 432.893,1592.6 441,1557.5C 442.145,1552.2 442.478,1546.87 442,1541.5C 439.468,1535.54 437.635,1529.37 436.5,1523C 437.501,1518.18 438.001,1513.34 438,1508.5C 414.442,1465.17 396.776,1419.5 385,1371.5C 372.375,1338 362.709,1303.67 356,1268.5C 349.956,1276.27 342.789,1282.77 334.5,1288C 325.111,1293.01 315.445,1293.68 305.5,1290C 294.625,1286.44 286.125,1279.94 280,1270.5C 273.625,1259.17 270.125,1247 269.5,1234C 273.996,1188.18 287.162,1145.01 309,1104.5C 327.916,1068.66 351.249,1036 379,1006.5C 397.037,970.442 421.203,938.942 451.5,912C 469.841,895.664 489.841,881.664 511.5,870C 538.596,857.118 565.929,844.785 593.5,833C 622.679,822.564 652.679,815.564 683.5,812C 756.302,800.045 829.469,796.879 903,802.5C 949.354,799.711 995.521,796.377 1041.5,792.5 Z M 1822.5,1812.5 C 1823.3,1813.95 1823.8,1815.62 1824,1817.5C 1825.46,1843.17 1825.63,1868.83 1824.5,1894.5C 1826.75,1913.49 1830.58,1932.16 1836,1950.5C 1837.88,1958.08 1838.54,1965.75 1838,1973.5C 1830.33,1970.17 1823.33,1965.84 1817,1960.5C 1814.11,1951.08 1812.45,1941.41 1812,1931.5C 1809.7,1910.88 1808.37,1890.21 1808,1869.5C 1813.93,1850.77 1818.77,1831.77 1822.5,1812.5 Z M 661.5,1943.5 C 653.914,1938.09 646.747,1932.09 640,1925.5C 636.643,1909.28 634.31,1892.94 633,1876.5C 640.801,1895.43 649.135,1914.1 658,1932.5C 659.274,1936.15 660.44,1939.82 661.5,1943.5 Z"/></g>
</svg>
