<?xml version="1.0" encoding="UTF-8"?>
<svg id="Layer_2" data-name="Layer 2" xmlns="http://www.w3.org/2000/svg" viewBox="0 0 2900 2900">
  <defs>
    <style>
      .cls-1 {
        stroke-width: 0px;
      }
    </style>
  </defs>
  <g id="Layer_1-2" data-name="Layer 1-2">
    <path class="cls-1" d="M1649.37,325.28c45.25,7.08,82.88,29.94,118.58,56.94,9.24,6.98,18.93,13.37,28.19,20.35,15.02,11.29,15.86,27.05,12.71,43.57-5.41,28.47-8.04,56.82.89,85.09,1.14,3.6,1.73,7.59,3.63,10.73,13.09,21.6,26.42,43.04,39.82,64.48,2.59,4.16,5.71,7.97,8.6,11.95,1.32-.15,2.66-.28,3.98-.43.69-5.66,2.89-11.65,1.83-16.95-7.77-38.52-16.09-76.94-24.54-115.31-.96-4.42-3.32-8.68-5.66-12.64-10.53-17.97-10.61-37.25-6.45-56.61,3.78-17.61,13.04-22.76,30.96-18.96,30.15,6.42,56.26,20.66,78.34,41.95,14.29,13.78,29.97,26.9,41.08,43.04,26.95,39.16,44.64,81.63,52.43,129.9,9.57,59.2,4.97,118.05,6.12,177.05.33,16.85-5.02,32.3-14.69,46.44-4.44,6.5-8.27,14.03-9.95,21.65-5.43,24.44-17.74,44.94-35.1,62.12-25.35,25.12-39.76,55.62-51.39,88.89-10.18,29.13-28.67,54.2-50.42,76.41-15.35,15.68-31.42,30.68-46.29,46.82-10.53,11.39-17.76,24.56-14.74,41.46.69,3.83-1.7,9.19-4.34,12.46-29.21,36.08-57.2,73.31-88.77,107.24-20.12,21.6-39.18,45.68-67.78,58.21-10.94,4.8-18.4,13.63-19.06,26.42-.58,11.17,5.48,18.68,16.47,17.69,8.45-.76,17.97-3.22,24.61-8.12,28.57-21.01,58.29-41.13,83.69-65.6,25.68-24.74,46.62-54.38,70.01-81.53,7.84-9.11,16.82-17.23,25.38-25.71,23.37-23.19,44.56-49.31,70.72-68.74,34.87-25.93,44.99-65.14,62.86-100.26,10.25-20.17,22.18-37.1,44.23-47.53.48,3.5,1.45,5.89,1.02,7.99-6.01,29.56-9.92,59.18-21.04,88.06-13.78,35.75-31.29,69.15-49.41,102.52-7.33,13.5-10.76,30.12-20.66,41.08-36.34,40.17-67.32,85.49-111.63,118.2-43.82,32.35-86.91,65.7-131.35,97.17-12,8.5-27.53,12.26-41.77,17.31-8.5,3.02-16.22,13.2-14.21,21.06,2.06,8.02,9.85,9.95,21.16,5.79,15.45-5.68,30.73-12.1,46.62-16.27,35.53-9.34,66.66-28.67,100.26-41.97,39.84-15.81,82.04-25.88,123.53-37.28,14.21-3.91,28.55-.08,41.26,7.97,16.09,10.15,31.87,20.78,48.32,30.3,13.63,7.87,23.02,18.91,31.72,31.87,10.66,15.89,24.69,29.44,36.06,44.89,6.32,8.58,10.61,18.78,14.92,28.62.99,2.23-.76,7.46-2.84,8.75-2.61,1.65-7.74,2.11-10.3.58-26.06-15.48-52.12-30.93-77.42-47.58-7.82-5.15-12.87-14.34-19.95-20.83-7.89-7.23-16.67-13.47-25.07-20.12-.3-.25-.94-.18-1.17-.46-16.39-19.49-33.6-5.38-50.35-.99-15.43,4.06-30.71,8.73-45.88,13.7-10.33,3.4-20.43,7.61-30.5,11.75-50.4,20.58-100.72,41.31-151.11,61.84-15.25,6.22-30.98,11.29-45.85,18.3-5.13,2.41-12.16,9.74-11.42,13.53,1.02,5.46,8.07,13.4,13.02,13.75,12.79.89,26.09-.56,38.7-3.3,50.5-10.99,95.97-34.71,142-57.02,31.97-15.5,64.68-27.38,101.17-19.06,4.52,1.02,9.44,1.4,13.37,3.58,43.16,23.85,86.18,48.85,110.11,94.2,13.42,25.45,22.25,53.42,31.87,80.72,5.38,15.28,7.16,30.6,22.58,41.87,16.57,12.13,17.81,30.83,9.19,49.03-6.34,13.37-16.9,15.76-26.75,4.72-6.93-7.79-13.07-16.82-17.36-26.31-7.79-17.31-13.3-35.65-21.04-53.01-4.39-9.85-9.87-19.92-17.28-27.58-31.36-32.46-63.62-64.02-95.54-95.92-1.19-1.19-2.36-2.44-3.6-3.55-16.65-14.97-18.27-15.25-37.23-3.58-60.95,37.56-128.96,53.65-198.36,66-24.06,4.29-47.83,10.18-71.46,16.42-3.91,1.04-9.36,8.37-8.65,11.57.96,4.36,7.08,10.58,11.17,10.73,18.07.71,36.44,1.12,54.3-1.35,30.53-4.19,60.75-10.58,91.13-16.01,18.19-3.25,36.29-8.04,54.61-9.21,32.05-2.06,61.11,9.21,88.97,24.13,46.06,24.67,82.17,60.4,113.84,101.12,4.06,5.2,7.89,11.65,8.88,17.99,2.23,14.52,10.66,25.07,18.22,36.85,15.25,23.78,30.45,48.24,29.87,78.06-.13,6.12-3.76,17.05-6.67,17.36-9.34.99-19.44-.99-24.36-11.75-6.85-14.95-14.11-29.72-20.99-44.66-2.79-6.09-5.96-9.34-13.83-10.3-13.45-1.62-24.44-8.15-33.7-19.84-28.27-35.75-57.88-70.44-87.57-105.06-6.75-7.87-15.25-14.74-24.16-20-4.67-2.74-13.47-3.45-17.89-.81-33.52,20-71.21,20.4-108.05,23.5-44.59,3.76-89.35,5.61-134.06,7.82-21.62,1.07-26.95,5.1-32.56,25.5-6.04,21.95-12.59,43.75-19.31,65.5-1.32,4.29-4.26,8.12-6.67,12-5.96,9.57-8.27,17.89-3.43,30.25,6.32,16.11,8.12,34.31,9.82,51.82.61,6.22-3.83,13.6-7.56,19.44-8.48,13.27-9.62,21.14.25,33.57,9.92,12.51,12.54,25.35,7.31,40.2-3.91,11.14-1.62,21.32,4.36,31.47,4.9,8.27,8.55,17.38,11.93,26.44,3.25,8.68-4.72,23.12-14.87,29.64-6.67,4.29-13.8,8.53-19.01,14.31-8.22,9.19-3.63,26.04,8.3,28.88,14.08,3.38,28.85,6.22,43.22,5.74,31.09-1.02,57.71,9.49,79.83,29.66,15.78,14.39,29.03,31.69,42.58,48.37,8.5,10.43,8.3,21.27-2.31,30.65-16.34,14.49-33.01,29.74-52.17,39.51-13.73,6.98-31.72,5.71-47.86,7.74-6.24.79-13.35-1.24-18.8,1.04-20.38,8.5-41.72,7.84-62.53,5.81-20.88-2.03-40.14,3.58-59.91,7.16-26.21,4.75-51.61,5.89-77.24-4.39-7.44-2.99-18.65-.99-26.49,2.46-14.19,6.27-27.53,6.85-41.74,1.67-17.61-6.42-35.32-9.85-54.53-6.95-24.49,3.68-47.76-1.65-69.53-14.19-9.03-5.2-19.67-7.61-28.93-12.51-14.39-7.56-28.93-15.23-41.87-24.89-4.09-3.05-6.5-14.24-4.19-18.98,13.14-26.75,32.61-47.71,56.61-66.36,23.12-17.94,49.03-20.4,75.14-25.88,2.89-.61,7.23-4.14,7.36-6.47.51-10.91.23-21.92-.79-32.81-.36-3.86-2.87-9.82-5.71-10.76-16.01-5.28-10.35-16.42-6.75-25.53,5.35-13.53,12.26-26.49,19.11-39.38,5.35-10.05,2.69-16.24-8.37-17.23-9.54-.84-6.32-5.94-4.42-11.55,5.28-15.68,10.61-31.44,14.46-47.5.74-3.07-4.29-8.73-7.94-11.44-7.89-5.86-10.18-12.03-4.44-20.43.23-.36.53-.71.61-1.09,5.25-24.06,10.51-48.09,15.71-72.14.25-1.22.63-2.89.05-3.7-13.42-18.65-11.67-41.82-15.96-62.5-7.84-37.79-8.73-32.28-39.23-31.92-39.74.46-79.45,1.95-119.17,1.73-24.87-.15-49.79-4.42-74.53-3.27-11.32.51-24.36,7.33-32.81,15.33-12.99,12.33-22.66,28.17-33.88,42.4-2.06,2.61-4.26,5.91-7.11,6.95-23.6,8.7-34.99,28.7-45.07,49.36-5.81,11.93-3.83,27.28,1.14,33.42-2.28,5.43-4.9,10.1-6.19,15.1-3.5,13.4-6.04,27.08-9.82,40.4-.94,3.3-5.71,8.27-7.89,7.87-3.6-.66-8.12-4.47-9.39-7.97-1.93-5.38-.99-11.72-2.06-17.51-3.38-18.19-2.11-36.62-6.09-55.29-4.26-20.1.43-47.33,11.9-64.15,13.35-19.59,20.53-43.32,38.27-59.86,8.55-7.97,17.05-16.09,26.44-22.97,15.15-11.09,30.76-21.6,46.64-31.59,7.71-4.85,16.19-10.25,24.87-11.5,31.67-4.57,63.52-7.79,95.36-10.96,35.7-3.55,71.51-6.39,107.21-9.92,2.56-.25,7-3.98,6.78-5.56-.71-5.02-1.85-12.26-5.3-14.16-7.92-4.39-17.26-6.24-26.09-8.88-9.26-2.77-18.5-5.66-27.91-7.71-21.32-4.64-42.53-10.38-64.13-12.87-34.51-3.96-68.62-7.38-99.47-25.88-20.22-12.13-42.66-15.43-65.98-9.36-3.68.96-7.51,2.11-11.19,1.95-33.98-1.47-52.71,22.48-73.01,43.65-21.87,22.84-21.87,53.9-30.73,81.74-6.88,21.65-15.63,42.81-25.07,63.49-4.26,9.36-11.8,17.38-18.65,25.33-6.78,7.87-14.52,12.69-25.27,5.15-12.71-8.91-15.17-14.54-10.13-28.78.71-1.98,1.24-4.21,2.49-5.81,21.9-27.91,18.47-66.13,38.65-94.96,3.12-4.47-.71-13.2.94-19.36,7.46-27.86,16.93-54.91,34.23-78.59,4.19-5.74,6.85-12.61,10.45-18.8,9.62-16.6,20.15-32.1,39.92-38.42,15.58-4.97,30.48-12.92,46.36-15.81,15.05-2.74,31.62-3.5,46.39-.18,38.19,8.6,77.02,16.75,113.23,31.06,41.29,16.29,81.89,33.65,125.76,41.62,4.69.86,13.7-.81,14.46-3.22,2.59-8.48,2.97-18.4-7.94-22.41-11.09-4.09-22.48-7.41-33.93-10.43-46.18-12.16-92.72-23.04-138.55-36.41-35.25-10.28-69.73-23.24-104.27-35.81-9.72-3.53-17.97-11.24-27.74-14.49-6.27-2.08-14.29-.33-21.16,1.24-12.46,2.84-24.56,9.26-37.02,9.82-32.05,1.42-64.23.86-96.35.18-8.58-.18-17.56-2.61-25.5-6.01-8.04-3.45-7.36-9.82-.36-14.49,6.67-4.42,13.65-8.53,20.88-11.93,18.45-8.7,36.44-19.36,55.88-24.67,17.61-4.8,36.87-3.63,55.42-4.87,2.87-.2,6.12,1.85,8.68,1.09,25.07-7.26,47.53,1.32,70.82,9.39,31.09,10.78,63.39,18.09,94.63,28.47,52.55,17.43,104.63,36.31,157.08,54.03,6.45,2.18,14.03,1.02,21.11,1.4-.46-11.65-10.94-10.13-17.56-12.51-59.23-21.24-119.93-38.93-175.25-69.78-11.04-6.17-19.41-17.13-28.83-26.09-2.74-2.59-4.29-6.95-7.38-8.55-38.09-19.67-57.91-58.47-89.48-84.91-3.22-2.72-5.71-6.7-9.31-8.53-15.91-8.15-23.75-21.54-31.82-37.25-7.54-14.64-23.3-25.05-35.35-37.38-4.69-4.8-9.92-9.26-13.68-14.72-11.22-16.24-22.15-32.71-32.56-49.46-4.52-7.26-10.43-14.67-4.64-24.54,1.07-1.83-1.52-6.17-2.97-9.08-5.86-11.7-12.36-23.12-17.81-35.02-2.84-6.19-3.96-13.17-5.86-19.79,1.4-.91,2.77-1.83,4.16-2.74,14.44,13.58,29.49,26.59,43.11,40.91,13.55,14.24,24.89,30.65,38.77,44.53,8.6,8.63,20.12,14.34,30.27,21.44,1.67,1.17,3.2,2.64,4.54,4.21,7.84,9.06,15.1,18.73,23.7,26.97,2.92,2.82,9.47,1.45,13.88,3.2,5.25,2.08,11.72,4.26,14.59,8.5,7.31,10.84,10.1,25.6,27.18,26.39,1.34.05,3.55,1.9,3.73,3.12,1.88,14.54,16.8,17.99,23.75,28.27,8.42,12.43,21.49,18.3,35.32,23.19,4.57,1.6,9.64,5.89,11.52,10.23,7.36,17.05,12.99,34.84,20.45,51.84,2.99,6.8,7.87,14.69,14.06,17.92,46.06,23.96,92.67,46.87,139.11,70.11,7.82,3.91,15.68,7.71,25.2,12.41,3.76-15.17,9.52-27.74-1.07-40.83-12.74-15.76-24.03-32.74-37.35-47.94-24.92-28.47-37.05-63.11-49.74-97.65-2.31-6.32-5-12.64-8.53-18.32-1.7-2.77-5.58-4.39-8.75-5.96-6.8-3.37-15.61-4.69-20.38-9.82-35.35-38.04-69.73-76.99-104.85-115.26-11.98-13.04-25.93-24.28-37.66-37.53-15.2-17.15-31.62-34-35.53-58.14-.71-4.44.41-9.19-.1-13.68-1.34-11.88-2.99-23.73-4.77-35.53-.69-4.49-2.08-8.91-3.17-13.35-2.41-9.95-3.15-20.76-7.66-29.61-5.23-10.25-14.85-18.19-20.53-28.29-3.91-6.93-6.37-15.91-5.96-23.78.66-12.76-5.08-19.89-14.36-27.38-18.02-14.54-35.25-30.17-51.84-46.34-3.3-3.2-2.46-10.84-3.1-16.49-.36-3.2,1.37-7.16,0-9.62-8.27-15.12-16.77-30.17-25.93-44.76-11.7-18.65-20.2-37.51-11.29-60.04,1.27-3.2.58-7.38.05-11.01-13.32-86.86,3.73-167.48,51.54-240.97,17.76-27.33,40.07-51.21,68.26-68.77,17.61-10.96,36.52-17.64,57.35-17.97,5.3-.08,10.61,1.14,17.48,1.95-1.57,4.59-2.31,7.69-3.65,10.51-9.59,20.2-21.7,39.59-28.22,60.72-5.3,17.2-5.38,36.49-5.3,54.84.1,27.99,9.67,54.28,22.1,78.72,6.83,13.42,18.88,24.54,29.92,35.32,6.65,6.5,15.76,5.13,20.5-3.4,4.01-7.21,7.28-15.61,7.99-23.73,1.83-20.43,2.39-41.01,2.79-61.54.43-22.84-.3-45.68.38-68.49.15-5.3,2.64-12.16,6.47-15.38,6.75-5.66,8.27-11.75,8.37-19.87.05-4.36,2.41-10.66,5.68-12.43,2.97-1.6,8.55,2.06,13.09,2.92,4.01.76,8.68,2.31,12.1.99,27.56-10.56,54.86-21.75,82.32-32.53,2-.79,4.67.1,7.03.2.63,1.04,1.27,2.11,1.9,3.15-3.78,2.89-7.18,6.83-11.44,8.48-14.97,5.73-30.45,10.2-45.4,16.06-12.81,5.02-25.15,11.27-37.89,17.08,32.89,61.03,42.1,125.46,46.59,191.01,1.07,15.48,12.66,24.28,23.24,31.39,29.41,19.74,59.63,38.44,90.62,55.68,27.28,15.17,56.18,27.38,83.97,41.67,15.45,7.94,30.1,17.48,43.65,25.43-.53-2.03-1.95-7.33-3.38-12.66l3.07-2.11c2.74,2.89,6.78,5.3,8.04,8.73,13.4,35.98,27.05,71.89,39.13,108.33,5.05,15.23,6.52,31.64,9.62,47.53,2.11.15,4.19.33,6.29.48,1.6-4.8,4.54-9.59,4.57-14.41.25-39.23,1.42-78.54-5.86-117.44-2.49-13.22-1.29-15.91,7.51-23.57.79,5.41,1.02,9.74,2.11,13.86,2.18,8.27,4.95,16.42,7.18,24.67,1.09,4.01,2.03,8.2,2.21,12.33,1.07,26.59,1.6,53.24,2.99,79.83.36,6.6,3.2,13.09,4.92,19.62,1.85.13,3.68.23,5.53.36,1.98-6.19,4.57-12.28,5.84-18.63,6.34-31.85,11.75-63.92,18.73-95.62,3.17-14.36,9.11-28.12,14.11-42.05,1.14-3.17,3.55-5.86,8.02-7.79v16.49c4.36-3.96,7.71-6.65,10.66-9.74,15.48-16.16,29.36-34.28,46.62-48.19,21.24-17.08,45.02-31.03,68.13-45.68,38.88-24.61,78.26-48.37,116.86-73.39,4.36-2.82,6.27-11.24,7.11-17.36,2.94-21.67,3.22-43.82,7.71-65.14,4.52-21.39,12.66-42.05,19.64-62.88,1.57-4.69,4.03-9.85,7.64-12.99,10.99-9.52,8.58-16.62-1.47-25.2-28.73-24.51-61.16-42.02-97.04-53.29-3.7-1.17-8.55,1.8-12.64,1.22-6.5-.89-13.02-2.61-18.98-5.23-1.42-.63-.66-6.22-.91-9.54h15.23l-.1.05ZM1515.34,899.01c1.32.86,2.61,1.73,3.93,2.59-.63,2.31-.79,4.9-1.95,6.93-8.55,14.74-19.84,28.45-16.24,47.48.48,2.56-1.24,5.79-2.56,8.37-7.21,14.13-5.89,28.9,4.87,38.85,17.66,16.29,25.48,37.61,34.28,58.26,11.37,26.62,21.09,54.08,29.54,81.79,5.18,16.98,11.44,21.42,27.89,13.45,3.43-1.65,6.78-3.48,10-5.51,41.82-26.42,83.66-52.76,125.26-79.5,3.91-2.51,7.89-7.23,8.86-11.6,5.61-25.55,20.63-44.94,38.72-62.63,6.34-6.22,13.14-12.16,18.35-19.26,3.7-5.05,6.67-11.7,7.16-17.86,1.52-18.93,2.44-37.99,2.18-56.97-.2-15.05.84-31.34-4.39-44.89-15.25-39.69-33.98-78.01-50.02-117.39-6.6-16.22-11.17-33.6-14.06-50.9-2.08-12.41.94-25.58.3-38.34-.86-17.66-2.92-35.25-4.59-52.86-.41-4.24-1.32-8.45-2.26-14.08-4.87,2.56-7.89,3.91-10.66,5.66-30.68,19.46-61.08,39.38-92.04,58.37-22.66,13.88-48.27,23.88-68.54,40.47-25.99,21.27-47.73,47.66-71.76,71.38-11.22,11.06-15.63,24.56-17.66,39.51-1.09,7.92-3.4,15.73-4.01,23.68-1.78,23.12-3.27,46.26-4.03,69.43-.1,3.22,4.39,9.26,7.08,9.47,11.5.86,14.74,8.53,17.03,17.48,1.32,5.15,2.06,10.45,3.7,19.11,9.62-15.17,17.61-27.81,25.6-40.42l.03-.05ZM1332.43,864.25c1.32-.86,2.64-1.73,3.96-2.61,3.22,4.06,6.98,7.82,9.54,12.28,4.85,8.4,8.65,17.43,13.7,25.73,1.62,2.69,5.73,3.86,8.7,5.73,1.37-3.22,4.34-6.67,3.86-9.59-5.23-31.54-7.54-64.2-17.86-94.07-6.72-19.46-23.09-37.35-39.18-51.29-14.24-12.33-34.08-18.17-51.39-27.03-33.07-16.93-66.64-33.01-98.94-51.31-22.48-12.74-43.19-28.62-64.71-43.11-1.27,15.81-1.22,32.38-4.54,48.21-1.42,6.83-9.36,16.67-15.17,17.28-12.41,1.27-16.24,8.42-20.22,17.51-2.39,5.41-4.57,11.22-8.25,15.68-16.44,19.97-17.94,44.46-22.1,68.34-1.14,6.6-5.46,12.74-8.65,18.88-1.7,3.25-4.49,5.94-6.17,9.19-5.25,10.23-10.23,20.61-16.67,33.7,10.86,11.62,24.01,25.73,37.23,39.76.81.86,2.16,1.7,3.27,1.75,12.92.41,18.4,10.28,25.3,18.88,5.76,7.16,11.62,15.5,19.39,19.54,14.82,7.71,23.8,19.89,31.87,33.34,12.13,20.22,27.79,38.65,27,64.81-.23,7.23,5.08,18.35,11.04,21.39,17.76,9.06,21.32,24.64,23.8,41.31,3.22,21.57,18.55,53.39,46.54,58.62,16.14,3.02,31.75,8.83,47.73,12.84,11.44,2.89,13.86-.58,14.01-12,.15-12.41,1.75-25.02,4.52-37.15,3.83-16.8,8.17-33.65,14.44-49.66,6.65-16.95,15.71-32.94,23.88-49.28,7.11-14.19,18.45-26.57,6.45-44.84-8.81-13.4-2-26.9,13.8-33.34,8.63-3.5,12.54-8.27,9.03-17.38-6.29-16.39-12.59-32.79-19.06-49.13-1.75-4.44-4.14-8.65-6.22-12.97l.08-.03ZM1026.44,435.54c-1.57-.1-3.15-.18-4.72-.28v42c.94.08,1.85.13,2.79.2.63-13.98,1.29-27.96,1.93-41.92Z"/>
  </g>
</svg>