<?xml version="1.0" encoding="UTF-8"?>
<!DOCTYPE svg PUBLIC "-//W3C//DTD SVG 1.1//EN" "http://www.w3.org/Graphics/SVG/1.1/DTD/svg11.dtd">
<svg xmlns="http://www.w3.org/2000/svg" version="1.1" width="2900px" height="2900px" style="shape-rendering:geometricPrecision; text-rendering:geometricPrecision; image-rendering:optimizeQuality; fill-rule:evenodd; clip-rule:evenodd" xmlns:xlink="http://www.w3.org/1999/xlink">
<g><path style="opacity:0.995" fill="#000000" d="M 1886.5,427.5 C 1900.52,430.501 1913.52,435.835 1925.5,443.5C 1929.98,448.157 1933.48,453.49 1936,459.5C 1941.97,465.473 1947.97,471.473 1954,477.5C 1958.67,484.167 1963.33,490.833 1968,497.5C 1972.32,509.122 1976.65,520.789 1981,532.5C 1986.32,538.474 1991.15,544.807 1995.5,551.5C 1994.79,553.046 1993.62,554.046 1992,554.5C 1988.87,553.804 1985.87,552.804 1983,551.5C 1981.16,570.138 1980.16,588.804 1980,607.5C 1982.5,613.501 1987,616.001 1993.5,615C 1998.72,613.721 2003.39,611.388 2007.5,608C 2018.74,598.088 2029.57,587.921 2040,577.5C 2048.15,567.016 2056.65,556.849 2065.5,547C 2067.17,546.333 2068.83,546.333 2070.5,547C 2084.05,560.66 2090.21,577.16 2089,596.5C 2087.4,603.286 2085.4,609.953 2083,616.5C 2068.84,646.862 2054.84,677.196 2041,707.5C 2032.79,737.607 2029.45,768.273 2031,799.5C 2035.38,821.26 2043.38,841.593 2055,860.5C 2056.62,868.735 2059.62,876.402 2064,883.5C 2075.07,919.326 2077.24,955.66 2070.5,992.5C 2070.71,998.102 2070.88,1003.77 2071,1009.5C 2071.5,1014.19 2072.17,1018.86 2073,1023.5C 2086.5,1062.02 2094.5,1101.69 2097,1142.5C 2100.13,1178.86 2099.8,1215.19 2096,1251.5C 2088.06,1307.99 2079.06,1364.33 2069,1420.5C 2065.76,1442.14 2059.42,1462.81 2050,1482.5C 2044.99,1503.54 2037.99,1523.87 2029,1543.5C 2019.5,1557 2008,1568.5 1994.5,1578C 1989.2,1584.3 1983.53,1590.3 1977.5,1596C 1977.83,1596.33 1978.17,1596.67 1978.5,1597C 1970.31,1607.87 1963.81,1619.7 1959,1632.5C 1959.29,1638.01 1957.96,1643.01 1955,1647.5C 1950.41,1677.49 1947.91,1707.65 1947.5,1738C 1951.42,1804.16 1955.25,1870.32 1959,1936.5C 1961.74,1985.69 1966.4,2034.69 1973,2083.5C 1979.51,2109.38 1985.51,2135.38 1991,2161.5C 1999.5,2190.48 2013.83,2216.48 2034,2239.5C 2045.61,2234.79 2057.44,2234.29 2069.5,2238C 2088.52,2244.59 2105.02,2255.09 2119,2269.5C 2124.59,2276.67 2128.59,2284.67 2131,2293.5C 2132.83,2300.64 2131.33,2306.81 2126.5,2312C 2115.5,2312.33 2104.5,2312.67 2093.5,2313C 2083.07,2314.78 2072.57,2315.94 2062,2316.5C 2049.99,2313.2 2037.82,2312.7 2025.5,2315C 2024.6,2316.24 2023.43,2317.07 2022,2317.5C 1981.87,2312.15 1941.7,2306.98 1901.5,2302C 1896.27,2300.59 1891.27,2298.59 1886.5,2296C 1880.94,2290.44 1875.44,2284.94 1870,2279.5C 1869.67,2276.83 1869.33,2274.17 1869,2271.5C 1867.49,2270.74 1866.15,2269.74 1865,2268.5C 1864.59,2265.77 1863.92,2263.1 1863,2260.5C 1859.28,2258.3 1857.61,2254.97 1858,2250.5C 1857,2249.83 1856,2249.17 1855,2248.5C 1854,2245.83 1853,2243.17 1852,2240.5C 1849.51,2236.69 1846.84,2233.02 1844,2229.5C 1843.59,2226.77 1842.92,2224.1 1842,2221.5C 1838.35,2217.22 1836.68,2212.22 1837,2206.5C 1836,2205.5 1835,2204.5 1834,2203.5C 1831.87,2195.45 1829.54,2187.45 1827,2179.5C 1826,2178.5 1825,2177.5 1824,2176.5C 1821.3,2170.62 1818.8,2164.62 1816.5,2158.5C 1812.88,2156.11 1811.55,2152.95 1812.5,2149C 1810.09,2147.38 1808.26,2145.21 1807,2142.5C 1794.01,2104.5 1777.01,2068.5 1756,2034.5C 1747.56,2024.73 1739.9,2014.4 1733,2003.5C 1723,1969.17 1712,1935.17 1700,1901.5C 1690.53,1877.87 1677.53,1856.53 1661,1837.5C 1656.69,1824.54 1651.02,1812.2 1644,1800.5C 1643.97,1795.65 1643.14,1790.98 1641.5,1786.5C 1639.05,1784.41 1636.72,1782.25 1634.5,1780C 1632.17,1779.33 1629.83,1779.33 1627.5,1780C 1609.14,1785.12 1591.3,1791.62 1574,1799.5C 1572.46,1798.72 1570.79,1798.72 1569,1799.5C 1564.87,1797.4 1560.7,1795.23 1556.5,1793C 1547.58,1790.33 1539.24,1791.66 1531.5,1797C 1522.7,1797.94 1519.7,1794.11 1522.5,1785.5C 1511.69,1785.94 1501.02,1786.1 1490.5,1786C 1477.3,1790.84 1464.13,1795.68 1451,1800.5C 1449.19,1798.29 1447.52,1795.95 1446,1793.5C 1439.8,1796.14 1433.3,1797.64 1426.5,1798C 1422.98,1801.4 1418.82,1801.9 1414,1799.5C 1411.48,1800.1 1408.98,1800.77 1406.5,1801.5C 1399.85,1851.98 1380.68,1896.98 1349,1936.5C 1334.68,1951.49 1319.18,1964.99 1302.5,1977C 1257.17,2005 1211.83,2033 1166.5,2061C 1157.06,2069.11 1147.06,2076.44 1136.5,2083C 1130,2089.5 1123.5,2096 1117,2102.5C 1102.35,2126.1 1095.68,2151.76 1097,2179.5C 1104.86,2209.89 1118.53,2237.23 1138,2261.5C 1149.69,2277.54 1161.03,2293.87 1172,2310.5C 1176.5,2315.67 1181,2320.83 1185.5,2326C 1189.45,2329.64 1194.12,2331.64 1199.5,2332C 1214.5,2332.33 1229.5,2332.67 1244.5,2333C 1255.3,2334.82 1264.47,2339.65 1272,2347.5C 1277.64,2353.8 1282.47,2360.63 1286.5,2368C 1286.38,2369.27 1286.05,2370.6 1285.5,2372C 1281.53,2373.23 1277.53,2374.39 1273.5,2375.5C 1270.15,2378.69 1266.15,2380.85 1261.5,2382C 1250.14,2385.68 1238.81,2389.35 1227.5,2393C 1213.32,2393.08 1199.32,2391.42 1185.5,2388C 1176.19,2387.04 1166.86,2386.37 1157.5,2386C 1147.16,2386.59 1140.33,2382.09 1137,2372.5C 1129.57,2344.64 1118.57,2318.31 1104,2293.5C 1091.58,2273.01 1077.92,2253.34 1063,2234.5C 1045.09,2214.59 1026.42,2195.25 1007,2176.5C 1002.29,2171.46 997.955,2166.12 994,2160.5C 991.129,2154.24 991.129,2147.91 994,2141.5C 998.87,2130.09 1004.54,2119.09 1011,2108.5C 1033.71,2081.41 1053.71,2052.41 1071,2021.5C 1088.13,1990.27 1098.3,1956.94 1101.5,1921.5C 1101.52,1918.08 1101.02,1914.74 1100,1911.5C 1097.46,1917.2 1094.3,1922.54 1090.5,1927.5C 1089.64,1928.58 1088.64,1928.75 1087.5,1928C 1090.06,1924.71 1091.89,1921.21 1093,1917.5C 1077.59,1930.79 1062.09,1943.95 1046.5,1957C 1043.4,1958.83 1040.06,1960.16 1036.5,1961C 996.254,1990.31 953.254,2015.31 907.5,2036C 886.872,2044.21 865.872,2051.21 844.5,2057C 788.342,2086.9 734.009,2119.57 681.5,2155C 678.202,2158 675.035,2161.17 672,2164.5C 671.667,2164.17 671.333,2163.83 671,2163.5C 655.926,2179.57 641.26,2195.9 627,2212.5C 625.539,2217 623.206,2221 620,2224.5C 619.685,2227.37 619.185,2230.2 618.5,2233C 619.676,2249.22 621.509,2265.39 624,2281.5C 624.333,2288.83 624.667,2296.17 625,2303.5C 627.988,2319.32 629.655,2335.32 630,2351.5C 630.77,2362 632.437,2372.34 635,2382.5C 643.336,2394.51 653.836,2404.01 666.5,2411C 669.217,2414.69 672.884,2416.69 677.5,2417C 688.739,2417.3 699.739,2418.96 710.5,2422C 727.763,2430.03 736.93,2443.53 738,2462.5C 737.167,2463.33 736.333,2464.17 735.5,2465C 730.187,2468.3 724.854,2471.64 719.5,2475C 715.558,2475.99 711.558,2476.66 707.5,2477C 704.785,2478.91 701.785,2480.24 698.5,2481C 690.47,2481.77 682.47,2481.6 674.5,2480.5C 672.199,2481.86 670.199,2483.69 668.5,2486C 663.061,2488.37 657.394,2489.04 651.5,2488C 629.477,2482.99 608.81,2474.65 589.5,2463C 580.805,2457.97 574.638,2450.81 571,2441.5C 571.618,2397.4 567.618,2353.73 559,2310.5C 541.862,2266.33 530.362,2220.66 524.5,2173.5C 525.409,2164.61 528.575,2156.61 534,2149.5C 541.2,2126.2 547.7,2102.7 553.5,2079C 548.198,2076.34 542.864,2073.67 537.5,2071C 505.966,2067.09 479.8,2053.26 459,2029.5C 454.394,2021.96 449.061,2014.96 443,2008.5C 439.962,2004.79 437.795,2000.63 436.5,1996C 436.645,1994.77 436.978,1993.61 437.5,1992.5C 505.323,1949.52 569.323,1901.36 629.5,1848C 656.697,1822.47 682.864,1795.97 708,1768.5C 715.472,1759.7 722.139,1750.37 728,1740.5C 734.088,1734.75 739.755,1728.75 745,1722.5C 744.937,1718.56 746.603,1715.56 750,1713.5C 749.811,1709.73 751.311,1706.9 754.5,1705C 755.333,1702.5 756.167,1700 757,1697.5C 758.011,1696.66 759.178,1696.33 760.5,1696.5C 760.351,1692.25 761.851,1688.92 765,1686.5C 765.299,1681.39 767.133,1677.05 770.5,1673.5C 771.197,1669.53 771.697,1665.53 772,1661.5C 773.085,1659.63 774.418,1657.96 776,1656.5C 775.585,1650.96 777.251,1646.3 781,1642.5C 783.928,1627.13 788.261,1612.13 794,1597.5C 803.268,1574.97 813.268,1552.97 824,1531.5C 835.178,1515.6 848.178,1500.6 863,1486.5C 867.359,1480.99 871.859,1475.49 876.5,1470C 906.296,1442.84 937.129,1417.34 969,1393.5C 969.718,1394.45 970.551,1394.62 971.5,1394C 986.93,1382.45 1003.93,1373.78 1022.5,1368C 1063.59,1354.52 1104.93,1341.86 1146.5,1330C 1187.32,1319.88 1228.32,1310.54 1269.5,1302C 1320.02,1289.83 1369.68,1274.83 1418.5,1257C 1453.75,1244.64 1485.59,1226.81 1514,1203.5C 1514.91,1204.65 1515.75,1204.49 1516.5,1203C 1516.17,1202.67 1515.83,1202.33 1515.5,1202C 1522.77,1196.4 1529.77,1190.4 1536.5,1184C 1545.97,1173.53 1555.8,1163.36 1566,1153.5C 1566.01,1149 1567.51,1145.17 1570.5,1142C 1575.61,1113.1 1589.28,1089.1 1611.5,1070C 1616.29,1066.94 1621.29,1064.44 1626.5,1062.5C 1625.31,1055.32 1623.97,1048.15 1622.5,1041C 1623.06,1035.04 1624.22,1029.21 1626,1023.5C 1633.11,1011.6 1639.45,999.272 1645,986.5C 1649.92,969.394 1653.75,952.06 1656.5,934.5C 1634.27,929.139 1615.1,918.472 1599,902.5C 1593.19,896.188 1588.36,889.188 1584.5,881.5C 1596.41,869.875 1608.75,858.709 1621.5,848C 1634.73,835.438 1647.23,822.272 1659,808.5C 1666.8,796.68 1673.8,784.347 1680,771.5C 1683.84,751.474 1689.84,732.14 1698,713.5C 1703.92,702.656 1710.59,692.323 1718,682.5C 1729.47,671.695 1740.97,660.861 1752.5,650C 1781.05,632.452 1803.88,609.286 1821,580.5C 1833.32,545.018 1848.32,510.351 1866,476.5C 1872.19,462.596 1877.19,448.262 1881,433.5C 1883.27,431.878 1885.11,429.878 1886.5,427.5 Z"/></g>
<g><path style="opacity:0.004" fill="#000000" d="M 1064.5,1348.5 C 1064.9,1347.47 1065.56,1347.31 1066.5,1348C 1065.91,1348.46 1065.24,1348.63 1064.5,1348.5 Z"/></g>
<g><path style="opacity:0.004" fill="#000000" d="M 1062.5,1348.5 C 1063.83,1349.17 1063.83,1349.17 1062.5,1348.5 Z"/></g>
<g><path style="opacity:0.004" fill="#000000" d="M 1467.5,1799.5 C 1467.9,1798.47 1468.56,1798.31 1469.5,1799C 1468.91,1799.46 1468.24,1799.63 1467.5,1799.5 Z"/></g>
<g><path style="opacity:0.009" fill="#000000" d="M 1467.5,1799.5 C 1466.75,1800.57 1465.75,1800.74 1464.5,1800C 1465.45,1799.52 1466.45,1799.35 1467.5,1799.5 Z"/></g>
<g><path style="opacity:0.004" fill="#000000" d="M 475.5,2063.5 C 474.833,2062.17 474.833,2062.17 475.5,2063.5 Z"/></g>
<g><path style="opacity:0.024" fill="#000000" d="M 427.5,2063.5 C 428.776,2064.39 428.776,2065.39 427.5,2066.5C 426.438,2065.58 426.438,2064.58 427.5,2063.5 Z"/></g>
<g><path style="opacity:0.004" fill="#000000" d="M 475.5,2063.5 C 476.167,2063.5 476.5,2063.83 476.5,2064.5C 476.167,2064.17 475.833,2063.83 475.5,2063.5 Z"/></g>
<g><path style="opacity:0.004" fill="#000000" d="M 476.5,2064.5 C 477.833,2065.17 477.833,2065.17 476.5,2064.5 Z"/></g>
<g><path style="opacity:0.004" fill="#000000" d="M 495.5,2082.5 C 495.897,2081.47 496.563,2081.31 497.5,2082C 496.906,2082.46 496.239,2082.63 495.5,2082.5 Z"/></g>
<g><path style="opacity:0.117" fill="#000000" d="M 1090.5,2281.5 C 1092.17,2283.18 1093.01,2285.18 1093,2287.5C 1090.96,2286.02 1090.13,2284.02 1090.5,2281.5 Z"/></g>
<g><path style="opacity:0.095" fill="#000000" d="M 1098.5,2299.5 C 1094.63,2296.48 1093.13,2292.81 1094,2288.5C 1096.07,2291.97 1097.57,2295.64 1098.5,2299.5 Z"/></g>
<g><path style="opacity:0.016" fill="#000000" d="M 1098.5,2299.5 C 1099.34,2299.84 1099.67,2300.51 1099.5,2301.5C 1098.66,2301.16 1098.33,2300.49 1098.5,2299.5 Z"/></g>
<g><path style="opacity:0.004" fill="#000000" d="M 1099.5,2301.5 C 1100.53,2301.9 1100.69,2302.56 1100,2303.5C 1099.54,2302.91 1099.37,2302.24 1099.5,2301.5 Z"/></g>
</svg>
