<?xml version="1.0" encoding="UTF-8"?>
<!DOCTYPE svg PUBLIC "-//W3C//DTD SVG 1.1//EN" "http://www.w3.org/Graphics/SVG/1.1/DTD/svg11.dtd">
<svg xmlns="http://www.w3.org/2000/svg" version="1.1" width="2900px" height="2900px" style="shape-rendering:geometricPrecision; text-rendering:geometricPrecision; image-rendering:optimizeQuality; fill-rule:evenodd; clip-rule:evenodd" xmlns:xlink="http://www.w3.org/1999/xlink">
<g><path style="opacity:0.958" fill="#0e0a0c" d="M 2057.5,342.5 C 2080.61,341.764 2103.61,342.931 2126.5,346C 2171.03,356.527 2201.2,383.36 2217,426.5C 2222.75,442.738 2229.08,458.738 2236,474.5C 2248.59,485.76 2261.76,496.26 2275.5,506C 2307.67,532.176 2325.17,566.01 2328,607.5C 2324.54,615.231 2318.54,618.564 2310,617.5C 2305.47,617.281 2300.97,616.781 2296.5,616C 2281.47,612.825 2266.47,609.492 2251.5,606C 2245.39,605.091 2239.39,605.424 2233.5,607C 2228.8,612.234 2224.96,618.067 2222,624.5C 2211.58,644.245 2206.92,665.245 2208,687.5C 2211.07,714.501 2217.07,740.834 2226,766.5C 2252.23,830.964 2279.56,894.964 2308,958.5C 2339.95,1033.68 2367.95,1110.34 2392,1188.5C 2408.96,1244.26 2418.13,1301.26 2419.5,1359.5C 2420.73,1406.53 2411.89,1451.53 2393,1494.5C 2367.12,1548.62 2336.46,1599.62 2301,1647.5C 2264.33,1695.5 2227.67,1743.5 2191,1791.5C 2174.71,1810.8 2158.04,1829.8 2141,1848.5C 2120.3,1869.53 2099.97,1890.86 2080,1912.5C 2061.97,1930.86 2043.64,1948.86 2025,1966.5C 1998.2,2000.96 1967.7,2031.8 1933.5,2059C 1917.34,2069.58 1901,2079.92 1884.5,2090C 1879.3,2094.87 1874.47,2100.03 1870,2105.5C 1831.2,2155.75 1794.87,2207.75 1761,2261.5C 1752.28,2278.07 1748.11,2295.73 1748.5,2314.5C 1748.76,2326.27 1749.93,2337.93 1752,2349.5C 1771.89,2404.95 1796.89,2457.95 1827,2508.5C 1831.39,2516.23 1836.56,2523.39 1842.5,2530C 1846.7,2533.1 1851.36,2535.1 1856.5,2536C 1890.17,2537.55 1923.84,2537.22 1957.5,2535C 1970.09,2531.52 1982.76,2528.36 1995.5,2525.5C 2006.23,2527.52 2016.9,2529.85 2027.5,2532.5C 2038.66,2528.84 2050,2525.67 2061.5,2523C 2087.8,2522.74 2108.64,2533.24 2124,2554.5C 2130.72,2565.28 2136.39,2576.61 2141,2588.5C 2142.97,2597.18 2142.97,2605.85 2141,2614.5C 2137.04,2619.4 2131.87,2622.07 2125.5,2622.5C 2113.63,2619.71 2101.96,2616.21 2090.5,2612C 2075.17,2608.71 2059.84,2608.71 2044.5,2612C 2015.49,2621.86 1985.65,2626.02 1955,2624.5C 1924.6,2624.87 1894.6,2621.53 1865,2614.5C 1859.81,2617.18 1854.65,2620.01 1849.5,2623C 1835.13,2627.79 1820.47,2628.79 1805.5,2626C 1789.43,2623.15 1773.43,2619.98 1757.5,2616.5C 1745.79,2618.84 1734.12,2621.34 1722.5,2624C 1699.12,2625.86 1675.78,2628.19 1652.5,2631C 1640.12,2632.25 1628.79,2636.25 1618.5,2643C 1611.33,2645.34 1604,2646.01 1596.5,2645C 1580.44,2639.95 1564.11,2638.62 1547.5,2641C 1535.79,2645.29 1523.79,2648.46 1511.5,2650.5C 1489.38,2648.7 1467.71,2644.54 1446.5,2638C 1437.5,2636.05 1428.5,2636.05 1419.5,2638C 1406.96,2641.3 1394.3,2643.97 1381.5,2646C 1340.44,2647.25 1299.44,2646.25 1258.5,2643C 1251.48,2642.44 1245.32,2639.94 1240,2635.5C 1235.37,2626.33 1236.7,2618 1244,2610.5C 1266.15,2591.17 1290.98,2576 1318.5,2565C 1336.08,2559.62 1354.08,2556.95 1372.5,2557C 1375.99,2556.06 1379.33,2554.72 1382.5,2553C 1390.6,2546.9 1398.1,2540.07 1405,2532.5C 1412.9,2523.23 1414.56,2512.89 1410,2501.5C 1388.36,2451.24 1370.69,2399.57 1357,2346.5C 1354.35,2333.94 1352.35,2321.27 1351,2308.5C 1349.5,2274.42 1347,2240.42 1343.5,2206.5C 1322.96,2215.44 1302.63,2224.94 1282.5,2235C 1239.55,2254.1 1195.88,2271.43 1151.5,2287C 1144.17,2291.14 1139.34,2297.31 1137,2305.5C 1121.12,2348.48 1104.45,2391.15 1087,2433.5C 1076.49,2458.19 1065.15,2482.53 1053,2506.5C 1046.79,2518.04 1039.79,2529.04 1032,2539.5C 1011.89,2563.22 989.395,2566.05 964.5,2548C 958.967,2542.8 953.8,2537.3 949,2531.5C 938.428,2539.54 927.261,2546.71 915.5,2553C 890.514,2558.5 871.514,2550.34 858.5,2528.5C 850.173,2535.32 841.173,2541.15 831.5,2546C 813.824,2554.52 797.657,2552.36 783,2539.5C 779.991,2535.48 777.491,2531.15 775.5,2526.5C 755.274,2544.44 731.608,2554.44 704.5,2556.5C 692.325,2556.72 681.825,2552.72 673,2544.5C 670.806,2541.45 669.139,2538.11 668,2534.5C 648.278,2550.27 625.778,2559.27 600.5,2561.5C 588.606,2559.02 576.606,2558.18 564.5,2559C 554.264,2561.64 543.931,2563.81 533.5,2565.5C 521.256,2565.15 510.756,2560.81 502,2552.5C 496.129,2541.61 496.129,2530.61 502,2519.5C 521.614,2492.22 541.614,2465.22 562,2438.5C 586.508,2402.82 611.508,2367.48 637,2332.5C 662.29,2301.61 688.29,2271.27 715,2241.5C 728.375,2220.58 741.875,2199.75 755.5,2179C 726.528,2187.43 697.528,2196.1 668.5,2205C 660.827,2207.38 652.993,2208.88 645,2209.5C 624.268,2208.03 616.935,2197.37 623,2177.5C 634.065,2150.7 646.732,2124.7 661,2099.5C 686.481,2056.37 713.147,2014.03 741,1972.5C 752.905,1955.92 765.572,1939.92 779,1924.5C 814.731,1888.1 849.731,1851.1 884,1813.5C 901.621,1790.88 919.621,1768.54 938,1746.5C 945.755,1735.33 952.755,1723.66 959,1711.5C 969.723,1687.33 980.056,1663 990,1638.5C 1011.63,1595.21 1036.3,1553.88 1064,1514.5C 1139.81,1409.67 1219.81,1308.01 1304,1209.5C 1347.61,1163.17 1396.45,1123.67 1450.5,1091C 1476.84,1075.66 1504.5,1063.33 1533.5,1054C 1564.14,1046.67 1594.14,1037.34 1623.5,1026C 1633.65,1021.43 1643.32,1016.09 1652.5,1010C 1683.36,988.493 1711.86,963.993 1738,936.5C 1752.07,922.432 1765.41,907.765 1778,892.5C 1782.84,885.496 1787.17,878.163 1791,870.5C 1804.02,820.06 1814.35,769.06 1822,717.5C 1830.51,652.602 1840.51,587.935 1852,523.5C 1855.34,503.127 1861.01,483.461 1869,464.5C 1878.35,451.143 1889.18,438.977 1901.5,428C 1918.91,411.917 1936.91,396.584 1955.5,382C 1974.19,370.318 1993.52,359.652 2013.5,350C 2028.02,345.858 2042.69,343.358 2057.5,342.5 Z M 1575.5,2220.5 C 1576.84,2241.87 1581.68,2262.54 1590,2282.5C 1600.81,2305.45 1612.14,2328.11 1624,2350.5C 1638.59,2376.01 1652.92,2401.67 1667,2427.5C 1671.11,2438.93 1674.44,2450.6 1677,2462.5C 1681.33,2477.5 1689.66,2489.84 1702,2499.5C 1704.17,2502.35 1705.67,2505.51 1706.5,2509C 1706.41,2510.11 1706.08,2511.11 1705.5,2512C 1701.73,2514.22 1697.73,2515.89 1693.5,2517C 1679.28,2519.6 1664.95,2521.27 1650.5,2522C 1639.16,2523.27 1628.16,2525.93 1617.5,2530C 1604.51,2536.49 1591.84,2543.49 1579.5,2551C 1562.21,2553.01 1546.21,2549.34 1531.5,2540C 1518.45,2532.28 1507.28,2522.45 1498,2510.5C 1495.62,2488.56 1494.96,2466.56 1496,2444.5C 1499.61,2408.3 1504.61,2372.3 1511,2336.5C 1514.41,2317.94 1520.41,2300.27 1529,2283.5C 1544.72,2262.62 1560.22,2241.62 1575.5,2220.5 Z"/></g>
<g><path style="opacity:1" fill="#000000" d="M 2060.5,356.5 C 2081.94,355.855 2103.28,357.021 2124.5,360C 2156,366.846 2179.5,384.346 2195,412.5C 2204.81,436.282 2214.81,459.949 2225,483.5C 2240.54,496.712 2256.38,509.546 2272.5,522C 2296.13,544.084 2310.13,571.251 2314.5,603.5C 2307.1,603.277 2299.77,602.444 2292.5,601C 2279.54,597.842 2266.54,594.842 2253.5,592C 2236.69,587.814 2223.86,592.981 2215,607.5C 2203.8,626.757 2196.8,647.423 2194,669.5C 2194.25,702.739 2199.91,735.072 2211,766.5C 2237.29,832.079 2264.96,897.079 2294,961.5C 2321.75,1026.75 2346.75,1093.08 2369,1160.5C 2383.13,1205.02 2393.8,1250.35 2401,1296.5C 2406.9,1337.51 2406.9,1378.51 2401,1419.5C 2396.75,1445.24 2389.08,1469.91 2378,1493.5C 2353.94,1543.32 2325.61,1590.32 2293,1634.5C 2249.72,1691.45 2206.05,1748.12 2162,1804.5C 2115.1,1856.41 2066.43,1906.74 2016,1955.5C 1990.24,1988.59 1961.07,2018.43 1928.5,2045C 1913.84,2055.67 1898.51,2065.33 1882.5,2074C 1876.07,2078.42 1870.24,2083.59 1865,2089.5C 1826.04,2140.09 1789.04,2192.09 1754,2245.5C 1738.39,2270.28 1732.05,2297.28 1735,2326.5C 1735.2,2334.93 1736.2,2343.27 1738,2351.5C 1758.63,2409.43 1784.63,2464.76 1816,2517.5C 1821.06,2525.9 1826.9,2533.73 1833.5,2541C 1839.65,2545.91 1846.65,2548.91 1854.5,2550C 1889.51,2551.74 1924.51,2551.41 1959.5,2549C 1971.53,2545.93 1983.53,2542.77 1995.5,2539.5C 2006.03,2542.47 2016.7,2544.8 2027.5,2546.5C 2037.85,2544.99 2047.85,2542.16 2057.5,2538C 2072.64,2535.2 2086.31,2538.54 2098.5,2548C 2114.71,2562.08 2124.71,2579.74 2128.5,2601C 2128.17,2603.17 2127.83,2605.33 2127.5,2607.5C 2126.83,2607.83 2126.17,2608.17 2125.5,2608.5C 2114.54,2604.9 2103.54,2601.4 2092.5,2598C 2075.84,2594.73 2059.18,2594.73 2042.5,2598C 2013.98,2607.73 1984.64,2611.9 1954.5,2610.5C 1942.15,2610.44 1929.81,2609.94 1917.5,2609C 1898.59,2606.32 1879.75,2603.15 1861,2599.5C 1854.54,2603.27 1848.04,2607.11 1841.5,2611C 1830.25,2613.95 1818.92,2614.28 1807.5,2612C 1790.84,2608.77 1774.17,2605.6 1757.5,2602.5C 1745.08,2604.52 1732.74,2607.02 1720.5,2610C 1697.11,2611.78 1673.78,2614.12 1650.5,2617C 1635.91,2619.09 1622.24,2623.75 1609.5,2631C 1605.83,2631.67 1602.17,2631.67 1598.5,2631C 1581.12,2625.65 1563.45,2624.32 1545.5,2627C 1536.45,2629.46 1527.45,2632.13 1518.5,2635C 1509.46,2635.72 1500.46,2635.38 1491.5,2634C 1476.98,2631.45 1462.65,2628.12 1448.5,2624C 1438.17,2622.04 1427.84,2622.04 1417.5,2624C 1404.94,2627.18 1392.27,2629.85 1379.5,2632C 1347.49,2632.75 1315.49,2632.42 1283.5,2631C 1273.01,2630.76 1262.68,2629.43 1252.5,2627C 1251.98,2626.44 1251.64,2625.77 1251.5,2625C 1255.11,2619.06 1259.78,2614.06 1265.5,2610C 1281.69,2599.07 1298.69,2589.4 1316.5,2581C 1335.16,2573.95 1354.49,2570.62 1374.5,2571C 1384.34,2568.42 1393,2563.75 1400.5,2557C 1408.78,2549.72 1415.95,2541.56 1422,2532.5C 1427.59,2520.37 1427.92,2508.04 1423,2495.5C 1402.43,2447.78 1385.43,2398.78 1372,2348.5C 1368.8,2334.65 1366.47,2320.65 1365,2306.5C 1363.55,2274.43 1361.22,2242.43 1358,2210.5C 1357.47,2204.17 1355.8,2198.17 1353,2192.5C 1351.09,2191.07 1348.93,2190.4 1346.5,2190.5C 1341.56,2191.13 1336.9,2192.63 1332.5,2195C 1295.88,2213.64 1258.55,2230.64 1220.5,2246C 1193.14,2256.69 1165.8,2267.35 1138.5,2278C 1132.44,2283.4 1127.94,2289.9 1125,2297.5C 1103.96,2355.3 1080.96,2412.3 1056,2468.5C 1047.02,2487.8 1037.02,2506.47 1026,2524.5C 1020.03,2532.81 1012.53,2539.31 1003.5,2544C 994.209,2546.84 985.543,2545.5 977.5,2540C 969.5,2533.33 962.167,2526 955.5,2518C 951.013,2515.96 946.68,2516.29 942.5,2519C 932.5,2525.67 922.5,2532.33 912.5,2539C 889.837,2544.26 875.337,2535.76 869,2513.5C 865.017,2509.79 860.85,2509.62 856.5,2513C 846.035,2520.79 835.035,2527.79 823.5,2534C 817.022,2536.37 810.355,2537.03 803.5,2536C 799.836,2535 796.669,2533.16 794,2530.5C 790.582,2524.51 787.915,2518.17 786,2511.5C 781.774,2507.75 777.274,2507.58 772.5,2511C 762.383,2519.11 751.716,2526.45 740.5,2533C 729.159,2538 717.325,2541.17 705,2542.5C 697.128,2542.54 690.128,2540.21 684,2535.5C 682.25,2532.75 681.25,2529.75 681,2526.5C 680.74,2520.45 680.073,2514.45 679,2508.5C 668.1,2517.03 656.933,2525.2 645.5,2533C 631.862,2541.55 617.028,2546.05 601,2546.5C 588.548,2544.86 576.048,2544.36 563.5,2545C 553.279,2546.93 543.112,2549.1 533,2551.5C 510.518,2549.54 505.518,2539.2 518,2520.5C 535.09,2497.32 552.424,2474.32 570,2451.5C 594.278,2416.22 618.944,2381.22 644,2346.5C 665.211,2319.62 687.544,2293.62 711,2268.5C 716.667,2261.5 722.333,2254.5 728,2247.5C 743.939,2221.9 760.273,2196.56 777,2171.5C 779.5,2166.5 782,2161.5 784.5,2156.5C 784.167,2156.17 783.833,2155.83 783.5,2155.5C 743.087,2167.36 702.754,2179.53 662.5,2192C 654.301,2195.18 645.967,2195.85 637.5,2194C 636.034,2192.45 635.034,2190.61 634.5,2188.5C 644.765,2161.64 656.931,2135.64 671,2110.5C 701.089,2058.64 733.422,2008.31 768,1959.5C 777.626,1947.54 787.626,1935.87 798,1924.5C 827.667,1893.5 857.333,1862.5 887,1831.5C 908.573,1805.35 929.906,1779.02 951,1752.5C 960.012,1739.15 968.012,1725.15 975,1710.5C 987.64,1678.25 1001.64,1646.58 1017,1615.5C 1038.5,1578.48 1061.5,1542.48 1086,1507.5C 1158.63,1408.95 1234.63,1312.95 1314,1219.5C 1363.19,1166.46 1419.69,1123.13 1483.5,1089.5C 1494.93,1083.78 1506.6,1078.62 1518.5,1074C 1550.32,1064.8 1581.98,1055.13 1613.5,1045C 1626.96,1039.96 1639.96,1033.96 1652.5,1027C 1673.4,1012.1 1693.74,996.432 1713.5,980C 1737.73,956.442 1761.23,932.275 1784,907.5C 1799.86,888.765 1809.53,867.099 1813,842.5C 1828.91,767.045 1841.58,691.045 1851,614.5C 1856.96,571.764 1864.96,529.431 1875,487.5C 1877.84,477.494 1882.5,468.494 1889,460.5C 1913.57,435.336 1939.74,412.169 1967.5,391C 1984.23,380.635 2001.56,371.301 2019.5,363C 2033.09,359.478 2046.76,357.311 2060.5,356.5 Z M 1575.5,2220.5 C 1560.22,2241.62 1544.72,2262.62 1529,2283.5C 1520.41,2300.27 1514.41,2317.94 1511,2336.5C 1504.61,2372.3 1499.61,2408.3 1496,2444.5C 1494.96,2466.56 1495.62,2488.56 1498,2510.5C 1507.28,2522.45 1518.45,2532.28 1531.5,2540C 1546.21,2549.34 1562.21,2553.01 1579.5,2551C 1591.84,2543.49 1604.51,2536.49 1617.5,2530C 1628.16,2525.93 1639.16,2523.27 1650.5,2522C 1664.95,2521.27 1679.28,2519.6 1693.5,2517C 1697.73,2515.89 1701.73,2514.22 1705.5,2512C 1706.08,2511.11 1706.41,2510.11 1706.5,2509C 1705.67,2505.51 1704.17,2502.35 1702,2499.5C 1689.66,2489.84 1681.33,2477.5 1677,2462.5C 1674.44,2450.6 1671.11,2438.93 1667,2427.5C 1652.92,2401.67 1638.59,2376.01 1624,2350.5C 1612.14,2328.11 1600.81,2305.45 1590,2282.5C 1581.68,2262.54 1576.84,2241.87 1575.5,2220.5 Z"/></g>
<g><path style="opacity:0.961" fill="#0e0a0c" d="M 1584.5,2187.5 C 1589,2187.83 1591.83,2190.16 1593,2194.5C 1588.9,2219.28 1590.9,2243.62 1599,2267.5C 1623.09,2319.68 1649.76,2370.35 1679,2419.5C 1683.87,2431.46 1687.54,2443.79 1690,2456.5C 1691.55,2462.49 1693.89,2468.16 1697,2473.5C 1704.04,2480.87 1710.71,2488.54 1717,2496.5C 1724.35,2512.63 1719.52,2523.47 1702.5,2529C 1696.62,2530.84 1690.62,2532.18 1684.5,2533C 1668.06,2534.18 1651.73,2536.18 1635.5,2539C 1629.66,2540.54 1624,2542.54 1618.5,2545C 1608,2550.75 1597.67,2556.75 1587.5,2563C 1564.14,2568.38 1542.47,2564.38 1522.5,2551C 1507.74,2541.91 1495.24,2530.41 1485,2516.5C 1483.15,2508.61 1482.15,2500.61 1482,2492.5C 1481.33,2475.83 1481.33,2459.17 1482,2442.5C 1485.49,2411.43 1489.49,2380.43 1494,2349.5C 1497.9,2325.21 1504.9,2301.88 1515,2279.5C 1528.36,2259.45 1542.69,2240.12 1558,2221.5C 1565,2211.5 1572,2201.5 1579,2191.5C 1580.5,2189.53 1582.33,2188.2 1584.5,2187.5 Z M 1575.5,2220.5 C 1560.22,2241.62 1544.72,2262.62 1529,2283.5C 1520.41,2300.27 1514.41,2317.94 1511,2336.5C 1504.61,2372.3 1499.61,2408.3 1496,2444.5C 1494.96,2466.56 1495.62,2488.56 1498,2510.5C 1507.28,2522.45 1518.45,2532.28 1531.5,2540C 1546.21,2549.34 1562.21,2553.01 1579.5,2551C 1591.84,2543.49 1604.51,2536.49 1617.5,2530C 1628.16,2525.93 1639.16,2523.27 1650.5,2522C 1664.95,2521.27 1679.28,2519.6 1693.5,2517C 1697.73,2515.89 1701.73,2514.22 1705.5,2512C 1706.08,2511.11 1706.41,2510.11 1706.5,2509C 1705.67,2505.51 1704.17,2502.35 1702,2499.5C 1689.66,2489.84 1681.33,2477.5 1677,2462.5C 1674.44,2450.6 1671.11,2438.93 1667,2427.5C 1652.92,2401.67 1638.59,2376.01 1624,2350.5C 1612.14,2328.11 1600.81,2305.45 1590,2282.5C 1581.68,2262.54 1576.84,2241.87 1575.5,2220.5 Z"/></g>
<g><path style="opacity:0.805" fill="#000000" d="M 2208.5,2665.5 C 2214.99,2663.83 2217.82,2666.17 2217,2672.5C 2212.28,2675.61 2208.78,2674.61 2206.5,2669.5C 2206.75,2667.93 2207.42,2666.59 2208.5,2665.5 Z"/></g>
</svg>
