<?xml version="1.0" encoding="UTF-8"?>
<!DOCTYPE svg PUBLIC "-//W3C//DTD SVG 1.1//EN" "http://www.w3.org/Graphics/SVG/1.1/DTD/svg11.dtd">
<svg xmlns="http://www.w3.org/2000/svg" version="1.1" width="2900px" height="2900px" style="shape-rendering:geometricPrecision; text-rendering:geometricPrecision; image-rendering:optimizeQuality; fill-rule:evenodd; clip-rule:evenodd" xmlns:xlink="http://www.w3.org/1999/xlink">
<g><path style="opacity:0.75" fill="#000000" d="M 2676.5,673.5 C 2678.34,673.639 2678.67,674.306 2677.5,675.5C 2676.7,675.043 2676.37,674.376 2676.5,673.5 Z"/></g>
<g><path style="opacity:0.997" fill="#000000" d="M 385.5,772.5 C 386.497,772.47 387.164,772.97 387.5,774C 389,778.5 390.5,783 392,787.5C 394.391,815.126 400.724,841.792 411,867.5C 412.247,870.329 413.747,872.995 415.5,875.5C 436.312,834.761 468.645,820.928 512.5,834C 546.928,851.025 560.428,878.525 553,916.5C 542.286,947.532 520.453,963.699 487.5,965C 500.471,976.657 515.471,980.99 532.5,978C 587.801,941.331 648.135,916.331 713.5,903C 793.391,887.034 874.057,880.701 955.5,884C 1007.64,885.677 1059.64,889.344 1111.5,895C 1177.26,902.595 1242.93,910.928 1308.5,920C 1368.32,926.854 1428.32,931.188 1488.5,933C 1578.84,935 1669.18,937.334 1759.5,940C 1924.75,947.131 2087.75,970.131 2248.5,1009C 2270.65,1014.83 2292.48,1021.66 2314,1029.5C 2328.04,1009.46 2345.87,993.631 2367.5,982C 2391.32,970.256 2414.99,958.256 2438.5,946C 2449.35,939.145 2459.18,930.978 2468,921.5C 2472.45,914.718 2477.28,908.218 2482.5,902C 2492.99,895.429 2500.49,897.929 2505,909.5C 2506.96,914.677 2508.29,920.01 2509,925.5C 2510.63,943.493 2510.96,961.493 2510,979.5C 2513.12,974.046 2517.29,969.546 2522.5,966C 2531.97,962.765 2538.47,965.932 2542,975.5C 2547.13,995.517 2548.8,1015.85 2547,1036.5C 2546.61,1042.86 2545.94,1049.2 2545,1055.5C 2536.81,1092.65 2529.47,1129.99 2523,1167.5C 2519.82,1179.88 2516.82,1192.22 2514,1204.5C 2555.92,1258.16 2595.75,1313.33 2633.5,1370C 2649.82,1381.11 2667.82,1388.11 2687.5,1391C 2702.15,1393.43 2716.82,1395.76 2731.5,1398C 2736.44,1398.87 2740.94,1400.7 2745,1403.5C 2750.1,1411.81 2753.44,1420.81 2755,1430.5C 2760.17,1459.99 2754.84,1487.32 2739,1512.5C 2734.53,1517.97 2729.7,1523.13 2724.5,1528C 2715.67,1533.92 2706.67,1539.58 2697.5,1545C 2691.96,1555.21 2684.29,1563.55 2674.5,1570C 2642.13,1587.24 2607.79,1598.9 2571.5,1605C 2558.23,1607.43 2544.9,1609.43 2531.5,1611C 2479.84,1612.07 2428.17,1613.07 2376.5,1614C 2333.24,1615.49 2290.91,1622.49 2249.5,1635C 2228.39,1643.39 2207.39,1652.06 2186.5,1661C 2111.57,1685.69 2034.9,1702.52 1956.5,1711.5C 1947.06,1751 1933.56,1789 1916,1825.5C 1907.36,1859.77 1905.02,1894.44 1909,1929.5C 1923.17,1951.83 1936.84,1974.5 1950,1997.5C 1954.88,2006.59 1959.21,2015.93 1963,2025.5C 1966.84,2036.3 1964.01,2044.8 1954.5,2051C 1945.31,2054.21 1936.31,2057.88 1927.5,2062C 1894.39,2072.41 1864.72,2066.24 1838.5,2043.5C 1836.95,2036.97 1834.95,2030.64 1832.5,2024.5C 1831.71,2024.07 1830.87,2023.74 1830,2023.5C 1811.5,2028.75 1799.83,2022.08 1795,2003.5C 1793.97,1996.55 1793.47,1989.55 1793.5,1982.5C 1795.6,1952.14 1798.1,1921.81 1801,1891.5C 1801.67,1885.5 1801.67,1879.5 1801,1873.5C 1793.28,1902.32 1782.62,1929.99 1769,1956.5C 1758.57,1992.91 1755.57,2029.91 1760,2067.5C 1778.26,2095.13 1794.93,2123.8 1810,2153.5C 1812.86,2159.38 1814.69,2165.54 1815.5,2172C 1815.05,2178.13 1812.38,2183.13 1807.5,2187C 1795.46,2191.79 1783.46,2196.79 1771.5,2202C 1740.3,2208.83 1712.8,2201.66 1689,2180.5C 1687.7,2174.13 1685.87,2167.97 1683.5,2162C 1661.08,2167.2 1648.25,2158.37 1645,2135.5C 1644.83,2130.33 1644.67,2125.17 1644.5,2120C 1647.63,2082.53 1650.46,2045.03 1653,2007.5C 1654.36,1977.61 1652.36,1947.94 1647,1918.5C 1636.53,1872.84 1627.87,1826.84 1621,1780.5C 1615,1757.99 1607.5,1735.99 1598.5,1714.5C 1517.59,1725.96 1436.25,1734.46 1354.5,1740C 1269.33,1746.32 1185.67,1737.99 1103.5,1715C 1047.38,1697.52 994.879,1672.69 946,1640.5C 938.947,1663.05 933.947,1686.05 931,1709.5C 930.044,1740.01 928.877,1770.51 927.5,1801C 931.604,1833.65 940.771,1864.81 955,1894.5C 957.748,1899.67 960.748,1904.67 964,1909.5C 968.333,1912.5 972,1916.17 975,1920.5C 993.381,1949.25 1009.71,1979.25 1024,2010.5C 1028.02,2019.54 1031.19,2028.88 1033.5,2038.5C 1032.07,2047.1 1027.41,2053.26 1019.5,2057C 1008.67,2060.41 998.001,2064.41 987.5,2069C 956.733,2075.23 929.733,2067.89 906.5,2047C 904.982,2040.92 903.315,2034.92 901.5,2029C 898.944,2027.56 896.278,2027.56 893.5,2029C 882.991,2031.16 874.491,2028 868,2019.5C 864.997,2013.49 862.997,2007.16 862,2000.5C 860.448,1946.95 846.448,1896.95 820,1850.5C 804.251,1824 788.251,1797.67 772,1771.5C 765.396,1759.29 759.063,1746.96 753,1734.5C 750.535,1754.62 747.201,1774.62 743,1794.5C 737.017,1817.1 731.35,1839.77 726,1862.5C 724.972,1874.33 725.972,1886 729,1897.5C 735.384,1925.26 745.384,1951.59 759,1976.5C 767.509,1984.5 774.842,1993.5 781,2003.5C 800.799,2035.43 817.132,2069.1 830,2104.5C 831.921,2113.16 828.754,2118.99 820.5,2122C 812.299,2123.95 804.132,2123.79 796,2121.5C 766.924,2135.71 738.424,2134.54 710.5,2118C 706,2114.83 701.5,2111.67 697,2108.5C 696.005,2105.23 695.172,2101.9 694.5,2098.5C 676.618,2103.3 665.451,2096.64 661,2078.5C 659.417,2023.42 645.417,1971.76 619,1923.5C 603.251,1897 587.251,1870.67 571,1844.5C 557.905,1822.64 547.238,1799.64 539,1775.5C 534.516,1760.08 531.182,1744.41 529,1728.5C 523.984,1712.47 517.317,1697.13 509,1682.5C 489.242,1649.99 470.242,1616.99 452,1583.5C 404.314,1492.27 376.814,1395.27 369.5,1292.5C 366.741,1190.56 400.408,1103.06 470.5,1030C 431.301,1004.13 409.635,967.63 405.5,920.5C 406.139,915.324 406.806,910.158 407.5,905C 386.806,863 379.472,818.834 385.5,772.5 Z M 483.5,873.5 C 504.155,872.654 515.822,882.488 518.5,903C 515.514,922.485 504.18,933.318 484.5,935.5C 477.032,934.844 470.032,932.677 463.5,929C 458.462,913.553 459.962,898.72 468,884.5C 472.162,879.19 477.329,875.524 483.5,873.5 Z"/></g>
</svg>
