<?xml version="1.0" encoding="UTF-8"?>
<svg id="Layer_3" data-name="Layer 3" xmlns="http://www.w3.org/2000/svg" viewBox="0 0 2900 2900">
  <defs>
    <style>
      .cls-1 {
        stroke-width: 0px;
      }
    </style>
  </defs>
  <path class="cls-1" d="M2130.57,564.92c-4.8,3.68-4.16,10.23,2.88,28.77q5.12,13.27,1.44,12.31c-2.08-.64-13.75-2.88-26.06-4.96-21.26-3.68-23.5-4.48-44.76-15.19-12.31-6.23-24.3-11.35-26.54-11.19-6.39,0-12.63,5.75-12.63,11.51,0,15.19,11.67,38.37,27.66,54.83,4.8,4.96,7.99,9.27,7.19,9.75-2.72,1.76-1.12,3.84,5.44,7.19,3.84,1.92,15.67,8.47,26.38,14.55,20.3,11.51,30.53,15.19,44.76,15.99,9.27.48,9.43.96,4.16,11.67-7.67,15.19-13.75,23.18-20.94,27.34-9.75,5.6-9.59,5.44-6.23,7.35,2.72,1.44,2.4,2.08-2.72,8.47-6.39,7.67-6.87,8.79-3.36,8.79,5.75,0-1.12,20.46-9.11,27.18l-5.28,4.32,5.28,1.28c2.72.48,5.12,1.44,5.12,2.08,0,.48-11.83,25.58-26.38,55.95-23.02,47.96-28.93,58.83-46.2,84.89-23.66,35.65-33.57,45.88-61.71,63.62-18.22,11.51-21.74,13.11-39.49,17.74-17.42,4.48-22.06,5.12-40.76,5.12s-23.34-.64-36.93-4.48c-13.11-3.68-17.26-5.75-26.7-13.11-6.23-4.8-13.43-11.99-15.99-15.99-3.68-5.6-4.8-6.55-5.75-4.32-.48,1.44-1.92,2.72-3.04,2.72-3.2,0-14.39-12.95-20.94-24.62-3.36-5.75-6.71-10.55-7.51-10.55s-1.12,2.56-.8,5.6c.8,6.55.16,6.71-8.79,2.24-11.35-5.91-30.21-21.58-41.88-35.01-12.15-14.07-31.97-45.08-43.48-67.94-7.99-15.83-15.35-27.18-20.46-31.65-1.76-1.6-7.51-4.96-12.79-7.83-13.11-6.71-32.13-17.58-50.84-28.93-26.38-15.99-43.48-35.97-57.39-66.66l-4.64-10.39,4.8,4.64c13.91,13.27-4.48-15.67-19.82-31.33-15.99-16.31-28.77-25.1-47.16-32.29-17.42-6.87-33.25-16.15-63.94-37.09-33.73-23.02-53.87-31.65-85.36-36.77-18.86-3.04-45.72-2.08-42.68,1.6,1.44,1.6-2.56,2.24-18.7,3.04-21.26,1.12-39.8,4-54.67,8.31-11.19,3.36-12.47,4.8-7.35,7.51,4,2.08,3.84,2.24-10.71,7.51-23.02,8.47-61.07,26.54-78.65,37.41-22.38,13.75-39.01,30.53-51.63,52.59-6.39,11.19-11.51,18.06-14.71,19.82-6.07,3.68-6.07,5.44,0,5.44,4.64,0,4.8.16,2.72,3.52-1.28,2.08-4.32,7.19-6.71,11.51-4.16,7.51-4.32,7.83-.96,6.87,1.76-.48,3.36-.48,3.36,0,0,3.2-14.23,36.13-17.9,41.24-12.47,17.26-33.73,39.49-52.43,54.51-50.52,40.76-68.9,52.11-113.5,69.54-53.07,20.78-70.5,29.25-90.32,43.8-17.74,13.11-35.33,30.85-49.08,49.88-6.23,8.47-30.69,54.99-30.85,58.35,0,.64-4.48,7.03-9.75,14.39-16.15,21.74-29.25,42.52-38.21,60.43-16.79,33.89-34.69,88.56-42.2,129.49-2.72,14.55-7.03,36.77-9.59,49.56s-6.23,33.57-8.15,46.36c-4.96,33.09-10.55,55.79-17.9,71.46-3.36,7.51-5.91,13.91-5.6,14.39.48.32,3.36-1.6,6.71-4.48,5.6-4.96,5.75-4.96,4.8-1.28-11.51,48.76-12.31,53.55-13.11,78.97-.8,28.14-.8,28.3,10.87,72.58,4.8,18.22,7.19,25.26,8.15,23.18,1.76-4.64,10.87-55.79,10.87-61.71,0-8.95,2.4-10.07,5.6-2.88,1.6,3.52,3.36,6.39,4.16,6.39,1.76,0,3.52-29.57,2.56-42.2-.64-6.23-2.72-17.26-4.96-24.3-6.87-23.02-7.99-50.52-3.36-76.57,3.52-19.98,26.06-121.33,33.57-150.91,11.35-45.24,26.38-86.16,38.21-103.43l4.16-6.23v11.51c0,7.19-3.04,27.82-8.15,54.35-4.48,23.66-9.91,52.59-12.15,64.42-3.68,19.34-4.16,25.58-4.16,60.75,0,26.7.96,47.16,2.88,64.42,4.48,41.08,2.08,57.07-18.7,125.81-12.31,40.76-21.26,62.66-33.89,83.61-14.87,24.14-24.94,35.49-42.52,47.32-21.42,14.55-23.18,19.82-18.38,55.31,2.08,15.51,11.83,128.21,16.95,196.79,2.08,29.09,0,63.78-4.8,77.85-1.76,4.96-4,17.26-4.8,27.34-2.08,20.94-.32,32.61,5.44,39.65,3.52,4.16,6.23,15.99,10.07,43.96,1.76,12.31-1.76,27.98-8.95,40.76-2.56,4.64-5.6,12.47-6.87,17.26-1.12,4.8-2.56,9.43-3.2,10.23-3.68,4.32,8.63,20.94,19.34,26.54,6.71,3.36,57.87,8.79,70.82,7.51,33.41-3.36,71.46-10.87,74.81-14.87,3.04-3.68.64-14.55-6.07-27.66-4-7.99-11.03-17.42-21.26-28.61-42.52-46.84-40.76-44.6-45.24-58.51-3.36-9.91-4.16-15.67-4-24.94.16-7.67-2.24-27.98-6.55-55.95-8.63-55.31-10.55-89.52-7.19-131.08,2.88-35.17,7.19-62.34,13.27-81.69,5.6-18.06,30.21-63.3,41.72-76.57,4.16-4.8,18.86-23.82,32.61-42.04,27.82-36.93,29.57-40.12,47.16-87.44,7.35-19.82,13.27-33.25,16.15-36.77l4.64-5.6.16,20.78c0,56.43-10.71,129.49-22.86,153.62-7.35,14.71-11.19,26.86-11.03,34.85.16,8.31,7.35,21.58,32.45,60.11,19.18,29.25,43.48,77.85,60.59,120.69,10.71,26.7,20.62,66.82,22.54,90.32,2.24,29.41,6.71,41.88,17.42,48.92,3.52,2.4,6.55,5.44,7.03,6.87,4.16,15.51,4.48,19.66,2.08,28.61-1.44,4.96-3.04,14.55-3.68,21.26-1.44,15.99,2.24,25.1,12.15,30.21,6.07,3.04,10.71,3.52,57.07,5.12,54.99,1.76,56.11,1.6,76.41-7.83,4.32-1.92,10.39-3.68,13.11-3.68,7.03,0,11.67-4.8,11.67-11.83,0-5.91-9.59-25.9-16.79-35.49-5.6-7.35-36.45-30.85-54.83-41.88-23.82-14.07-26.86-17.74-44.92-54.99-14.71-30.21-16.95-36.13-31.97-85.36-13.91-45.4-17.26-58.83-24.3-95.92-15.03-80.09-13.91-113.02,5.28-171.53,2.72-8.31,8.31-20.78,12.31-27.98,14.07-24.14,17.58-32.13,27.02-59.31,11.99-34.53,19.02-49.24,35.49-75.13,21.58-33.73,40.92-66.98,44.76-77.05,10.39-27.18,19.5-57.23,21.58-70.82,1.28-8.31,3.2-29.57,4.16-47.16,1.12-17.58,2.08-32.13,2.24-32.45,1.28-1.76,21.9,10.07,84.73,48.44,40.28,24.62,97.99,54.51,123.73,64.1,29.09,11.03,63.14,18.06,103.27,21.42,17.1,1.44,46.68,6.55,62.34,10.71,22.06,5.91,56.43,23.18,67.14,33.57,1.92,1.76,5.91,11.83,9.59,23.5l6.23,20.46-3.04,42.68c-2.08,28.3-2.72,52.43-2.24,72.1,1.28,58.03.8,76.09-3.2,98.31-5.44,30.05-4.32,52.43,5.12,99.11,7.67,37.57,7.99,41.08,11.83,150.27,1.6,45.24-2.88,93.36-10.87,115.1-2.24,6.39-3.52,13.43-3.52,20.78,0,10.55.48,12.15,8.95,28.61,10.39,19.98,11.67,28.45,5.91,41.72-7.35,16.95-9.75,27.18-9.75,41.24-.16,13.27,0,14.39,4.16,18.7,2.72,2.72,9.43,6.23,18.06,9.27,16.63,5.75,47.8,9.11,77.05,7.99,17.1-.64,19.02-.96,27.18-5.6,5.28-3.04,12.31-5.6,17.58-6.23,18.54-2.24,21.9-7.67,15.83-25.9-5.75-17.42-17.26-31.97-35.33-44.6-4-2.72-11.67-10.23-16.95-16.47-8.47-10.39-9.91-13.27-13.59-27.02-2.4-8.47-4.64-19.98-5.12-25.74-2.24-24.94-5.75-100.07-7.35-159.06-1.76-58.99-1.76-65.38.8-82.33,2.72-16.63,13.27-65.7,19.02-87.92,1.92-7.19,2.24-20.62,1.6-75.13-.8-60.43-.48-69.06,2.56-96.71,4.32-38.37,10.87-85.04,13.43-97.51,2.4-10.87,2.88-10.07,5.91,11.19,1.12,7.03,3.84,21.42,6.39,31.97,2.4,10.55,4.96,24.62,5.6,31.17,1.76,21.42,4,37.25,7.19,51.95,5.12,23.66,9.27,59.15,10.23,86.32,1.6,43.64,4.16,58.67,16.31,90.8,5.44,14.71,8.95,28.93,15.67,63.94,10.55,54.03,15.67,101.67,15.03,140.52l-.48,25.1,9.91,19.18c10.39,19.98,16.47,37.89,16.47,48.92,0,8.79-4.8,23.82-11.51,36.13-12.31,22.06-8.79,32.45,13.11,39.49,14.39,4.64,43.48,6.07,78.17,3.52,30.37-2.08,33.41-2.72,40.76-9.27,2.72-2.4,8.15-5.75,12.15-7.51,4-1.76,7.67-3.84,8.31-4.8,2.4-3.36,1.12-10.07-4.16-20.78-6.71-13.91-17.26-25.74-38.69-43.32-20.14-16.63-24.94-22.06-34.53-39.49-17.58-32.13-26.86-78.65-38.05-188.95-4.64-46.68-4.32-65.54,1.92-95.44,4.32-21.58,4.96-27.66,5.12-50.84,0-19.18-.96-32.45-3.36-48.76-3.52-22.54-5.75-65.54-7.83-143.87-.64-29.57-.32-43.16,1.6-58.83,2.72-23.18,5.12-28.93,14.23-34.05,11.51-6.39,25.26-19.18,44.44-41.08,30.37-34.53,35.17-38.37,54.19-42.52,4.8-1.12,25.74-6.07,46.36-10.87,34.37-8.15,40.12-10.07,67.46-22.22,38.85-17.1,67.78-34.37,96.08-57.23,34.21-27.66,66.5-64.58,100.07-115.1,8.47-12.63,10.71-15.03,11.35-12.47.8,3.2,1.28,3.04,9.11-2.88,4.48-3.52,8.95-6.39,9.59-6.39.8,0,3.36,3.84,5.6,8.31l4.32,8.47v-7.51c.32-17.58,4.96-31.65,15.99-47.64,15.67-22.7,18.38-25.74,21.9-24.94,2.88.8,4-.16,6.23-5.91l2.88-6.71,2.88,6.39c1.76,4,3.04,5.44,3.52,4,8.95-27.98,9.91-30.05,22.86-48.92,7.35-10.71,13.91-20.78,14.39-22.38.64-1.76,5.91-9.91,11.83-18.22,5.91-8.31,13.43-21.42,16.79-29.09,5.44-12.63,6.23-13.91,9.59-13.11s3.68.16,5.44-10.07c1.92-11.19,6.23-26.06,7.51-26.06.48,0,2.4,1.92,4.32,4.16l3.68,4.16,2.88-12.47c1.6-7.03,4.32-15.19,5.75-18.22,7.51-14.55,34.37-31.65,70.34-44.92,34.53-12.63,45.08-14.39,69.7-10.87,23.98,3.36,40.12-2.88,59.31-22.54,5.91-6.23,13.91-12.63,17.74-14.39,11.67-5.28,12.47-17.74,1.44-24.94-3.68-2.56-6.39-6.71-9.91-15.19-4.16-10.07-6.87-13.75-20.78-27.34-26.22-25.9-38.37-32.29-70.34-37.09-22.06-3.2-72.26-7.35-90.32-7.35-17.9-.16-23.66-1.6-34.69-9.11-15.03-10.23-50.99-23.34-71.62-25.9-6.71-.8-7.83-1.6-7.51-4,.48-2.72-.16-2.88-6.39-1.92-14.71,2.24-28.45,3.04-28.45,1.6,0-.8-.64-2.4-1.44-3.68-1.12-1.76-2.4-1.6-6.55,1.44-2.72,1.92-7.99,4.32-11.67,5.12s-7.83,1.76-9.43,2.24c-1.92.48-2.88-.48-3.68-3.68-2.56-11.67-13.43-21.1-35.17-30.37-9.91-4.32-18.06-4.48-23.02-.64Z"/>
</svg>