<?xml version="1.0" encoding="UTF-8"?>
<!DOCTYPE svg PUBLIC "-//W3C//DTD SVG 1.1//EN" "http://www.w3.org/Graphics/SVG/1.1/DTD/svg11.dtd">
<svg xmlns="http://www.w3.org/2000/svg" version="1.1" width="2900px" height="2900px" style="shape-rendering:geometricPrecision; text-rendering:geometricPrecision; image-rendering:optimizeQuality; fill-rule:evenodd; clip-rule:evenodd" xmlns:xlink="http://www.w3.org/1999/xlink">
<g><path style="opacity:0.996" fill="#000000" d="M 1174.5,416.5 C 1202.34,421.21 1229.34,428.877 1255.5,439.5C 1257.1,438.515 1258.76,438.349 1260.5,439C 1265.51,442.507 1270.84,445.507 1276.5,448C 1299.76,456.53 1323.09,464.864 1346.5,473C 1409.85,491.193 1473.85,494.193 1538.5,482C 1586.36,473.773 1632.03,480.44 1675.5,502C 1703.95,513.129 1727.11,530.963 1745,555.5C 1755.17,571.844 1765.84,587.844 1777,603.5C 1807.45,655.964 1822.28,712.63 1821.5,773.5C 1821.4,783.188 1820.9,792.854 1820,802.5C 1816.64,827.642 1812.97,852.642 1809,877.5C 1804.32,923.109 1813.32,965.775 1836,1005.5C 1842.08,1015.34 1848.42,1025 1855,1034.5C 1860.12,1045.86 1864.45,1057.52 1868,1069.5C 1876.97,1080.77 1883.3,1093.44 1887,1107.5C 1904.57,1165.56 1915.23,1224.9 1919,1285.5C 1933.55,1332.48 1946.88,1379.82 1959,1427.5C 2000.05,1605.87 2028.72,1786.2 2045,1968.5C 2047.79,1999.64 2046.79,2030.64 2042,2061.5C 2036.69,2084.07 2022.53,2094.23 1999.5,2092C 1987.7,2089.37 1979.37,2082.53 1974.5,2071.5C 1966.04,2063.88 1958.88,2055.21 1953,2045.5C 1944.91,2030.31 1935.58,2015.98 1925,2002.5C 1911.63,1976.09 1899.63,1949.09 1889,1921.5C 1887,1917.5 1885,1913.5 1883,1909.5C 1877.05,1904.6 1874.05,1898.27 1874,1890.5C 1871.53,1883.42 1868.86,1876.42 1866,1869.5C 1868.59,1895.44 1870.93,1921.44 1873,1947.5C 1876.32,2000.5 1876.32,2053.5 1873,2106.5C 1869.89,2145.7 1863.56,2184.37 1854,2222.5C 1837.15,2284.04 1818.49,2345.04 1798,2405.5C 1791.89,2421.73 1785.22,2437.73 1778,2453.5C 1777.9,2490.52 1777.23,2527.52 1776,2564.5C 1772.28,2572.09 1767.45,2578.92 1761.5,2585C 1758.49,2584.84 1756.32,2586.01 1755,2588.5C 1747.21,2611.89 1742.88,2635.89 1742,2660.5C 1740.7,2668.06 1738.04,2675.06 1734,2681.5C 1732.39,2698.62 1727.39,2714.62 1719,2729.5C 1710.17,2743 1701.33,2756.5 1692.5,2770C 1687.03,2772.64 1682.53,2771.47 1679,2766.5C 1678.24,2762.23 1677.74,2757.9 1677.5,2753.5C 1666.91,2748.03 1660.41,2739.36 1658,2727.5C 1650.28,2735.11 1641.11,2740.28 1630.5,2743C 1612.49,2746.5 1594.49,2750 1576.5,2753.5C 1570.4,2753.24 1567.07,2750.07 1566.5,2744C 1568.67,2734.83 1573.01,2726.83 1579.5,2720C 1570.84,2719.28 1562.51,2720.61 1554.5,2724C 1545.15,2728.67 1536.48,2734.34 1528.5,2741C 1520.42,2745.08 1515.09,2742.75 1512.5,2734C 1515.15,2727.35 1518.65,2721.18 1523,2715.5C 1534.04,2701.45 1547.21,2689.95 1562.5,2681C 1579.5,2673.16 1596.17,2664.83 1612.5,2656C 1615.09,2648.39 1616.42,2640.55 1616.5,2632.5C 1611.46,2607.19 1613.63,2582.53 1623,2558.5C 1628.72,2545.72 1633.89,2532.72 1638.5,2519.5C 1634.85,2513.21 1632.02,2506.54 1630,2499.5C 1626.37,2512.71 1621.37,2525.38 1615,2537.5C 1606.18,2549.66 1595.68,2551.5 1583.5,2543C 1575.81,2535.8 1569.98,2527.3 1566,2517.5C 1558.39,2501.29 1551.06,2484.95 1544,2468.5C 1530.14,2433.25 1516.47,2397.91 1503,2362.5C 1491.44,2380.06 1479.11,2397.06 1466,2413.5C 1464.72,2415.72 1463.72,2418.05 1463,2420.5C 1461.16,2429.54 1459.16,2438.54 1457,2447.5C 1455.7,2454.13 1455.36,2460.79 1456,2467.5C 1460.9,2477.4 1466.23,2487.07 1472,2496.5C 1475.03,2510.12 1475.03,2523.79 1472,2537.5C 1470.44,2543.51 1468.11,2549.18 1465,2554.5C 1463.71,2561.48 1461.88,2568.31 1459.5,2575C 1461.13,2580.89 1462.96,2586.73 1465,2592.5C 1479.55,2609.21 1480.21,2626.54 1467,2644.5C 1461.35,2651.24 1454.18,2655.24 1445.5,2656.5C 1445.42,2657.93 1445.75,2659.26 1446.5,2660.5C 1439.16,2664.33 1432.82,2669.5 1427.5,2676C 1422.68,2679.91 1417.68,2683.58 1412.5,2687C 1393.27,2692.97 1373.94,2698.64 1354.5,2704C 1345.34,2709.08 1336.34,2714.41 1327.5,2720C 1319.57,2721.29 1314.41,2718.12 1312,2710.5C 1311.6,2705.23 1311.43,2700.23 1311.5,2695.5C 1298.05,2698.28 1285.05,2702.45 1272.5,2708C 1268.11,2712.39 1263.78,2716.72 1259.5,2721C 1253.31,2722.65 1249.14,2720.49 1247,2714.5C 1251.72,2688.04 1260.72,2663.04 1274,2639.5C 1278.26,2631.97 1283.26,2624.97 1289,2618.5C 1301,2607.17 1313,2595.83 1325,2584.5C 1325.33,2582.83 1325.67,2581.17 1326,2579.5C 1326.21,2556.48 1325.54,2533.48 1324,2510.5C 1319.6,2497.8 1315.1,2485.13 1310.5,2472.5C 1316.21,2427.64 1317.71,2382.64 1315,2337.5C 1311.28,2311.12 1307.28,2284.79 1303,2258.5C 1296.18,2230.06 1290.51,2201.4 1286,2172.5C 1279.99,2117.43 1274.33,2062.43 1269,2007.5C 1268.33,1998.83 1268.33,1990.17 1269,1981.5C 1272.47,1968.3 1275.3,1954.97 1277.5,1941.5C 1275.72,1937.69 1274.38,1933.69 1273.5,1929.5C 1275.04,1925.28 1277.04,1921.28 1279.5,1917.5C 1276.74,1912.98 1276.9,1908.65 1280,1904.5C 1280.67,1896.17 1280.67,1887.83 1280,1879.5C 1274.61,1846.9 1269.61,1814.23 1265,1781.5C 1260.98,1798.91 1256.65,1816.25 1252,1833.5C 1252.42,1879.5 1247.08,1924.84 1236,1969.5C 1229.98,1991.6 1223.64,2013.6 1217,2035.5C 1212.61,2047.62 1204.44,2051.45 1192.5,2047C 1185.15,2038.48 1180.32,2028.64 1178,2017.5C 1174.53,2005.28 1171.53,1992.95 1169,1980.5C 1163.88,1937.05 1157.88,1893.71 1151,1850.5C 1151.13,1832.14 1151.97,1813.81 1153.5,1795.5C 1152.35,1770.52 1152.19,1745.52 1153,1720.5C 1158.49,1671.89 1163.49,1623.22 1168,1574.5C 1184.59,1485.8 1207.59,1398.8 1237,1313.5C 1254.1,1263.54 1272.76,1214.21 1293,1165.5C 1300.83,1110.34 1312.5,1056.01 1328,1002.5C 1338.62,968.328 1350.62,934.661 1364,901.5C 1378.3,868.863 1396.64,838.863 1419,811.5C 1434.69,794.798 1451.86,779.965 1470.5,767C 1479.77,761.532 1489.44,756.865 1499.5,753C 1501.16,745.45 1499.99,738.283 1496,731.5C 1494.67,729.5 1493.33,727.5 1492,725.5C 1482.23,714.311 1472.23,703.311 1462,692.5C 1454.94,683.108 1448.28,673.442 1442,663.5C 1429.12,639.081 1416.79,614.414 1405,589.5C 1396.67,579.833 1388.33,570.167 1380,560.5C 1368.68,550.18 1356.52,541.013 1343.5,533C 1303.96,512.729 1264.29,492.729 1224.5,473C 1191,457.944 1156.33,446.278 1120.5,438C 1114.29,436.093 1111.79,431.926 1113,425.5C 1114.56,422.272 1117.06,420.105 1120.5,419C 1138.65,417.985 1156.65,417.152 1174.5,416.5 Z"/></g>
</svg>
