<?xml version="1.0" encoding="UTF-8"?>
<!DOCTYPE svg PUBLIC "-//W3C//DTD SVG 1.1//EN" "http://www.w3.org/Graphics/SVG/1.1/DTD/svg11.dtd">
<svg xmlns="http://www.w3.org/2000/svg" version="1.1" width="2900px" height="2900px" style="shape-rendering:geometricPrecision; text-rendering:geometricPrecision; image-rendering:optimizeQuality; fill-rule:evenodd; clip-rule:evenodd" xmlns:xlink="http://www.w3.org/1999/xlink">
<g><path style="opacity:0.996" fill="#000000" d="M 893.5,832.5 C 898.351,831.784 902.518,833.117 906,836.5C 912.313,849.125 918.646,861.792 925,874.5C 927.667,890.5 930.333,906.5 933,922.5C 933.761,937.539 933.261,952.539 931.5,967.5C 933.037,977.852 934.704,988.185 936.5,998.5C 935.17,1007.63 934.17,1016.79 933.5,1026C 935.857,1036.24 938.523,1046.41 941.5,1056.5C 958.057,1061.64 974.724,1066.47 991.5,1071C 995.333,1071.17 999.167,1071.33 1003,1071.5C 1052.31,1068.97 1101.64,1067.31 1151,1066.5C 1266.34,1069.97 1381.67,1073.64 1497,1077.5C 1506.86,1077.52 1516.7,1077.02 1526.5,1076C 1571.29,1064.71 1616.63,1056.37 1662.5,1051C 1746.74,1053.31 1826.4,1073.64 1901.5,1112C 1959.25,1147.41 2013.91,1187.08 2065.5,1231C 2085.65,1244.48 2104.65,1259.48 2122.5,1276C 2126.5,1278.67 2130.5,1281.33 2134.5,1284C 2146.7,1286.11 2158.7,1289.11 2170.5,1293C 2194.96,1304.39 2219.29,1316.06 2243.5,1328C 2252.01,1331.73 2260.68,1335.06 2269.5,1338C 2301.93,1352.88 2334.6,1367.22 2367.5,1381C 2399.19,1392.92 2431.86,1400.76 2465.5,1404.5C 2473.74,1402.88 2481.07,1399.38 2487.5,1394C 2497.33,1382.83 2507.17,1371.67 2517,1360.5C 2523.7,1347.4 2529.04,1333.73 2533,1319.5C 2536.21,1316.48 2540.05,1314.98 2544.5,1315C 2547.73,1309.1 2551.73,1303.77 2556.5,1299C 2562.12,1294.87 2568.12,1294.37 2574.5,1297.5C 2586.1,1294.38 2597.43,1295.04 2608.5,1299.5C 2613.82,1298.73 2618.82,1299.89 2623.5,1303C 2629.51,1310.01 2636.84,1315.01 2645.5,1318C 2648.1,1321.09 2648.93,1324.59 2648,1328.5C 2644.66,1334.51 2640.83,1340.18 2636.5,1345.5C 2645.36,1352.85 2654.52,1359.85 2664,1366.5C 2665.03,1368.59 2665.86,1370.75 2666.5,1373C 2661.96,1383.58 2658.13,1394.41 2655,1405.5C 2655.43,1412 2656.26,1418.5 2657.5,1425C 2655.96,1431.41 2652.62,1436.75 2647.5,1441C 2653.25,1454.35 2648.91,1461.52 2634.5,1462.5C 2638.96,1471.02 2641.46,1480.02 2642,1489.5C 2640.42,1495.41 2636.59,1498.91 2630.5,1500C 2626.83,1500.33 2623.17,1500.67 2619.5,1501C 2617.89,1505.65 2617.06,1510.48 2617,1515.5C 2616.11,1518.95 2614.44,1521.95 2612,1524.5C 2595.92,1537.45 2579.76,1550.29 2563.5,1563C 2561.28,1566.46 2558.62,1569.46 2555.5,1572C 2552.17,1572.67 2548.83,1572.67 2545.5,1572C 2538.98,1570.24 2532.48,1568.41 2526,1566.5C 2522.43,1569.05 2518.6,1571.22 2514.5,1573C 2507.14,1573.47 2499.8,1573.47 2492.5,1573C 2486.76,1580.29 2480.09,1581.29 2472.5,1576C 2464.37,1569.41 2455.2,1567.24 2445,1569.5C 2410.88,1566.72 2377.04,1561.89 2343.5,1555C 2331.05,1551.74 2318.71,1548.07 2306.5,1544C 2274.93,1529.88 2243.59,1515.21 2212.5,1500C 2171.08,1473.79 2128.08,1450.45 2083.5,1430C 2085.82,1442.25 2088.65,1454.42 2092,1466.5C 2105.96,1491.42 2116.29,1517.75 2123,1545.5C 2127.49,1550.48 2131.49,1555.81 2135,1561.5C 2141.04,1567.21 2147.37,1572.54 2154,1577.5C 2155.86,1581.3 2155.52,1584.97 2153,1588.5C 2150.59,1590.29 2148.09,1591.96 2145.5,1593.5C 2146.76,1596.13 2147.93,1598.79 2149,1601.5C 2153.72,1604.55 2157.38,1608.55 2160,1613.5C 2160.83,1617.69 2159.99,1621.52 2157.5,1625C 2176.71,1619.87 2183.21,1626.7 2177,1645.5C 2173.88,1651.58 2170.38,1657.42 2166.5,1663C 2174.94,1663.11 2178.78,1667.27 2178,1675.5C 2176.7,1677.94 2175.53,1680.44 2174.5,1683C 2181.82,1688.24 2189.98,1691.4 2199,1692.5C 2205.98,1691.86 2212.81,1690.53 2219.5,1688.5C 2228.75,1691.33 2230.92,1697 2226,1705.5C 2219.78,1712.71 2213.95,1720.21 2208.5,1728C 2212.2,1729.7 2214.37,1732.53 2215,1736.5C 2215.09,1740.31 2214.93,1744.14 2214.5,1748C 2214.54,1751.57 2215.04,1755.07 2216,1758.5C 2224.45,1779.4 2233.45,1800.07 2243,1820.5C 2259,1851.17 2275,1881.83 2291,1912.5C 2304.08,1941.4 2313.74,1971.4 2320,2002.5C 2320.73,2008.83 2321.4,2015.16 2322,2021.5C 2324.4,2028.05 2326.4,2034.71 2328,2041.5C 2328.22,2051.91 2329.22,2062.24 2331,2072.5C 2336.14,2085.92 2340.47,2099.58 2344,2113.5C 2344.67,2122.83 2344.67,2132.17 2344,2141.5C 2344.39,2154.09 2339.06,2163.09 2328,2168.5C 2321.6,2181.8 2312.1,2192.3 2299.5,2200C 2270.5,2205.89 2245.67,2198.06 2225,2176.5C 2219.64,2167.05 2216.81,2156.89 2216.5,2146C 2219.77,2126.59 2220.61,2107.09 2219,2087.5C 2217,2074.5 2212,2062.83 2204,2052.5C 2191.13,2023.77 2177.47,1995.44 2163,1967.5C 2162.2,1963.8 2162.7,1960.3 2164.5,1957C 2159.57,1952.95 2154.74,1948.78 2150,1944.5C 2148.28,1941.33 2146.94,1937.99 2146,1934.5C 2140.27,1931.46 2135.27,1927.46 2131,1922.5C 2127.23,1915.29 2123.73,1907.95 2120.5,1900.5C 2095.96,1895.62 2071.63,1889.79 2047.5,1883C 2009.77,1873.63 1976.1,1856.63 1946.5,1832C 1942.96,1828.8 1939.8,1825.3 1937,1821.5C 1933.87,1822.8 1930.7,1822.8 1927.5,1821.5C 1923.36,1824.48 1919.36,1827.64 1915.5,1831C 1910.34,1833.44 1905.67,1832.77 1901.5,1829C 1899.04,1825.54 1896.2,1822.37 1893,1819.5C 1889.92,1822.29 1886.42,1824.46 1882.5,1826C 1886.18,1828.98 1887.51,1832.65 1886.5,1837C 1895.83,1842.31 1896.83,1848.98 1889.5,1857C 1885.17,1860 1880.83,1863 1876.5,1866C 1883.63,1868.92 1886.96,1874.25 1886.5,1882C 1884.96,1899.2 1883.13,1916.36 1881,1933.5C 1879.86,1943.92 1876.53,1953.58 1871,1962.5C 1838.99,2004.82 1812.33,2050.48 1791,2099.5C 1787.09,2104.08 1782.59,2107.92 1777.5,2111C 1766.17,2118.33 1754.83,2125.67 1743.5,2133C 1734.88,2143.74 1726.38,2154.58 1718,2165.5C 1714.8,2169.93 1710.47,2172.27 1705,2172.5C 1695.85,2171.43 1686.69,2171.26 1677.5,2172C 1647.9,2174.87 1618.23,2176.7 1588.5,2177.5C 1581.99,2177.75 1575.66,2176.92 1569.5,2175C 1566.94,2172.11 1564.78,2168.94 1563,2165.5C 1560,2157.5 1557,2149.5 1554,2141.5C 1553.16,2137.71 1553.5,2134.04 1555,2130.5C 1568.1,2120.07 1580.6,2108.91 1592.5,2097C 1595.62,2095.11 1598.95,2093.77 1602.5,2093C 1612.83,2092.11 1623.16,2091.27 1633.5,2090.5C 1647.75,2068.09 1662.58,2046.09 1678,2024.5C 1689.15,2006.19 1698.15,1986.86 1705,1966.5C 1704.84,1962.17 1704.34,1957.84 1703.5,1953.5C 1703.54,1951.57 1703.87,1949.74 1704.5,1948C 1688.5,1941.3 1673.5,1932.97 1659.5,1923C 1638.37,1904.87 1617.54,1886.37 1597,1867.5C 1585.63,1855.13 1574.63,1842.46 1564,1829.5C 1562.69,1827.04 1561.52,1824.54 1560.5,1822C 1554.13,1820.96 1549.47,1817.62 1546.5,1812C 1539.3,1809.8 1533.46,1805.64 1529,1799.5C 1522.78,1791.73 1518.11,1783.06 1515,1773.5C 1513.29,1774.46 1511.46,1775.13 1509.5,1775.5C 1505.35,1774.51 1501.52,1772.84 1498,1770.5C 1486.32,1777.02 1476.15,1775.19 1467.5,1765C 1459.19,1766.14 1453.35,1762.97 1450,1755.5C 1447.84,1746.01 1445.17,1736.68 1442,1727.5C 1438.82,1736.71 1433.98,1744.87 1427.5,1752C 1418.48,1753.01 1410.15,1756.01 1402.5,1761C 1396.36,1763.66 1390.86,1762.82 1386,1758.5C 1384.7,1755.71 1383.2,1753.04 1381.5,1750.5C 1379.08,1749.27 1376.58,1748.27 1374,1747.5C 1367.55,1756.46 1359.05,1762.46 1348.5,1765.5C 1345.61,1765.37 1343.11,1764.37 1341,1762.5C 1336.2,1781.22 1331.2,1799.89 1326,1818.5C 1325.67,1824.35 1325.17,1830.18 1324.5,1836C 1326.16,1840.5 1327.99,1845 1330,1849.5C 1330.67,1852.5 1330.67,1855.5 1330,1858.5C 1324.79,1877.63 1318.29,1896.3 1310.5,1914.5C 1313.88,1916.72 1316.38,1919.72 1318,1923.5C 1318.67,1925.5 1318.67,1927.5 1318,1929.5C 1315.06,1935.72 1312.39,1942.05 1310,1948.5C 1309.66,1967.52 1306,1985.85 1299,2003.5C 1298.75,2007.85 1298.75,2012.19 1299,2016.5C 1294.55,2031.81 1289.71,2046.98 1284.5,2062C 1287.72,2064.56 1289.05,2067.89 1288.5,2072C 1285.62,2093.21 1282.46,2114.38 1279,2135.5C 1275.9,2148.47 1268.06,2152.64 1255.5,2148C 1258.52,2154.99 1259.02,2162.16 1257,2169.5C 1241.66,2192.84 1227.33,2216.84 1214,2241.5C 1209.15,2245.1 1203.65,2247.26 1197.5,2248C 1179.56,2250.27 1161.56,2250.94 1143.5,2250C 1140.06,2249.31 1136.73,2248.31 1133.5,2247C 1113.5,2246.67 1093.5,2246.33 1073.5,2246C 1064.47,2246.07 1057.31,2242.57 1052,2235.5C 1046,2225.5 1040,2215.5 1034,2205.5C 1033.13,2200.3 1033.8,2195.3 1036,2190.5C 1040.38,2178.55 1047.55,2168.72 1057.5,2161C 1076.15,2151.58 1095.81,2147.75 1116.5,2149.5C 1121.45,2136.93 1126.95,2124.6 1133,2112.5C 1134.02,2111.31 1135.19,2110.31 1136.5,2109.5C 1138.3,2089.87 1138.8,2070.2 1138,2050.5C 1129.46,2019.88 1121.13,1989.21 1113,1958.5C 1108.5,1931.97 1105.16,1905.3 1103,1878.5C 1100.93,1876.55 1098.76,1874.71 1096.5,1873C 1088.53,1871.58 1081.7,1868.08 1076,1862.5C 1074.4,1858 1074.57,1853.5 1076.5,1849C 1074.18,1845.98 1071.18,1843.65 1067.5,1842C 1062.41,1837.98 1060.57,1832.82 1062,1826.5C 1064.75,1820.68 1067.75,1815.01 1071,1809.5C 1071.5,1807.53 1071.66,1805.53 1071.5,1803.5C 1067.05,1802.81 1062.72,1801.64 1058.5,1800C 1035.05,1788.24 1010.71,1778.74 985.5,1771.5C 983.957,1774.09 982.291,1776.59 980.5,1779C 978.541,1779.93 976.541,1780.76 974.5,1781.5C 972.556,1780.81 970.556,1780.31 968.5,1780C 963.373,1774.94 957.707,1770.61 951.5,1767C 946.903,1765.18 942.237,1765.01 937.5,1766.5C 934.784,1766.04 932.118,1765.37 929.5,1764.5C 917.967,1768.02 907.134,1773.02 897,1779.5C 896.002,1790.16 891.335,1798.83 883,1805.5C 881.338,1815.11 880.005,1824.78 879,1834.5C 877.004,1841.25 872.504,1844.08 865.5,1843C 861.664,1840.92 857.997,1838.58 854.5,1836C 852.866,1835.51 851.199,1835.34 849.5,1835.5C 849.741,1842.76 846.241,1846.76 839,1847.5C 834.667,1846.5 830.333,1845.5 826,1844.5C 824.018,1844.01 822.351,1843.01 821,1841.5C 817.822,1849.18 813.156,1855.85 807,1861.5C 804.61,1868.62 800.943,1874.95 796,1880.5C 778.768,1899.73 760.268,1917.57 740.5,1934C 730.161,1944.51 721.661,1956.34 715,1969.5C 711.903,1973.05 708.57,1976.39 705,1979.5C 700.791,1992.42 694.625,2004.25 686.5,2015C 684.634,2015.98 682.634,2016.48 680.5,2016.5C 676.491,2015.66 672.491,2015.16 668.5,2015C 659.833,2024.67 651.167,2034.33 642.5,2044C 635.505,2049.17 628.172,2053.83 620.5,2058C 613.28,2066.9 604.613,2073.9 594.5,2079C 589.315,2079.16 585.315,2081.5 582.5,2086C 579.671,2087.51 576.838,2087.68 574,2086.5C 573.625,2090.67 572.625,2094.67 571,2098.5C 563.711,2108.12 556.045,2117.46 548,2126.5C 545.311,2137.26 542.311,2147.92 539,2158.5C 535.582,2164.34 531.916,2170 528,2175.5C 513.167,2189 499,2203.17 485.5,2218C 480.779,2221.03 475.779,2223.53 470.5,2225.5C 464.093,2234.41 456.759,2242.58 448.5,2250C 436.629,2258.64 423.296,2262.64 408.5,2262C 402.748,2264.47 397.081,2267.14 391.5,2270C 376.37,2275.07 363.37,2271.74 352.5,2260C 344.068,2258.38 335.735,2256.38 327.5,2254C 319.538,2248.59 314.705,2241.09 313,2231.5C 312.333,2217.83 312.333,2204.17 313,2190.5C 313.438,2187.62 314.438,2184.96 316,2182.5C 321.873,2174.96 328.706,2168.46 336.5,2163C 345.347,2158.41 354.347,2154.08 363.5,2150C 374.876,2141.98 386.876,2134.98 399.5,2129C 403.369,2125.47 406.869,2121.63 410,2117.5C 428.495,2088.01 448.162,2059.34 469,2031.5C 474.554,2019.06 479.554,2006.39 484,1993.5C 495.949,1954.65 509.282,1916.32 524,1878.5C 542.333,1841.83 560.667,1805.17 579,1768.5C 584.528,1756.25 589.861,1743.92 595,1731.5C 596.7,1725.97 597.533,1720.3 597.5,1714.5C 596.198,1704.49 594.698,1694.49 593,1684.5C 591.196,1659.15 591.529,1633.82 594,1608.5C 597.025,1582.68 601.025,1557.02 606,1531.5C 609.606,1521.52 613.106,1511.52 616.5,1501.5C 611.909,1488.89 607.409,1476.23 603,1463.5C 601.842,1459.2 600.842,1454.87 600,1450.5C 598.5,1422.47 597,1394.47 595.5,1366.5C 582.035,1357.54 568.702,1348.37 555.5,1339C 548.474,1331.11 541.808,1322.94 535.5,1314.5C 524.648,1310.14 514.982,1303.97 506.5,1296C 494.798,1285.97 484.132,1274.97 474.5,1263C 450.276,1267.4 426.609,1274.07 403.5,1283C 382.76,1291.67 362.426,1300.67 342.5,1310C 337.243,1306.52 337.243,1302.85 342.5,1299C 382.177,1278.5 423.511,1262.67 466.5,1251.5C 460.135,1243.08 458.135,1233.74 460.5,1223.5C 422.771,1220.53 385.437,1222.86 348.5,1230.5C 341.893,1228.64 340.893,1225.14 345.5,1220C 384.153,1212.82 423.153,1209.82 462.5,1211C 463.46,1209.58 464.293,1208.08 465,1206.5C 465.009,1200.49 465.842,1194.65 467.5,1189C 424.904,1170.47 380.904,1156.13 335.5,1146C 332.203,1141.29 333.203,1137.79 338.5,1135.5C 380.598,1145.09 421.598,1158.09 461.5,1174.5C 461.833,1173.83 462.167,1173.17 462.5,1172.5C 458.004,1151.59 457.504,1130.59 461,1109.5C 462.35,1103.12 464.683,1097.12 468,1091.5C 471.835,1087.15 475.169,1082.48 478,1077.5C 480.58,1064.6 483.413,1051.77 486.5,1039C 484.991,1031.63 483.325,1024.3 481.5,1017C 482.462,1012.74 484.462,1009.07 487.5,1006C 483.281,1003.45 480.114,999.948 478,995.5C 469.804,975.914 461.804,956.247 454,936.5C 450.486,912.106 446.486,887.772 442,863.5C 438.497,850.122 443.497,843.122 457,842.5C 470.393,844.41 482.893,848.91 494.5,856C 510.584,864.709 525.25,875.376 538.5,888C 563.042,912.21 587.875,936.044 613,959.5C 621.297,955.563 629.964,954.563 639,956.5C 656.857,954.949 674.69,953.116 692.5,951C 716.868,950.072 741.201,948.739 765.5,947C 770.613,944.694 775.113,941.528 779,937.5C 788.086,923.66 797.419,909.993 807,896.5C 822.866,880.302 838.366,863.802 853.5,847C 856.228,844.608 859.228,842.608 862.5,841C 872.765,837.404 883.099,834.57 893.5,832.5 Z"/></g>
</svg>
