<?xml version="1.0" encoding="UTF-8"?>
<!DOCTYPE svg PUBLIC "-//W3C//DTD SVG 1.1//EN" "http://www.w3.org/Graphics/SVG/1.1/DTD/svg11.dtd">
<svg xmlns="http://www.w3.org/2000/svg" version="1.1" width="2900px" height="2900px" style="shape-rendering:geometricPrecision; text-rendering:geometricPrecision; image-rendering:optimizeQuality; fill-rule:evenodd; clip-rule:evenodd" xmlns:xlink="http://www.w3.org/1999/xlink">
<g><path style="opacity:0.992" fill="#000000" d="M 2700.5,505.5 C 2703.57,505.183 2706.57,505.516 2709.5,506.5C 2711.07,511.366 2712.07,516.366 2712.5,521.5C 2710.17,530.76 2709.17,540.094 2709.5,549.5C 2707.4,557.251 2704.4,564.584 2700.5,571.5C 2696.61,572.36 2694.11,574.693 2693,578.5C 2691.84,583.469 2690.84,588.469 2690,593.5C 2685.69,597.459 2682.35,602.126 2680,607.5C 2679.67,609.833 2679.33,612.167 2679,614.5C 2674.72,618.379 2672.39,623.045 2672,628.5C 2687.83,649.988 2703.67,671.488 2719.5,693C 2732.56,702.196 2746.56,709.196 2761.5,714C 2764.29,716.21 2765.12,719.044 2764,722.5C 2760.06,725.88 2755.89,728.88 2751.5,731.5C 2752.27,735.779 2752.77,740.113 2753,744.5C 2760.36,758.908 2766.36,773.908 2771,789.5C 2776.5,797.683 2781.17,806.349 2785,815.5C 2787,818.833 2789.67,821.5 2793,823.5C 2794.17,830.333 2791.33,833.167 2784.5,832C 2783.27,830.471 2781.77,829.304 2780,828.5C 2775.49,821.476 2770.49,814.809 2765,808.5C 2762.44,809.646 2761.11,808.646 2761,805.5C 2760.33,806.833 2759.67,806.833 2759,805.5C 2757.96,806.623 2757.29,807.956 2757,809.5C 2756.33,808.833 2755.67,808.167 2755,807.5C 2755.25,825.247 2753.42,842.747 2749.5,860C 2754.16,878.155 2760.49,895.655 2768.5,912.5C 2768.29,913.086 2767.96,913.586 2767.5,914C 2768.23,915.399 2768.73,916.899 2769,918.5C 2782.94,943.956 2795.94,969.956 2808,996.5C 2812,1001.48 2814.67,1007.14 2816,1013.5C 2820.09,1034.23 2824.76,1054.9 2830,1075.5C 2832.33,1088.84 2834.67,1102.17 2837,1115.5C 2837.79,1125.86 2837.62,1136.19 2836.5,1146.5C 2831.82,1155 2825.49,1162 2817.5,1167.5C 2812.39,1175.79 2807.89,1184.46 2804,1193.5C 2794.13,1206.49 2780.96,1212.49 2764.5,1211.5C 2763.3,1216.23 2761.8,1220.9 2760,1225.5C 2757.32,1228.39 2754.16,1230.56 2750.5,1232C 2743.22,1233.82 2735.89,1235.32 2728.5,1236.5C 2724.65,1236.45 2720.98,1235.62 2717.5,1234C 2715.85,1231.35 2713.85,1229.01 2711.5,1227C 2700.87,1221.67 2690.2,1216.34 2679.5,1211C 2673.69,1206.86 2669.86,1201.36 2668,1194.5C 2667.27,1184.48 2667.44,1174.48 2668.5,1164.5C 2666.06,1151.13 2660.06,1139.63 2650.5,1130C 2620.95,1109.17 2590.29,1089.83 2558.5,1072C 2548.54,1062.34 2538.54,1052.68 2528.5,1043C 2512.57,1038.58 2497.24,1032.58 2482.5,1025C 2480.83,1024.67 2479.17,1024.33 2477.5,1024C 2469.47,1018.55 2461.64,1012.72 2454,1006.5C 2445.3,993.777 2437.64,980.443 2431,966.5C 2427.2,963.63 2422.86,962.296 2418,962.5C 2408.5,963.306 2399,964.139 2389.5,965C 2376.32,965.838 2363.99,969.504 2352.5,976C 2333.83,987.333 2315.17,998.667 2296.5,1010C 2264.89,1035.28 2231.89,1058.61 2197.5,1080C 2192.09,1084.74 2187.42,1090.07 2183.5,1096C 2166.47,1105.51 2149.8,1115.51 2133.5,1126C 2131.53,1129.43 2129.2,1132.6 2126.5,1135.5C 2106.93,1151.57 2086.93,1167.07 2066.5,1182C 2065.32,1184.69 2063.66,1187.02 2061.5,1189C 2041.64,1203.16 2023.14,1219.33 2006,1237.5C 2003.33,1240.83 2000.67,1244.17 1998,1247.5C 1996.3,1251.43 1994.97,1255.43 1994,1259.5C 1991.38,1289.51 1987.04,1319.18 1981,1348.5C 1977.55,1360.73 1974.22,1373.06 1971,1385.5C 1963.14,1400.75 1955.47,1416.08 1948,1431.5C 1936.38,1448.47 1923.21,1464.3 1908.5,1479C 1901.61,1482.96 1895.11,1487.46 1889,1492.5C 1860.67,1544.83 1832.33,1597.17 1804,1649.5C 1785.82,1685.86 1767.65,1722.2 1749.5,1758.5C 1750.65,1760.15 1751.98,1761.65 1753.5,1763C 1750.65,1764.53 1749.98,1766.7 1751.5,1769.5C 1748.92,1774.81 1748.92,1780.14 1751.5,1785.5C 1750.04,1788.74 1748.71,1792.07 1747.5,1795.5C 1747.99,1796.45 1748.32,1797.45 1748.5,1798.5C 1746.9,1803.68 1746.07,1809.01 1746,1814.5C 1745.89,1837.24 1744.55,1859.91 1742,1882.5C 1740.98,1887.91 1739.65,1893.25 1738,1898.5C 1733.34,1904.51 1731.17,1911.17 1731.5,1918.5C 1728.35,1922.15 1725.02,1925.65 1721.5,1929C 1720.55,1929.48 1719.55,1929.65 1718.5,1929.5C 1717.4,1934.17 1716.23,1938.83 1715,1943.5C 1709.94,1954.01 1705.28,1964.68 1701,1975.5C 1699.72,1999.73 1697.22,2023.73 1693.5,2047.5C 1693.67,2049.04 1694.01,2050.54 1694.5,2052C 1692.5,2059.7 1691.33,2067.53 1691,2075.5C 1689.53,2100.15 1689.2,2124.82 1690,2149.5C 1692.87,2163.69 1694.53,2178.02 1695,2192.5C 1697.1,2206.52 1699.77,2220.52 1703,2234.5C 1705.53,2240.03 1709.19,2244.7 1714,2248.5C 1719.17,2255.5 1724.33,2262.5 1729.5,2269.5C 1737.78,2284.41 1746.28,2299.07 1755,2313.5C 1760.86,2324.56 1766.2,2335.89 1771,2347.5C 1773.94,2354.58 1774.94,2361.92 1774,2369.5C 1771.88,2372.43 1769.05,2374.26 1765.5,2375C 1761.58,2375.44 1757.75,2376.27 1754,2377.5C 1745.27,2375.71 1736.43,2375.04 1727.5,2375.5C 1727.67,2379.18 1727.5,2382.85 1727,2386.5C 1724.35,2390.84 1721.19,2394.67 1717.5,2398C 1713.74,2398.87 1710.08,2400.04 1706.5,2401.5C 1662.46,2405.22 1620.79,2397.22 1581.5,2377.5C 1578.81,2374.65 1576.31,2371.65 1574,2368.5C 1571.05,2359.63 1567.71,2350.97 1564,2342.5C 1562.93,2337.23 1563.6,2332.23 1566,2327.5C 1568.25,2324.67 1570.25,2321.67 1572,2318.5C 1575.71,2315.96 1579.54,2313.63 1583.5,2311.5C 1590.76,2302.62 1597.26,2293.29 1603,2283.5C 1603.23,2280.91 1603.73,2278.41 1604.5,2276C 1600.73,2260.29 1593.9,2246.13 1584,2233.5C 1581.5,2224.84 1578.17,2216.51 1574,2208.5C 1571.21,2200.57 1569.71,2192.4 1569.5,2184C 1570.6,2167.44 1573.44,2151.28 1578,2135.5C 1578.7,2131.46 1578.53,2127.46 1577.5,2123.5C 1585.44,2082.39 1591.11,2040.89 1594.5,1999C 1594.29,1997.63 1593.96,1996.3 1593.5,1995C 1595.86,1989.25 1596.86,1983.25 1596.5,1977C 1595.56,1961.84 1594.73,1946.67 1594,1931.5C 1590.31,1918.75 1585.64,1906.41 1580,1894.5C 1574.19,1871.18 1574.19,1847.84 1580,1824.5C 1580.22,1815.14 1580.72,1805.81 1581.5,1796.5C 1579.01,1779.24 1577.18,1761.91 1576,1744.5C 1575.71,1742.96 1575.04,1741.62 1574,1740.5C 1571.53,1711.55 1569.86,1682.55 1569,1653.5C 1565.44,1630.29 1562.94,1606.96 1561.5,1583.5C 1562.03,1570.65 1562.69,1557.82 1563.5,1545C 1562.97,1538.45 1562.14,1531.95 1561,1525.5C 1557.9,1522.94 1554.4,1521.11 1550.5,1520C 1529.83,1519.33 1509.17,1519.33 1488.5,1520C 1478.03,1521.78 1467.53,1523.61 1457,1525.5C 1455.49,1525.23 1453.99,1524.9 1452.5,1524.5C 1432.95,1530.59 1412.95,1534.42 1392.5,1536C 1385.96,1538.15 1379.3,1539.81 1372.5,1541C 1345.86,1542.88 1319.19,1544.38 1292.5,1545.5C 1276.76,1545.29 1261.09,1544.13 1245.5,1542C 1210.69,1541.91 1176.03,1540.74 1141.5,1538.5C 1131.48,1537.16 1121.48,1535.66 1111.5,1534C 1104.81,1533.08 1098.48,1531.08 1092.5,1528C 1063.4,1525.79 1036.07,1517.79 1010.5,1504C 1005.36,1502.73 1000.36,1501.07 995.5,1499C 973.121,1485.14 950.121,1472.31 926.5,1460.5C 925.833,1460.83 925.167,1461.17 924.5,1461.5C 903.694,1505.81 878.861,1547.48 850,1586.5C 843.285,1593.71 836.785,1601.04 830.5,1608.5C 828.667,1612.83 826.833,1617.17 825,1621.5C 816.981,1632.21 809.981,1643.54 804,1655.5C 793.333,1666.83 782.667,1678.17 772,1689.5C 764.732,1699.72 757.232,1709.72 749.5,1719.5C 748.391,1721.39 747.557,1723.39 747,1725.5C 742.11,1729.64 737.443,1733.97 733,1738.5C 725.389,1750.08 717.556,1761.41 709.5,1772.5C 702.804,1783.89 696.637,1795.56 691,1807.5C 689.233,1813.87 688.4,1820.37 688.5,1827C 689.157,1839.27 690.657,1851.43 693,1863.5C 697.991,1876.15 702.991,1888.82 708,1901.5C 714.397,1913.62 721.563,1925.29 729.5,1936.5C 732,1938.83 734.5,1941.17 737,1943.5C 743.924,1954.33 751.59,1964.66 760,1974.5C 762.086,1979.76 765.086,1984.43 769,1988.5C 769.876,1992.34 771.209,1996.01 773,1999.5C 789.614,2016.94 804.114,2035.94 816.5,2056.5C 817.154,2058.12 817.654,2059.78 818,2061.5C 823.279,2067.07 827.279,2073.4 830,2080.5C 834.97,2083.47 839.304,2087.14 843,2091.5C 848.529,2104.61 849.696,2118.11 846.5,2132C 848.041,2144.11 848.874,2156.28 849,2168.5C 850.33,2177.52 853.33,2185.85 858,2193.5C 862.597,2209.79 867.097,2226.13 871.5,2242.5C 872.132,2256.76 874.299,2270.76 878,2284.5C 879.864,2296.8 881.53,2309.13 883,2321.5C 883.414,2330.02 883.747,2338.69 884,2347.5C 881.958,2349.6 879.458,2350.77 876.5,2351C 871.482,2352.27 866.482,2352.44 861.5,2351.5C 859.914,2349.33 858.58,2347 857.5,2344.5C 851.622,2342.89 845.956,2340.73 840.5,2338C 834.64,2333.24 828.307,2329.24 821.5,2326C 815.5,2320.67 809.5,2315.33 803.5,2310C 792.47,2304.06 781.97,2297.23 772,2289.5C 767.066,2281.3 762.399,2272.96 758,2264.5C 752.166,2252.01 750.499,2239.01 753,2225.5C 754.333,2222.83 755.667,2220.17 757,2217.5C 764.714,2212.15 772.38,2206.82 780,2201.5C 783.631,2180.15 774.798,2169.65 753.5,2170C 747.996,2167.16 744.829,2162.66 744,2156.5C 744.95,2142.93 742.95,2129.93 738,2117.5C 736.248,2114.33 734.248,2111.33 732,2108.5C 728.177,2095.18 721.51,2083.52 712,2073.5C 707.26,2063.69 702.26,2054.02 697,2044.5C 689.358,2037.24 683.692,2028.57 680,2018.5C 674.11,2010.45 668.777,2002.12 664,1993.5C 648.425,1976.25 634.758,1957.59 623,1937.5C 619.374,1933.52 616.041,1929.19 613,1924.5C 609.623,1921.29 606.456,1917.96 603.5,1914.5C 599.246,1904.54 594.413,1894.87 589,1885.5C 581.525,1876.56 574.525,1867.23 568,1857.5C 562.765,1854.94 557.765,1851.94 553,1848.5C 538.092,1875.56 530.759,1904.56 531,1935.5C 536.473,1985.2 541.473,2034.86 546,2084.5C 548.147,2096.72 551.147,2108.72 555,2120.5C 558.657,2124.46 562.324,2128.46 566,2132.5C 573.575,2149.27 577.241,2166.94 577,2185.5C 581.824,2195.82 587.158,2205.82 593,2215.5C 598.333,2220.83 603.667,2226.17 609,2231.5C 609.309,2232.77 609.809,2233.93 610.5,2235C 620.72,2240.27 630.053,2246.77 638.5,2254.5C 640.353,2259.56 643.187,2263.89 647,2267.5C 648.413,2270.66 650.08,2273.66 652,2276.5C 656.426,2280.09 659.926,2284.42 662.5,2289.5C 669.816,2303.62 676.649,2317.95 683,2332.5C 683.498,2335.82 683.665,2339.15 683.5,2342.5C 679.713,2344.56 675.713,2346.39 671.5,2348C 656.382,2349.75 641.382,2352.09 626.5,2355C 610.118,2356.76 593.784,2356.26 577.5,2353.5C 569.164,2350.33 560.664,2347.67 552,2345.5C 545.173,2342.75 538.506,2339.75 532,2336.5C 533.459,2332.09 533.792,2327.42 533,2322.5C 529.152,2318.84 527.652,2314.5 528.5,2309.5C 530.071,2308.69 531.738,2308.36 533.5,2308.5C 533.365,2301.14 533.698,2293.8 534.5,2286.5C 523.097,2284.86 516.43,2278.36 514.5,2267C 514.667,2266.5 514.833,2266 515,2265.5C 519.44,2274.28 526.106,2280.61 535,2284.5C 536.856,2276.94 536.856,2269.28 535,2261.5C 532.138,2255.25 529.472,2248.91 527,2242.5C 523.631,2239.07 519.465,2237.24 514.5,2237C 511.937,2234.47 509.103,2232.3 506,2230.5C 505.751,2231.62 505.251,2232.62 504.5,2233.5C 504.167,2233.33 503.833,2233.17 503.5,2233C 500.072,2229.15 496.905,2224.99 494,2220.5C 492.308,2220.32 490.808,2219.82 489.5,2219C 490.5,2218.67 491.5,2218.33 492.5,2218C 487.919,2213.41 484.086,2208.25 481,2202.5C 481.135,2205.22 481.468,2207.89 482,2210.5C 481,2209.83 480,2209.17 479,2208.5C 479.263,2209.95 479.096,2211.28 478.5,2212.5C 477.069,2212.02 475.736,2211.36 474.5,2210.5C 467.667,2200.17 460.833,2189.83 454,2179.5C 450.702,2175.2 447.035,2171.2 443,2167.5C 448.073,2178.3 453.74,2188.97 460,2199.5C 462.296,2205.34 463.629,2211.34 464,2217.5C 463.085,2216.67 462.419,2215.67 462,2214.5C 461.833,2215 461.667,2215.5 461.5,2216C 464.389,2223.88 467.723,2231.55 471.5,2239C 471.167,2239.5 470.833,2240 470.5,2240.5C 465.52,2233.69 459.686,2227.69 453,2222.5C 451.788,2223.78 450.955,2225.28 450.5,2227C 454.043,2241.37 456.543,2255.87 458,2270.5C 457.189,2269.04 456.355,2268.71 455.5,2269.5C 460.006,2276.86 462.173,2284.86 462,2293.5C 458.176,2289.19 454.843,2284.52 452,2279.5C 451,2278.5 450,2277.5 449,2276.5C 448.833,2276.83 448.667,2277.17 448.5,2277.5C 453.399,2286.96 458.565,2296.3 464,2305.5C 464.749,2306.64 464.583,2307.64 463.5,2308.5C 461.833,2307.17 460.167,2305.83 458.5,2304.5C 455.308,2298.09 451.474,2292.09 447,2286.5C 445.736,2284.39 443.903,2283.39 441.5,2283.5C 440.459,2278.61 437.626,2274.94 433,2272.5C 428.336,2266.51 424.17,2260.18 420.5,2253.5C 419.833,2252.17 419.167,2252.17 418.5,2253.5C 423.078,2262.99 427.911,2272.32 433,2281.5C 438.264,2290.37 443.764,2299.04 449.5,2307.5C 447.741,2308.75 446.241,2308.42 445,2306.5C 428.902,2284.98 415.902,2261.65 406,2236.5C 404.649,2234.98 403.149,2233.65 401.5,2232.5C 396.096,2223.08 391.096,2213.41 386.5,2203.5C 386.794,2213.92 388.628,2224.26 392,2234.5C 399.838,2247.83 408.004,2260.83 416.5,2273.5C 415.635,2274.58 414.635,2274.75 413.5,2274C 402.99,2261.04 393.657,2247.04 385.5,2232C 382.475,2217.28 380.142,2202.45 378.5,2187.5C 377.186,2186.69 376.019,2185.69 375,2184.5C 370.728,2177.39 366.228,2170.39 361.5,2163.5C 359.426,2159.35 357.926,2155.02 357,2150.5C 353.663,2113.58 352.163,2076.58 352.5,2039.5C 347.669,2040.33 345.336,2038.33 345.5,2033.5C 347.268,2024.16 349.102,2014.83 351,2005.5C 352.245,1988.95 350.912,1972.62 347,1956.5C 342.888,1944.28 338.221,1932.28 333,1920.5C 332.826,1913.67 334.326,1907.17 337.5,1901C 334.192,1886.51 332.192,1871.85 331.5,1857C 331.292,1850.36 332.125,1843.86 334,1837.5C 337.302,1832.19 340.635,1826.85 344,1821.5C 346.277,1815.67 347.944,1809.67 349,1803.5C 350.601,1785.81 351.268,1768.14 351,1750.5C 352.997,1730.86 354.664,1711.19 356,1691.5C 357.967,1685.3 359.133,1678.97 359.5,1672.5C 358.448,1672.35 357.448,1672.52 356.5,1673C 351.333,1679.5 346.167,1686 341,1692.5C 344.496,1678.36 347.496,1664.02 350,1649.5C 352.886,1633.71 350.553,1618.71 343,1604.5C 338.064,1589.46 335.731,1574.13 336,1558.5C 332.425,1562.8 331.258,1562.3 332.5,1557C 331.299,1556.1 330.465,1554.93 330,1553.5C 329.732,1541.81 329.066,1530.14 328,1518.5C 326.455,1523.55 323.288,1527.21 318.5,1529.5C 318.167,1529 317.833,1528.5 317.5,1528C 321.64,1523.19 324.974,1517.85 327.5,1512C 323.199,1504.76 320.699,1496.93 320,1488.5C 317.55,1492.62 314.716,1496.45 311.5,1500C 309.933,1501.08 308.266,1501.91 306.5,1502.5C 305.833,1502.17 305.167,1501.83 304.5,1501.5C 316.63,1492.26 321.13,1480.26 318,1465.5C 316.331,1469.14 314.331,1472.47 312,1475.5C 310.686,1476.31 309.519,1477.31 308.5,1478.5C 308.167,1478.17 307.833,1477.83 307.5,1477.5C 311.294,1470.25 314.794,1462.91 318,1455.5C 318.667,1441.5 318.667,1427.5 318,1413.5C 317.667,1412.17 317.333,1410.83 317,1409.5C 315.211,1411.23 313.044,1411.9 310.5,1411.5C 310.72,1414.4 310.054,1417.07 308.5,1419.5C 307.327,1417.02 307.327,1414.52 308.5,1412C 307.042,1409.94 306.375,1407.61 306.5,1405C 308.853,1392.27 309.686,1379.43 309,1366.5C 308.667,1366.83 308.333,1367.17 308,1367.5C 307.558,1362.81 308.392,1358.31 310.5,1354C 309.419,1352.63 308.585,1351.13 308,1349.5C 306.582,1352 305.582,1351.67 305,1348.5C 304.333,1347.17 304.333,1345.83 305,1344.5C 306.221,1343.23 307.054,1341.73 307.5,1340C 305.771,1337.37 304.437,1334.54 303.5,1331.5C 305.783,1320.05 305.783,1308.71 303.5,1297.5C 303.784,1294.08 304.451,1290.75 305.5,1287.5C 305.167,1287.17 304.833,1286.83 304.5,1286.5C 301.704,1287.6 298.871,1288.6 296,1289.5C 289.076,1286.42 288.242,1282.25 293.5,1277C 297.44,1275.11 300.94,1272.61 304,1269.5C 311.654,1254.57 319.321,1239.57 327,1224.5C 327.694,1207.58 329.694,1190.92 333,1174.5C 333.592,1164.67 334.092,1154.84 334.5,1145C 332.829,1128.06 330.996,1111.22 329,1094.5C 328.333,1081.83 328.333,1069.17 329,1056.5C 332.312,1043.66 334.979,1030.66 337,1017.5C 341.021,1001.44 345.688,985.436 351,969.5C 356.55,959.291 362.883,949.624 370,940.5C 381.871,930.021 391.871,918.021 400,904.5C 404.644,900.186 408.978,895.52 413,890.5C 428.246,877.803 444.08,865.97 460.5,855C 464.498,850.687 468.832,846.853 473.5,843.5C 488.07,835.382 503.07,828.049 518.5,821.5C 531.073,812.048 545.073,805.548 560.5,802C 569.629,797.268 578.629,792.268 587.5,787C 594.139,785.306 600.806,783.806 607.5,782.5C 607.5,781.5 607.5,780.5 607.5,779.5C 609.124,779.36 610.29,780.027 611,781.5C 618.628,778.188 626.295,774.855 634,771.5C 650.515,767.608 666.682,762.775 682.5,757C 683.167,756.333 683.833,755.667 684.5,755C 697.744,752.753 710.744,749.753 723.5,746C 736.097,744.133 748.764,742.967 761.5,742.5C 777.121,742.517 792.787,742.683 808.5,743C 818.034,744.545 827.534,746.045 837,747.5C 837.414,747.043 837.914,746.709 838.5,746.5C 839.613,748.031 841.113,749.031 843,749.5C 884.841,756.001 926.341,764.168 967.5,774C 976.885,774.974 986.218,776.308 995.5,778C 998.209,778.772 1000.71,779.939 1003,781.5C 1040.38,789.06 1077.88,795.893 1115.5,802C 1121.8,802.789 1127.8,804.456 1133.5,807C 1149.27,808.751 1164.93,811.085 1180.5,814C 1237.79,819.724 1294.79,817.724 1351.5,808C 1359.72,805.44 1368.05,803.44 1376.5,802C 1398.14,795.177 1418.81,786.177 1438.5,775C 1442.24,770.631 1446.57,766.965 1451.5,764C 1457.1,762.245 1462.44,759.911 1467.5,757C 1472.21,752.62 1477.21,748.62 1482.5,745C 1484.56,742.939 1486.23,740.606 1487.5,738C 1513.55,724.636 1539.89,711.636 1566.5,699C 1571.64,696.731 1576.97,695.065 1582.5,694C 1595.12,690.592 1607.95,688.425 1621,687.5C 1625.17,687.959 1629.34,688.459 1633.5,689C 1659.5,689.797 1685.5,690.13 1711.5,690C 1716.45,688.744 1721.45,687.744 1726.5,687C 1737.77,680.533 1749.77,678.533 1762.5,681C 1763.74,682.154 1764.74,683.488 1765.5,685C 1769.52,685.609 1773.52,685.442 1777.5,684.5C 1789.05,681.53 1800.71,679.03 1812.5,677C 1822.74,673.112 1833.4,671.112 1844.5,671C 1848.35,669.716 1852.02,668.05 1855.5,666C 1864.89,664.653 1874.22,662.986 1883.5,661C 1886.88,655.747 1890.38,650.58 1894,645.5C 1896.23,643.3 1898.73,641.467 1901.5,640C 1912.47,641.259 1923.47,642.259 1934.5,643C 1939.73,641.59 1944.73,639.59 1949.5,637C 1959.18,626.612 1971.18,622.279 1985.5,624C 1990.72,620.258 1996.56,618.092 2003,617.5C 2015.36,620.478 2027.86,621.978 2040.5,622C 2050.75,615.706 2061.75,611.373 2073.5,609C 2083.83,603.333 2094.17,597.667 2104.5,592C 2109.57,589.587 2114.91,588.087 2120.5,587.5C 2132.11,590.705 2143.78,593.705 2155.5,596.5C 2165.9,595.691 2176.07,593.691 2186,590.5C 2187.14,590.911 2188.31,591.244 2189.5,591.5C 2193.29,587.533 2196.96,583.366 2200.5,579C 2210.77,572.072 2221.77,570.738 2233.5,575C 2241.57,578.785 2249.4,582.951 2257,587.5C 2261.96,586.068 2266.79,584.234 2271.5,582C 2275.15,578.021 2279.15,574.355 2283.5,571C 2286.17,570.333 2288.83,570.333 2291.5,571C 2295.28,572.639 2299.11,574.139 2303,575.5C 2309.25,571.626 2315.75,568.126 2322.5,565C 2324.5,564.5 2326.5,564 2328.5,563.5C 2336.37,565.768 2344.04,568.601 2351.5,572C 2359.1,570.952 2366.77,570.618 2374.5,571C 2380.83,572.666 2386.83,575.166 2392.5,578.5C 2401.46,575.568 2410.46,572.734 2419.5,570C 2423.17,569.333 2426.83,569.333 2430.5,570C 2441.09,575.601 2451.43,581.601 2461.5,588C 2491.82,598.137 2521.15,595.804 2549.5,581C 2555.88,575.491 2562.55,570.491 2569.5,566C 2572.33,561.833 2575.83,558.333 2580,555.5C 2580.5,552.333 2582.33,550.5 2585.5,550C 2587.04,548.421 2588.21,546.587 2589,544.5C 2591.18,543.072 2593.18,541.405 2595,539.5C 2598.03,532.155 2601.87,525.322 2606.5,519C 2609.83,518.333 2613.17,518.333 2616.5,519C 2615.55,524.475 2614.22,530.142 2612.5,536C 2612.64,537.226 2612.98,538.393 2613.5,539.5C 2611.3,548.401 2610.64,557.401 2611.5,566.5C 2611.39,569.668 2610.22,572.335 2608,574.5C 2607.16,576.821 2606.83,579.155 2607,581.5C 2622.99,578.924 2636.49,571.758 2647.5,560C 2650.11,559.361 2652.45,558.194 2654.5,556.5C 2662.98,549.899 2670.81,542.566 2678,534.5C 2685.8,524.891 2693.3,515.224 2700.5,505.5 Z M 361.5,1685.5 C 361.238,1684.02 361.571,1682.69 362.5,1681.5C 362.833,1682.17 363.167,1682.83 363.5,1683.5C 363.253,1684.71 362.586,1685.38 361.5,1685.5 Z M 476.5,2199.5 C 467.369,2179.92 462.869,2159.25 463,2137.5C 464,2140.83 465,2144.17 466,2147.5C 466.667,2141.83 466.667,2136.17 466,2130.5C 463.929,2129.64 462.262,2128.3 461,2126.5C 460.208,2121.43 459.541,2116.43 459,2111.5C 460.29,2113.79 461.957,2115.79 464,2117.5C 464.424,2102.39 465.09,2087.39 466,2072.5C 468.022,2089.8 470.855,2106.96 474.5,2124C 473.854,2127.81 473.354,2131.65 473,2135.5C 472.457,2133.37 471.624,2131.37 470.5,2129.5C 470.167,2130.17 469.833,2130.83 469.5,2131.5C 471.98,2154.15 474.313,2176.82 476.5,2199.5 Z M 442.5,2109.5 C 443.725,2110.15 444.392,2111.32 444.5,2113C 446.766,2124.88 448.933,2136.71 451,2148.5C 445.287,2136.1 442.454,2123.1 442.5,2109.5 Z M 401.5,2204.5 C 402.496,2204.41 403.329,2204.75 404,2205.5C 411.494,2219.98 420.16,2233.64 430,2246.5C 430.608,2248.15 431.108,2249.82 431.5,2251.5C 426.329,2246.48 421.163,2241.48 416,2236.5C 410.289,2226.19 405.456,2215.52 401.5,2204.5 Z M 426.5,2253.5 C 429.431,2256.25 432.598,2258.92 436,2261.5C 437.467,2264.76 438.633,2268.09 439.5,2271.5C 434.446,2265.96 430.113,2259.96 426.5,2253.5 Z M 442.5,2256.5 C 443.289,2256.78 443.956,2257.28 444.5,2258C 443.184,2258.53 442.517,2258.03 442.5,2256.5 Z"/></g>
<g><path style="opacity:0.008" fill="#000000" d="M 2777.5,744.5 C 2778.39,743.224 2779.39,743.224 2780.5,744.5C 2779.58,745.562 2778.58,745.562 2777.5,744.5 Z"/></g>
<g><path style="opacity:0.015" fill="#000000" d="M 2782.5,754.5 C 2784.91,755.406 2785.75,757.072 2785,759.5C 2783.91,757.922 2783.07,756.255 2782.5,754.5 Z"/></g>
<g><path style="opacity:0.132" fill="#000000" d="M 2793.5,797.5 C 2796.69,798.356 2799.35,800.023 2801.5,802.5C 2799.05,803.314 2796.72,802.814 2794.5,801C 2793.66,799.989 2793.33,798.822 2793.5,797.5 Z"/></g>
<g><path style="opacity:0.194" fill="#000000" d="M 2794.5,805.5 C 2799.63,807.058 2803.63,810.058 2806.5,814.5C 2806.17,814.833 2805.83,815.167 2805.5,815.5C 2802.5,813.667 2799.5,811.833 2796.5,810C 2794.96,808.89 2794.3,807.39 2794.5,805.5 Z"/></g>
<g><path style="opacity:0.104" fill="#000000" d="M 2772.5,836.5 C 2774.3,840.56 2776.96,844.06 2780.5,847C 2778.98,848.009 2777.31,848.509 2775.5,848.5C 2774.5,844.5 2773.5,840.5 2772.5,836.5 Z"/></g>
<g><path style="opacity:0.099" fill="#000000" d="M 2782.5,847.5 C 2783.87,847.343 2785.21,847.51 2786.5,848C 2787.83,850.333 2787.17,851.333 2784.5,851C 2783.18,850.184 2782.51,849.017 2782.5,847.5 Z"/></g>
<g><path style="opacity:0.161" fill="#000000" d="M 2775.5,875.5 C 2777.55,877.048 2779.21,879.048 2780.5,881.5C 2779,882.052 2777.33,882.052 2775.5,881.5C 2775.5,879.5 2775.5,877.5 2775.5,875.5 Z"/></g>
<g><path style="opacity:0.066" fill="#000000" d="M 2385.5,1012.5 C 2386.78,1013.71 2386.78,1015.04 2385.5,1016.5C 2384.37,1015.19 2384.37,1013.86 2385.5,1012.5 Z"/></g>
<g><path style="opacity:0.024" fill="#000000" d="M 2370.5,1021.5 C 2371.21,1020.6 2372.21,1020.26 2373.5,1020.5C 2373.65,1021.55 2373.48,1022.55 2373,1023.5C 2372.29,1022.62 2371.46,1021.95 2370.5,1021.5 Z"/></g>
<g><path style="opacity:0.024" fill="#000000" d="M 2306.5,1080.5 C 2308.62,1081.37 2308.79,1082.37 2307,1083.5C 2305.32,1082.82 2305.15,1081.82 2306.5,1080.5 Z"/></g>
<g><path style="opacity:0.01" fill="#000000" d="M 2298.5,1086.5 C 2299.38,1086.37 2300.04,1086.7 2300.5,1087.5C 2298.19,1088.87 2297.52,1088.54 2298.5,1086.5 Z"/></g>
<g><path style="opacity:0.133" fill="#000000" d="M 325.5,1564.5 C 327.441,1565.64 327.608,1567.3 326,1569.5C 322.304,1572.54 319.304,1576.2 317,1580.5C 315.373,1582.31 313.873,1582.48 312.5,1581C 316.672,1575.33 321.006,1569.83 325.5,1564.5 Z"/></g>
<g><path style="opacity:0.016" fill="#000000" d="M 326.5,1604.5 C 328.088,1605.64 328.421,1606.97 327.5,1608.5C 326.571,1607.31 326.238,1605.98 326.5,1604.5 Z"/></g>
<g><path style="opacity:0.063" fill="#000000" d="M 336.5,1715.5 C 337.782,1716.71 337.782,1718.04 336.5,1719.5C 335.374,1718.19 335.374,1716.86 336.5,1715.5 Z"/></g>
<g><path style="opacity:0.091" fill="#000000" d="M 327.5,1991.5 C 328.222,1991.92 328.722,1992.58 329,1993.5C 329.667,2012.83 329.667,2032.17 329,2051.5C 326.974,2031.52 326.474,2011.52 327.5,1991.5 Z"/></g>
<g><path style="opacity:0.01" fill="#000000" d="M 328.5,2073.5 C 329.117,2073.61 329.617,2073.94 330,2074.5C 330.818,2077.23 330.652,2079.89 329.5,2082.5C 328.516,2079.57 328.183,2076.57 328.5,2073.5 Z"/></g>
<g><path style="opacity:0.041" fill="#000000" d="M 467.5,2114.5 C 469.461,2116.12 470.794,2118.29 471.5,2121C 470.874,2121.75 470.374,2122.58 470,2123.5C 468.097,2120.83 467.264,2117.83 467.5,2114.5 Z"/></g>
<g><path style="opacity:0.006" fill="#000000" d="M 503.5,2240.5 C 502.475,2240.1 502.308,2239.44 503,2238.5C 503.464,2239.09 503.631,2239.76 503.5,2240.5 Z"/></g>
<g><path style="opacity:0.014" fill="#000000" d="M 503.5,2240.5 C 505.085,2241 505.585,2242 505,2243.5C 503.961,2242.76 503.461,2241.76 503.5,2240.5 Z"/></g>
<g><path style="opacity:0.123" fill="#000000" d="M 519.5,2302.5 C 522.306,2303.71 522.972,2305.71 521.5,2308.5C 518.513,2307.21 517.846,2305.21 519.5,2302.5 Z"/></g>
</svg>
