<?xml version="1.0" encoding="UTF-8"?>
<!DOCTYPE svg PUBLIC "-//W3C//DTD SVG 1.1//EN" "http://www.w3.org/Graphics/SVG/1.1/DTD/svg11.dtd">
<svg xmlns="http://www.w3.org/2000/svg" version="1.1" width="2900px" height="2900px" style="shape-rendering:geometricPrecision; text-rendering:geometricPrecision; image-rendering:optimizeQuality; fill-rule:evenodd; clip-rule:evenodd" xmlns:xlink="http://www.w3.org/1999/xlink">
<g><path style="opacity:0.894" fill="#fbfcfb" d="M -0.5,-0.5 C 966.167,-0.5 1932.83,-0.5 2899.5,-0.5C 2899.5,0.833333 2899.5,2.16667 2899.5,3.5C 1934.17,3.5 968.833,3.5 3.5,3.5C 3.5,968.833 3.5,1934.17 3.5,2899.5C 2.16667,2899.5 0.833333,2899.5 -0.5,2899.5C -0.5,1932.83 -0.5,966.167 -0.5,-0.5 Z"/></g>
<g><path style="opacity:0.997" fill="#000000" d="M 1317.5,278.5 C 1346.09,277.115 1361.76,290.615 1364.5,319C 1363.9,328.314 1362.4,337.481 1360,346.5C 1350.73,374.971 1341.07,403.305 1331,431.5C 1321.86,460.113 1317.2,489.446 1317,519.5C 1315.41,565.503 1313.75,611.503 1312,657.5C 1310.44,690.632 1307.44,723.632 1303,756.5C 1297.59,787.546 1291.92,818.546 1286,849.5C 1278.91,888.374 1277.91,927.374 1283,966.5C 1284.76,976.885 1287.76,986.885 1292,996.5C 1297.86,1006.89 1303.19,1017.55 1308,1028.5C 1310.75,1037.36 1312.75,1046.36 1314,1055.5C 1327.39,1062.11 1340.89,1068.61 1354.5,1075C 1363.34,1080.25 1372,1085.75 1380.5,1091.5C 1473.51,1052 1569.84,1040.83 1669.5,1058C 1750.98,1069.26 1825.98,1097.26 1894.5,1142C 1918.78,1159.6 1941.28,1179.43 1962,1201.5C 2059.26,1316.24 2137.1,1443.58 2195.5,1583.5C 2201.34,1579.75 2207.34,1576.25 2213.5,1573C 2243.29,1546.31 2277.62,1538.31 2316.5,1549C 2364.18,1564.02 2394.01,1595.85 2406,1644.5C 2414.62,1679.82 2414.62,1715.15 2406,1750.5C 2393.54,1801.08 2375.21,1849.41 2351,1895.5C 2318.59,1956.55 2279.92,2013.22 2235,2065.5C 2231.48,2068.27 2228.14,2071.27 2225,2074.5C 2216.26,2102.71 2207.93,2131.05 2200,2159.5C 2192.99,2185.22 2188.82,2211.39 2187.5,2238C 2188.59,2258.09 2190.59,2278.09 2193.5,2298C 2194.12,2308.81 2190.46,2317.81 2182.5,2325C 2155.6,2342.18 2126.1,2350.02 2094,2348.5C 2071.03,2346.95 2048.2,2348.12 2025.5,2352C 2003.09,2358.37 1980.76,2365.04 1958.5,2372C 1838.89,2401.66 1717.89,2423.66 1595.5,2438C 1561.35,2443.96 1528.52,2439.79 1497,2425.5C 1490.85,2433.8 1485.18,2442.46 1480,2451.5C 1472.06,2466.38 1464.4,2481.38 1457,2496.5C 1450.97,2504.93 1443.14,2511.1 1433.5,2515C 1411.37,2521.77 1388.7,2525.1 1365.5,2525C 1323.78,2527.32 1282.12,2526.65 1240.5,2523C 1223.41,2521.72 1206.75,2518.38 1190.5,2513C 1164.87,2502.1 1157.7,2483.93 1169,2458.5C 1176.32,2446.51 1185.15,2435.67 1195.5,2426C 1211.6,2412.57 1227.1,2398.4 1242,2383.5C 1252.02,2369.79 1258.35,2354.46 1261,2337.5C 1264.61,2317.21 1267.95,2296.88 1271,2276.5C 1272.53,2268.05 1274.53,2259.72 1277,2251.5C 1279.23,2241.05 1279.73,2230.55 1278.5,2220C 1278.17,2219.5 1277.83,2219 1277.5,2218.5C 1225.34,2238.22 1171.67,2244.38 1116.5,2237C 1102.08,2234.19 1088.58,2229.03 1076,2221.5C 1081.68,2253.63 1086.35,2285.96 1090,2318.5C 1091.48,2337.14 1091.82,2355.81 1091,2374.5C 1090,2384.17 1087,2393.17 1082,2401.5C 1029.55,2473.92 958.38,2505.42 868.5,2496C 850.357,2495.88 833.357,2491.55 817.5,2483C 805.666,2474.86 798.166,2463.69 795,2449.5C 792.397,2429.32 793.397,2409.32 798,2389.5C 803.476,2367.04 816.642,2350.87 837.5,2341C 847.974,2337.73 858.307,2334.06 868.5,2330C 876.667,2325.83 882.833,2319.67 887,2311.5C 891.002,2302.49 894.002,2293.16 896,2283.5C 901.851,2251.58 907.185,2219.58 912,2187.5C 914.451,2152.64 907.117,2119.97 890,2089.5C 855.889,2036.61 827.556,1980.61 805,1921.5C 792.456,1888.28 785.623,1853.95 784.5,1818.5C 787.033,1772.37 796.533,1727.7 813,1684.5C 830.71,1641.04 847.043,1597.04 862,1552.5C 864.471,1544.28 866.471,1535.95 868,1527.5C 870.488,1502.21 872.488,1476.87 874,1451.5C 878.774,1428.51 884.774,1405.84 892,1383.5C 896.103,1366.6 896.436,1349.6 893,1332.5C 889.62,1296.63 879.286,1262.96 862,1231.5C 824.239,1173.4 777.739,1123.23 722.5,1081C 692.554,1060.05 662.888,1038.72 633.5,1017C 572.91,971.751 522.076,917.584 481,854.5C 437.255,779.01 398.255,701.01 364,620.5C 355.607,597.927 348.607,574.927 343,551.5C 333.769,527.037 325.102,502.37 317,477.5C 311.812,461.477 310.145,445.144 312,428.5C 316.526,411.312 327.693,402.145 345.5,401C 356.618,400.531 367.618,401.531 378.5,404C 412.038,413.179 444.372,425.513 475.5,441C 579.18,493.135 679.514,550.468 776.5,613C 817.563,640.046 855.063,671.546 889,707.5C 920.983,746.147 950.65,786.48 978,828.5C 1004.77,868.357 1029.27,909.691 1051.5,952.5C 1057.35,950.078 1063.35,949.411 1069.5,950.5C 1058.87,902.923 1053.2,854.756 1052.5,806C 1051.91,776.008 1055.41,746.508 1063,717.5C 1086.42,640.897 1114.75,566.23 1148,493.5C 1172.48,445.074 1200.15,398.74 1231,354.5C 1247.19,331.653 1266.02,311.153 1287.5,293C 1296.67,286.247 1306.67,281.414 1317.5,278.5 Z M 1759.5,2190.5 C 1760.24,2190.37 1760.91,2190.54 1761.5,2191C 1754.97,2202.04 1748.63,2213.2 1742.5,2224.5C 1740.85,2225.65 1739.35,2226.98 1738,2228.5C 1736.12,2236.76 1732.29,2243.93 1726.5,2250C 1703.1,2256.02 1679.77,2262.35 1656.5,2269C 1630.41,2273.89 1604.41,2278.89 1578.5,2284C 1583.83,2278 1589.17,2272 1594.5,2266C 1598.79,2264.85 1602.46,2262.69 1605.5,2259.5C 1611.82,2252.19 1617.65,2244.53 1623,2236.5C 1628.97,2231.53 1634.64,2226.2 1640,2220.5C 1641.63,2217.39 1641.79,2214.22 1640.5,2211C 1640.99,2209.02 1641.99,2207.35 1643.5,2206C 1677.19,2205.48 1710.52,2201.81 1743.5,2195C 1749.04,2193.79 1754.37,2192.29 1759.5,2190.5 Z"/></g>
</svg>
