<?xml version="1.0" encoding="UTF-8"?>
<!DOCTYPE svg PUBLIC "-//W3C//DTD SVG 1.1//EN" "http://www.w3.org/Graphics/SVG/1.1/DTD/svg11.dtd">
<svg xmlns="http://www.w3.org/2000/svg" version="1.1" width="2900px" height="2900px" style="shape-rendering:geometricPrecision; text-rendering:geometricPrecision; image-rendering:optimizeQuality; fill-rule:evenodd; clip-rule:evenodd" xmlns:xlink="http://www.w3.org/1999/xlink">
<g><path style="opacity:0.992" fill="#000000" d="M 771.5,256.5 C 809.324,255.237 846.991,257.071 884.5,262C 947.961,271.627 1010.96,283.293 1073.5,297C 1078.26,298.022 1082.92,299.356 1087.5,301C 1097.67,305.723 1108,310.057 1118.5,314C 1144.31,318.715 1169.31,326.048 1193.5,336C 1212.17,341.333 1230.83,346.667 1249.5,352C 1268.8,359.991 1288.13,367.991 1307.5,376C 1320.76,383.092 1334.42,389.425 1348.5,395C 1367.14,404.652 1385.8,414.318 1404.5,424C 1418.67,432.918 1433,441.585 1447.5,450C 1466.11,462.625 1484.11,475.959 1501.5,490C 1525.54,511.042 1549.87,531.708 1574.5,552C 1611.14,575.636 1645.14,602.636 1676.5,633C 1700.03,656.862 1723.86,680.362 1748,703.5C 1761.78,725.61 1777.44,746.276 1795,765.5C 1800.85,775.857 1806.18,786.523 1811,797.5C 1837.85,842.526 1864.18,887.859 1890,933.5C 1918.61,992.073 1950.28,1048.74 1985,1103.5C 1998.05,1120.89 2010.72,1138.55 2023,1156.5C 2028.15,1166.13 2033.82,1175.47 2040,1184.5C 2050.16,1204.82 2060.82,1224.82 2072,1244.5C 2105.21,1287.89 2136.21,1332.89 2165,1379.5C 2170.39,1391.29 2176.06,1402.96 2182,1414.5C 2192.92,1430.66 2203.58,1447 2214,1463.5C 2226.7,1489.23 2239.7,1514.9 2253,1540.5C 2265.42,1559.34 2275.75,1579.34 2284,1600.5C 2289.72,1607.89 2295.06,1615.56 2300,1623.5C 2311.77,1646.92 2324.77,1669.59 2339,1691.5C 2359.26,1728.36 2379.26,1765.36 2399,1802.5C 2448.28,1882.54 2493.28,1965.21 2534,2050.5C 2541,2068.5 2547,2086.84 2552,2105.5C 2575.35,2148.2 2598.68,2190.87 2622,2233.5C 2632.58,2256.89 2642.58,2280.55 2652,2304.5C 2679.23,2359.63 2705.9,2414.96 2732,2470.5C 2739.73,2487.35 2746.06,2504.68 2751,2522.5C 2751.67,2530.83 2751.67,2539.17 2751,2547.5C 2746.71,2567.23 2735.21,2573.06 2716.5,2565C 2703.62,2556.46 2692.28,2546.12 2682.5,2534C 2677.36,2530.36 2672.36,2526.52 2667.5,2522.5C 2663.94,2515.04 2660.1,2507.71 2656,2500.5C 2639.11,2473.94 2622.28,2447.27 2605.5,2420.5C 2604.51,2423.93 2603.84,2427.43 2603.5,2431C 2604.65,2444.09 2606.82,2456.92 2610,2469.5C 2612.52,2481.58 2609.69,2492.08 2601.5,2501C 2600.17,2501.67 2598.83,2502.33 2597.5,2503C 2590.48,2503.88 2583.48,2504.88 2576.5,2506C 2575.83,2507 2575.17,2508 2574.5,2509C 2576.09,2516.85 2577.92,2524.68 2580,2532.5C 2590.13,2561.56 2599.46,2590.89 2608,2620.5C 2610.32,2632.26 2612.15,2644.1 2613.5,2656C 2613.42,2667.49 2608.42,2676.16 2598.5,2682C 2589.4,2685.54 2580.73,2684.54 2572.5,2679C 2565.93,2675.1 2559.93,2670.43 2554.5,2665C 2537.58,2641.91 2521.25,2618.41 2505.5,2594.5C 2499.14,2579.35 2490.64,2565.68 2480,2553.5C 2479.56,2557.21 2479.89,2560.88 2481,2564.5C 2497.01,2608.56 2508.01,2653.89 2514,2700.5C 2515.63,2712.51 2515.63,2724.51 2514,2736.5C 2511.61,2747.89 2504.78,2755.05 2493.5,2758C 2485.17,2759.32 2477.17,2758.32 2469.5,2755C 2464.04,2751.21 2458.88,2747.05 2454,2742.5C 2444.84,2730.85 2436.18,2718.85 2428,2706.5C 2412.63,2679.15 2397.3,2651.81 2382,2624.5C 2359.86,2579.89 2340.19,2534.22 2323,2487.5C 2309.17,2457.34 2296.5,2426.67 2285,2395.5C 2276.62,2377.03 2268.62,2358.36 2261,2339.5C 2260.38,2337.88 2259.38,2336.55 2258,2335.5C 2241.67,2298.83 2225.33,2262.17 2209,2225.5C 2201.07,2205.38 2193.74,2185.05 2187,2164.5C 2179.8,2148.76 2173.13,2132.76 2167,2116.5C 2166.89,2119.83 2167.22,2123.17 2168,2126.5C 2176.05,2162.71 2184.72,2198.71 2194,2234.5C 2202.42,2257.83 2209.75,2281.5 2216,2305.5C 2231.49,2377.15 2247.16,2448.81 2263,2520.5C 2273.63,2567.29 2280.46,2614.62 2283.5,2662.5C 2285.49,2674.62 2287.16,2686.78 2288.5,2699C 2284.72,2713.56 2275.39,2719.56 2260.5,2717C 2253.1,2713.6 2247.27,2708.44 2243,2701.5C 2218,2654.48 2197.67,2605.48 2182,2554.5C 2174.59,2524.95 2165.59,2495.95 2155,2467.5C 2150.25,2449.76 2145.25,2432.09 2140,2414.5C 2137,2407.5 2134,2400.5 2131,2393.5C 2128.03,2373.97 2123.03,2354.97 2116,2336.5C 2113.26,2330.01 2109.76,2324.01 2105.5,2318.5C 2104.4,2324.79 2103.57,2331.13 2103,2337.5C 2101.47,2382.97 2098.13,2428.31 2093,2473.5C 2091.59,2480.56 2089.92,2487.56 2088,2494.5C 2079.54,2507.96 2068.87,2509.96 2056,2500.5C 2042.18,2481.39 2034.52,2460.06 2033,2436.5C 2030.59,2429.27 2028.59,2421.94 2027,2414.5C 2023,2367.54 2017.34,2320.87 2010,2274.5C 2004.67,2209.91 2000.67,2145.24 1998,2080.5C 1996.62,2081.55 1995.62,2082.88 1995,2084.5C 1994.64,2095.85 1993.97,2107.19 1993,2118.5C 1988.8,2158.15 1984.8,2197.82 1981,2237.5C 1976,2268.83 1971,2300.17 1966,2331.5C 1963.13,2344.47 1958.13,2356.47 1951,2367.5C 1945.62,2373.96 1938.79,2376.46 1930.5,2375C 1928.71,2374.22 1927.21,2373.05 1926,2371.5C 1919.28,2359.74 1913.95,2347.41 1910,2334.5C 1902.21,2297.55 1897.21,2260.22 1895,2222.5C 1887.41,2095.22 1879.08,1967.88 1870,1840.5C 1868.84,1835.17 1866.84,1830.17 1864,1825.5C 1842.21,1808.71 1823.55,1789.05 1808,1766.5C 1802.7,1756.73 1796.53,1747.56 1789.5,1739C 1787.45,1738.68 1785.45,1739.01 1783.5,1740C 1770.95,1747.93 1757.29,1750.59 1742.5,1748C 1735.48,1747.77 1728.81,1746.1 1722.5,1743C 1717.83,1742.33 1713.17,1742.33 1708.5,1743C 1700.94,1745.45 1693.61,1748.45 1686.5,1752C 1672.84,1761.17 1658.84,1769.83 1644.5,1778C 1636.92,1781.87 1629.09,1785.04 1621,1787.5C 1620.68,1788.91 1621.02,1790.24 1622,1791.5C 1631.36,1799.86 1640.36,1808.52 1649,1817.5C 1666.34,1844.14 1671.01,1872.81 1663,1903.5C 1658.62,1911.58 1652.29,1913.58 1644,1909.5C 1637.33,1891.82 1628.33,1875.49 1617,1860.5C 1591.67,1833.29 1561.17,1825.46 1525.5,1837C 1521.08,1838.81 1516.75,1840.81 1512.5,1843C 1487.62,1859.54 1467.12,1880.38 1451,1905.5C 1439.8,1915.7 1430.46,1927.37 1423,1940.5C 1418.17,1946.85 1412,1949.02 1404.5,1947C 1403.67,1946.17 1402.83,1945.33 1402,1944.5C 1401.61,1932.79 1402.28,1921.12 1404,1909.5C 1409.53,1889.21 1416.36,1869.38 1424.5,1850C 1424.39,1848.72 1423.72,1847.89 1422.5,1847.5C 1420.08,1848.31 1417.75,1849.31 1415.5,1850.5C 1405.97,1857.86 1396.13,1864.86 1386,1871.5C 1380.84,1881.66 1373.84,1890.33 1365,1897.5C 1357.48,1906.54 1351.48,1916.54 1347,1927.5C 1343.44,1932.4 1338.77,1935.73 1333,1937.5C 1325.32,1935.13 1321.32,1929.79 1321,1921.5C 1321.42,1894.4 1327.09,1868.4 1338,1843.5C 1343.14,1837.02 1348.3,1830.52 1353.5,1824C 1343.84,1824.41 1335.67,1828.24 1329,1835.5C 1316.87,1857.43 1305.54,1879.76 1295,1902.5C 1289.56,1909.41 1283.56,1910.08 1277,1904.5C 1270.48,1889.04 1268.82,1873.04 1272,1856.5C 1273.38,1848.34 1275.04,1840.34 1277,1832.5C 1276.11,1831.29 1275.27,1831.29 1274.5,1832.5C 1270.1,1843.23 1263.27,1845.23 1254,1838.5C 1252.3,1832.61 1251.13,1826.61 1250.5,1820.5C 1253.4,1802.96 1258.23,1785.96 1265,1769.5C 1271.27,1758.94 1276.93,1748.27 1282,1737.5C 1260.92,1756.33 1248.92,1780 1246,1808.5C 1239.84,1823.98 1235.51,1839.98 1233,1856.5C 1225.4,1861.03 1218.4,1860.03 1212,1853.5C 1207.99,1848.49 1205.33,1842.82 1204,1836.5C 1202.88,1813.4 1203.88,1790.4 1207,1767.5C 1209.91,1748.41 1216.91,1731.07 1228,1715.5C 1231.33,1710.83 1235.33,1706.83 1240,1703.5C 1241.81,1701.28 1242.31,1698.95 1241.5,1696.5C 1232.88,1699.32 1224.55,1702.82 1216.5,1707C 1208.03,1714.14 1199.03,1720.47 1189.5,1726C 1170.04,1743.09 1159.87,1764.59 1159,1790.5C 1158.13,1798.7 1153.79,1803.7 1146,1805.5C 1142.14,1805.41 1139.14,1803.74 1137,1800.5C 1118.3,1769.46 1121.3,1740.8 1146,1714.5C 1150.32,1705.2 1154.65,1695.86 1159,1686.5C 1169.24,1670.94 1183.07,1659.77 1200.5,1653C 1217.07,1649.24 1233.73,1645.91 1250.5,1643C 1270.41,1638.11 1290.08,1632.44 1309.5,1626C 1301.87,1615.78 1297.37,1604.28 1296,1591.5C 1295.33,1590.17 1294.67,1588.83 1294,1587.5C 1264.98,1568.8 1236.81,1548.97 1209.5,1528C 1191.93,1520.55 1175.26,1511.55 1159.5,1501C 1111.71,1467.31 1067.21,1429.47 1026,1387.5C 1021.76,1382.25 1017.09,1377.25 1012,1372.5C 1005.35,1363.85 998.014,1355.85 990,1348.5C 982.751,1338.25 974.417,1328.91 965,1320.5C 959.027,1311.87 952.361,1303.87 945,1296.5C 915.824,1246.83 888.157,1196.16 862,1144.5C 845.929,1102.62 829.262,1060.96 812,1019.5C 806.512,1003.88 801.179,988.215 796,972.5C 788.094,943.638 782.761,914.304 780,884.5C 779.562,881.624 778.562,878.957 777,876.5C 749.668,850.168 722.668,823.501 696,796.5C 687.919,786.761 680.253,776.761 673,766.5C 667.905,759.076 663.238,751.41 659,743.5C 653.821,737.141 647.654,732.141 640.5,728.5C 638.617,728.876 637.117,729.876 636,731.5C 627.097,755.223 616.097,777.89 603,799.5C 596.286,807.212 589.953,815.212 584,823.5C 559.648,846.249 532.814,865.415 503.5,881C 489.373,886.865 474.706,890.532 459.5,892C 448.631,896.237 444.464,904.07 447,915.5C 454.082,929.671 460.082,944.338 465,959.5C 468.898,972.998 469.898,986.665 468,1000.5C 465.376,1008.79 460.209,1014.96 452.5,1019C 438.69,1024.65 424.69,1024.98 410.5,1020C 396.2,1013.18 382.867,1004.85 370.5,995C 363.748,988.244 356.414,982.244 348.5,977C 312.895,942.653 288.395,901.486 275,853.5C 268.726,832.403 263.392,811.07 259,789.5C 255.676,749.171 255.676,708.838 259,668.5C 260.053,658.795 261.386,649.128 263,639.5C 266.534,632.898 268.867,625.898 270,618.5C 267.34,567.108 276.006,517.775 296,470.5C 309.966,443.199 327.799,418.699 349.5,397C 394.32,356.901 444.987,325.901 501.5,304C 546.327,289.375 591.994,278.709 638.5,272C 683.032,267.224 727.365,262.057 771.5,256.5 Z M 1409.5,1712.5 C 1415.23,1712.28 1420.9,1712.78 1426.5,1714C 1432.11,1716.14 1437.45,1718.81 1442.5,1722C 1448.72,1729.21 1454.55,1736.71 1460,1744.5C 1460.74,1746.44 1460.58,1748.27 1459.5,1750C 1457.67,1750.75 1456,1751.75 1454.5,1753C 1424.69,1757.98 1394.69,1760.98 1364.5,1762C 1349.29,1767.59 1333.62,1770.92 1317.5,1772C 1326.72,1765.78 1335.06,1758.45 1342.5,1750C 1356.64,1738.76 1371.64,1728.76 1387.5,1720C 1394.85,1717.16 1402.18,1714.66 1409.5,1712.5 Z"/></g>
<g><path style="opacity:0.299" fill="#000000" d="M 2684.5,503.5 C 2685.5,503.5 2686.5,503.5 2687.5,503.5C 2687.5,504.5 2687.5,505.5 2687.5,506.5C 2686.5,506.5 2685.5,506.5 2684.5,506.5C 2684.5,505.5 2684.5,504.5 2684.5,503.5 Z"/></g>
</svg>
