<?xml version="1.0" encoding="UTF-8"?>
<!DOCTYPE svg PUBLIC "-//W3C//DTD SVG 1.1//EN" "http://www.w3.org/Graphics/SVG/1.1/DTD/svg11.dtd">
<svg xmlns="http://www.w3.org/2000/svg" version="1.1" width="2900px" height="2900px" style="shape-rendering:geometricPrecision; text-rendering:geometricPrecision; image-rendering:optimizeQuality; fill-rule:evenodd; clip-rule:evenodd" xmlns:xlink="http://www.w3.org/1999/xlink">
<g><path style="opacity:0.993" fill="#000000" d="M 1218.5,1771.5 C 1216.01,1787.04 1214.51,1802.7 1214,1818.5C 1212.99,1819.34 1211.82,1819.67 1210.5,1819.5C 1207.31,1846.58 1201.15,1872.91 1192,1898.5C 1181.27,1948.17 1168.27,1997.17 1153,2045.5C 1148.09,2054.98 1142.92,2064.32 1137.5,2073.5C 1136.51,2074.8 1135.51,2076.13 1134.5,2077.5C 1131.48,2081.52 1128.48,2085.52 1125.5,2089.5C 1120.01,2094.47 1116.01,2100.47 1113.5,2107.5C 1109.45,2113.9 1105.78,2120.57 1102.5,2127.5C 1096.52,2137.46 1090.52,2147.46 1084.5,2157.5C 1083.66,2157.84 1083.33,2158.51 1083.5,2159.5C 1082.66,2159.84 1082.33,2160.51 1082.5,2161.5C 1078.45,2165.91 1075.12,2170.91 1072.5,2176.5C 1071.09,2176.97 1070.43,2177.97 1070.5,2179.5C 1069.66,2179.84 1069.33,2180.51 1069.5,2181.5C 1063.66,2191.48 1057.33,2200.48 1050.5,2208.5C 1049.09,2208.97 1048.43,2209.97 1048.5,2211.5C 1044.04,2215.16 1041.04,2219.83 1039.5,2225.5C 1035.86,2231.33 1033.36,2237.67 1032,2244.5C 1026.74,2288.63 1023.24,2332.8 1021.5,2377C 1022.13,2383.38 1022.79,2389.71 1023.5,2396C 1023.03,2406.26 1023.03,2416.59 1023.5,2427C 1024.62,2433.15 1025.62,2439.31 1026.5,2445.5C 1026.39,2446.44 1026.06,2447.28 1025.5,2448C 1027.73,2449.23 1029.23,2451.06 1030,2453.5C 1031.4,2468.79 1035.74,2483.12 1043,2496.5C 1047.04,2501.1 1051.87,2504.6 1057.5,2507C 1074.95,2508.65 1091.29,2513.82 1106.5,2522.5C 1111.2,2521.26 1115.53,2522.09 1119.5,2525C 1131.4,2538.28 1137.56,2553.78 1138,2571.5C 1134.15,2576.68 1128.98,2578.51 1122.5,2577C 1119.66,2575.41 1116.99,2573.58 1114.5,2571.5C 1112.9,2584.89 1105.73,2589.22 1093,2584.5C 1091.13,2585.07 1089.3,2585.73 1087.5,2586.5C 1079.24,2584.82 1071.08,2582.82 1063,2580.5C 1060.65,2585.26 1056.82,2587.26 1051.5,2586.5C 1029.96,2583.12 1009.29,2576.95 989.5,2568C 987.291,2566.13 985.458,2563.96 984,2561.5C 979.119,2538.24 973.619,2515.08 967.5,2492C 962.185,2478.2 955.685,2465.04 948,2452.5C 941.013,2446.89 939.18,2439.89 942.5,2431.5C 941.533,2422.99 940.533,2414.49 939.5,2406C 948.687,2366.28 954.353,2326.11 956.5,2285.5C 956.411,2280.19 956.411,2274.86 956.5,2269.5C 954.153,2252.06 950.487,2234.73 945.5,2217.5C 946.146,2212.39 947.313,2207.39 949,2202.5C 952.414,2197.93 955.58,2193.27 958.5,2188.5C 960.992,2185.53 963.492,2182.53 966,2179.5C 970.098,2172.92 973.931,2166.26 977.5,2159.5C 981.867,2153.11 985.867,2146.45 989.5,2139.5C 993.75,2133.34 997.25,2126.67 1000,2119.5C 1011.49,2090.86 1020.83,2061.52 1028,2031.5C 1029,2020.65 1030.17,2009.81 1031.5,1999C 1030.17,1988.32 1030.17,1977.65 1031.5,1967C 1030.96,1961.54 1029.96,1956.21 1028.5,1951C 1029.02,1950.44 1029.36,1949.77 1029.5,1949C 1027.35,1942.77 1025.68,1936.44 1024.5,1930C 1025.06,1929.28 1025.39,1928.44 1025.5,1927.5C 1024.74,1921.66 1023.74,1915.83 1022.5,1910C 1023.42,1905.77 1022.92,1901.61 1021,1897.5C 1010.34,1871.17 998.338,1845.5 985,1820.5C 983.341,1817.57 983.008,1814.57 984,1811.5C 975.252,1796.33 966.252,1781.33 957,1766.5C 951.212,1752.92 944.879,1739.59 938,1726.5C 935.72,1722.55 933.053,1718.89 930,1715.5C 901.371,1733.78 875.371,1755.44 852,1780.5C 844.904,1791.69 838.571,1803.35 833,1815.5C 824.975,1837.24 815.975,1858.57 806,1879.5C 796.841,1905.65 786.507,1931.31 775,1956.5C 772.333,1959.17 769.667,1961.83 767,1964.5C 749.184,1989.66 729.851,2013.66 709,2036.5C 700.761,2049.98 694.427,2064.31 690,2079.5C 682.775,2107.41 675.108,2135.08 667,2162.5C 655.949,2211.2 643.949,2259.53 631,2307.5C 628.897,2314.65 629.23,2321.65 632,2328.5C 641.481,2343.4 643.815,2359.4 639,2376.5C 623.918,2426.26 613.418,2476.92 607.5,2528.5C 607.785,2539.55 610.618,2549.89 616,2559.5C 618.772,2563.94 621.106,2568.61 623,2573.5C 627.712,2578.54 632.045,2583.88 636,2589.5C 638.509,2595.62 638.509,2601.62 636,2607.5C 632.368,2613.69 628.368,2619.69 624,2625.5C 617.117,2632.18 610.617,2639.18 604.5,2646.5C 600.413,2648.69 596.079,2650.19 591.5,2651C 566.495,2654.66 541.328,2656.83 516,2657.5C 508.572,2656.12 502.572,2652.45 498,2646.5C 497.506,2644.87 497.34,2643.2 497.5,2641.5C 490.416,2641.42 486.416,2637.76 485.5,2630.5C 489.644,2618.01 493.144,2605.34 496,2592.5C 501.833,2580.83 508.666,2569.83 516.5,2559.5C 521.983,2513.93 530.15,2468.93 541,2424.5C 543.435,2421.07 545.435,2417.4 547,2413.5C 547.643,2404.97 549.143,2396.64 551.5,2388.5C 550.438,2385.9 550.272,2383.23 551,2380.5C 553.583,2377 555.916,2373.34 558,2369.5C 558.561,2359.73 558.395,2349.9 557.5,2340C 568.538,2299.13 574.538,2257.46 575.5,2215C 575.459,2198.01 575.459,2181.01 575.5,2164C 574.928,2156.99 574.261,2149.99 573.5,2143C 575.019,2137.28 575.853,2131.45 576,2125.5C 576.333,2112.17 576.667,2098.83 577,2085.5C 582.217,2050.87 587.217,2016.2 592,1981.5C 593.964,1959.06 594.964,1936.73 595,1914.5C 598.646,1896.56 603.312,1878.9 609,1861.5C 610.422,1834.18 610.755,1806.85 610,1779.5C 607.655,1759.93 604.822,1740.43 601.5,1721C 602.637,1713.52 603.137,1706.02 603,1698.5C 580.96,1721.25 556.46,1740.75 529.5,1757C 500.62,1770.61 471.62,1783.94 442.5,1797C 432.384,1801.21 422.051,1804.71 411.5,1807.5C 361.616,1800.48 319.449,1778.81 285,1742.5C 270.088,1722.92 254.422,1703.92 238,1685.5C 233.103,1674.96 234.103,1664.96 241,1655.5C 245.534,1651.3 249.701,1646.8 253.5,1642C 256.702,1640.52 260.036,1640.18 263.5,1641C 276.667,1658.17 289.833,1675.33 303,1692.5C 320.655,1710.16 339.488,1726.33 359.5,1741C 362.246,1742.75 365.246,1743.75 368.5,1744C 409.529,1749.62 448.863,1743.96 486.5,1727C 517.333,1712.16 544.833,1692.66 569,1668.5C 586.967,1647.24 602.967,1624.57 617,1600.5C 624.965,1560.31 634.965,1520.64 647,1481.5C 652.585,1472.66 657.919,1463.66 663,1454.5C 681.911,1429.01 700.578,1403.34 719,1377.5C 732,1357.17 745,1336.83 758,1316.5C 776.795,1291.37 798.628,1269.21 823.5,1250C 847.725,1225.1 873.725,1202.43 901.5,1182C 976.605,1172.57 1051.61,1162.24 1126.5,1151C 1183.45,1145.51 1240.45,1145.01 1297.5,1149.5C 1375.38,1147.5 1451.38,1134.66 1525.5,1111C 1540.39,1101.44 1554.73,1091.11 1568.5,1080C 1577.17,1074.33 1585.83,1068.67 1594.5,1063C 1600.88,1060.65 1607.21,1058.32 1613.5,1056C 1622.5,1055.38 1631.5,1054.71 1640.5,1054C 1646.43,1046.07 1653.09,1038.73 1660.5,1032C 1673.02,1022.24 1685.35,1012.24 1697.5,1002C 1707.28,993.554 1716.45,984.388 1725,974.5C 1732.76,955.548 1741.09,936.882 1750,918.5C 1761.69,888.424 1774.36,858.757 1788,829.5C 1795.28,790.363 1806.28,752.363 1821,715.5C 1823.52,702.114 1825.02,688.614 1825.5,675C 1824.49,659.837 1823.99,644.67 1824,629.5C 1826.89,616.512 1831.55,604.179 1838,592.5C 1852.29,570.09 1867.46,548.257 1883.5,527C 1891.27,523.115 1899.27,519.781 1907.5,517C 1913.19,508.488 1919.86,500.821 1927.5,494C 1947.17,478.333 1966.83,462.667 1986.5,447C 1998.28,435.221 2010.11,423.387 2022,411.5C 2032.82,396.686 2042.82,381.352 2052,365.5C 2059.2,351.577 2064.2,336.91 2067,321.5C 2069.82,315.561 2074.32,313.727 2080.5,316C 2082.81,317.637 2084.31,319.804 2085,322.5C 2090.26,346.866 2092.6,371.532 2092,396.5C 2103.34,375.483 2113.34,353.817 2122,331.5C 2126.19,326.954 2131.02,326.287 2136.5,329.5C 2137.58,330.665 2138.42,331.998 2139,333.5C 2139.03,358.838 2137.2,384.004 2133.5,409C 2136.86,447.607 2139.2,486.274 2140.5,525C 2153.66,532.415 2166.66,540.081 2179.5,548C 2201.79,565.287 2223.79,582.954 2245.5,601C 2253.97,608.561 2261.97,616.561 2269.5,625C 2280.32,628.454 2291.32,631.121 2302.5,633C 2331.19,634.382 2359.85,636.048 2388.5,638C 2407.69,639.809 2426.69,642.809 2445.5,647C 2456.81,648.255 2468.14,649.255 2479.5,650C 2480.83,650.667 2482.17,651.333 2483.5,652C 2484.24,661.101 2484.4,670.267 2484,679.5C 2486.93,690.277 2490.26,700.943 2494,711.5C 2496.34,723.661 2495.68,735.661 2492,747.5C 2489.76,751.748 2486.76,755.414 2483,758.5C 2481.67,761.167 2480.33,763.833 2479,766.5C 2474.33,780.511 2469.66,794.511 2465,808.5C 2441.88,825.952 2419.05,843.785 2396.5,862C 2395.17,862.667 2393.83,863.333 2392.5,864C 2378.62,865.554 2364.79,867.388 2351,869.5C 2349.86,869.089 2348.69,868.756 2347.5,868.5C 2330.98,870.391 2314.48,872.391 2298,874.5C 2297,874.167 2296,873.833 2295,873.5C 2266.32,880.308 2237.82,887.808 2209.5,896C 2196.05,898.539 2182.72,901.539 2169.5,905C 2163.7,911.474 2157.86,917.974 2152,924.5C 2142.64,937.188 2133.3,949.855 2124,962.5C 2123.85,1015.56 2122.18,1068.56 2119,1121.5C 2116.62,1128.6 2113.95,1135.6 2111,1142.5C 2108.88,1153.56 2109.21,1164.56 2112,1175.5C 2117.79,1193.18 2122.12,1211.18 2125,1229.5C 2125.43,1236.01 2125.93,1242.51 2126.5,1249C 2124.69,1271.14 2123.86,1293.31 2124,1315.5C 2137.29,1361.91 2144.96,1409.24 2147,1457.5C 2148.29,1471.66 2149.45,1485.82 2150.5,1500C 2148.36,1525.46 2147.19,1550.96 2147,1576.5C 2142.27,1601.35 2133.61,1624.68 2121,1646.5C 2108.18,1698.46 2095.68,1750.46 2083.5,1802.5C 2086.44,1829.1 2088.94,1855.77 2091,1882.5C 2093.99,1906.58 2097.49,1930.58 2101.5,1954.5C 2100.46,1964.18 2099.3,1973.85 2098,1983.5C 2079.56,2065.06 2063.89,2147.39 2051,2230.5C 2039.43,2309.59 2037.43,2388.92 2045,2468.5C 2050,2504.51 2055,2540.51 2060,2576.5C 2071.93,2600.88 2085.77,2624.04 2101.5,2646C 2111,2647.23 2120.33,2649.23 2129.5,2652C 2140.77,2657.38 2147.61,2666.21 2150,2678.5C 2151.83,2690.48 2153.17,2702.48 2154,2714.5C 2152.83,2718.33 2150.33,2720.83 2146.5,2722C 2124.16,2721.83 2101.83,2721.5 2079.5,2721C 2071.7,2724.71 2063.53,2727.21 2055,2728.5C 2049.49,2728.16 2044.33,2726.66 2039.5,2724C 2033.83,2719.67 2028.17,2715.33 2022.5,2711C 2014.24,2708.9 2005.91,2707.57 1997.5,2707C 2011.85,2721.52 2021.68,2738.68 2027,2758.5C 2029.34,2767.65 2025.84,2772.81 2016.5,2774C 2010.17,2774.73 2003.84,2775.4 1997.5,2776C 1991.21,2777.66 1984.87,2779.16 1978.5,2780.5C 1975.89,2780.44 1973.72,2779.44 1972,2777.5C 1967.92,2778.3 1963.75,2778.8 1959.5,2779C 1949.94,2782.94 1940.28,2786.61 1930.5,2790C 1926.91,2790.21 1923.41,2790.71 1920,2791.5C 1907.19,2789.34 1894.36,2787.17 1881.5,2785C 1878.17,2783.33 1874.83,2781.67 1871.5,2780C 1859.14,2776.83 1846.8,2773.49 1834.5,2770C 1832.67,2769.73 1831.17,2768.89 1830,2767.5C 1827.51,2760.56 1825.18,2753.56 1823,2746.5C 1823.64,2724.3 1816.81,2704.8 1802.5,2688C 1797.4,2687.25 1792.57,2685.75 1788,2683.5C 1786.33,2639.17 1783.67,2594.83 1780,2550.5C 1775.76,2521.37 1768.93,2492.87 1759.5,2465C 1761.27,2456.57 1761.77,2448.07 1761,2439.5C 1757.92,2418.48 1754.92,2397.48 1752,2376.5C 1748.83,2341.8 1745.16,2307.14 1741,2272.5C 1731.1,2203.66 1721.77,2134.66 1713,2065.5C 1709.9,2046.31 1705.9,2027.31 1701,2008.5C 1693.59,1992.02 1685.92,1975.68 1678,1959.5C 1669.81,1922.07 1662.98,1884.4 1657.5,1846.5C 1608.48,1850.43 1561.48,1842.59 1516.5,1823C 1470.88,1804.37 1428.55,1780.37 1389.5,1751C 1373.35,1738.09 1357.01,1725.42 1340.5,1713C 1314.3,1694.07 1285.3,1681.41 1253.5,1675C 1247.54,1673.67 1241.54,1673 1235.5,1673C 1224.77,1692.41 1218.94,1713.25 1218,1735.5C 1216.73,1747.14 1216.39,1758.81 1217,1770.5C 1217.38,1771.06 1217.88,1771.39 1218.5,1771.5 Z M 1914.5,1754.5 C 1915.75,1754.58 1916.58,1755.24 1917,1756.5C 1920,1772.35 1921.5,1788.35 1921.5,1804.5C 1919.7,1829.71 1917.37,1854.87 1914.5,1880C 1916.24,1899.81 1920.74,1918.98 1928,1937.5C 1929.65,1944.11 1930.98,1950.77 1932,1957.5C 1932.67,1981.17 1932.67,2004.83 1932,2028.5C 1927.99,2070.08 1925.49,2111.75 1924.5,2153.5C 1924.49,2167.85 1924.99,2182.19 1926,2196.5C 1928.55,2226.91 1931.71,2257.24 1935.5,2287.5C 1934.5,2331.85 1933,2376.19 1931,2420.5C 1927.73,2432.96 1924.07,2445.3 1920,2457.5C 1915.96,2468.1 1915.62,2478.77 1919,2489.5C 1929.27,2502.28 1935.27,2516.95 1937,2533.5C 1937.67,2539.83 1937.67,2546.17 1937,2552.5C 1934.49,2562.88 1931.82,2573.21 1929,2583.5C 1928.33,2588.18 1929.33,2592.51 1932,2596.5C 1936.71,2600.88 1941.71,2604.88 1947,2608.5C 1952.71,2632.01 1959.05,2655.35 1966,2678.5C 1968.39,2683.55 1971.56,2688.05 1975.5,2692C 1969.54,2690.57 1963.54,2688.91 1957.5,2687C 1955.41,2686.21 1953.58,2685.04 1952,2683.5C 1952.2,2667.1 1947.03,2652.6 1936.5,2640C 1930.78,2635.28 1924.78,2630.95 1918.5,2627C 1916.96,2625.42 1915.79,2623.59 1915,2621.5C 1907.86,2593.07 1898.52,2565.4 1887,2538.5C 1879.67,2516.5 1872.33,2494.5 1865,2472.5C 1864.14,2469.05 1863.64,2465.55 1863.5,2462C 1865.76,2450.27 1867.09,2438.44 1867.5,2426.5C 1867.38,2418.48 1866.88,2410.48 1866,2402.5C 1860.02,2374.95 1854.69,2347.29 1850,2319.5C 1851.74,2273.39 1846.74,2228.06 1835,2183.5C 1825.01,2132.62 1819.35,2081.28 1818,2029.5C 1820.86,2014.39 1824.19,1999.39 1828,1984.5C 1828.14,1970.83 1828.14,1957.16 1828,1943.5C 1835.18,1890.45 1844.51,1837.78 1856,1785.5C 1869.57,1778.63 1882.74,1771.13 1895.5,1763C 1901.88,1760.01 1908.21,1757.17 1914.5,1754.5 Z"/></g>
<g><path style="opacity:0.008" fill="#000000" d="M 1218.5,1770.5 C 1219.83,1771.17 1219.83,1771.17 1218.5,1770.5 Z"/></g>
<g><path style="opacity:0.004" fill="#000000" d="M 1027.5,1948.5 C 1028.83,1949.17 1028.83,1949.17 1027.5,1948.5 Z"/></g>
<g><path style="opacity:0.004" fill="#000000" d="M 1028.5,1957.5 C 1029.83,1958.17 1029.83,1958.17 1028.5,1957.5 Z"/></g>
<g><path style="opacity:0.004" fill="#000000" d="M 1022.5,2048.5 C 1023.83,2049.17 1023.83,2049.17 1022.5,2048.5 Z"/></g>
<g><path style="opacity:0.004" fill="#000000" d="M 1146.5,2059.5 C 1147.83,2060.17 1147.83,2060.17 1146.5,2059.5 Z"/></g>
<g><path style="opacity:0.004" fill="#000000" d="M 1145.5,2061.5 C 1146.83,2062.17 1146.83,2062.17 1145.5,2061.5 Z"/></g>
<g><path style="opacity:0.004" fill="#000000" d="M 1144.5,2063.5 C 1145.83,2064.17 1145.83,2064.17 1144.5,2063.5 Z"/></g>
<g><path style="opacity:0.004" fill="#000000" d="M 1137.5,2073.5 C 1138.83,2074.17 1138.83,2074.17 1137.5,2073.5 Z"/></g>
<g><path style="opacity:0.004" fill="#000000" d="M 1013.5,2076.5 C 1014.83,2077.17 1014.83,2077.17 1013.5,2076.5 Z"/></g>
<g><path style="opacity:0.004" fill="#000000" d="M 1134.5,2077.5 C 1135.83,2078.17 1135.83,2078.17 1134.5,2077.5 Z"/></g>
<g><path style="opacity:0.004" fill="#000000" d="M 1133.5,2079.5 C 1134.83,2080.17 1134.83,2080.17 1133.5,2079.5 Z"/></g>
<g><path style="opacity:0.004" fill="#000000" d="M 1126.5,2088.5 C 1127.83,2089.17 1127.83,2089.17 1126.5,2088.5 Z"/></g>
<g><path style="opacity:0.008" fill="#000000" d="M 1125.5,2089.5 C 1125.83,2089.5 1126.17,2089.5 1126.5,2089.5C 1126.31,2090.17 1125.98,2090.17 1125.5,2089.5 Z"/></g>
<g><path style="opacity:0.004" fill="#000000" d="M 1124.5,2091.5 C 1125.83,2092.17 1125.83,2092.17 1124.5,2091.5 Z"/></g>
<g><path style="opacity:0.004" fill="#000000" d="M 1124.5,2092.5 C 1123.83,2093.17 1123.83,2093.17 1124.5,2092.5 Z"/></g>
<g><path style="opacity:0.004" fill="#000000" d="M 1113.5,2107.5 C 1114.83,2108.17 1114.83,2108.17 1113.5,2107.5 Z"/></g>
<g><path style="opacity:0.004" fill="#000000" d="M 1112.5,2110.5 C 1113.83,2111.17 1113.83,2111.17 1112.5,2110.5 Z"/></g>
<g><path style="opacity:0.004" fill="#000000" d="M 1111.5,2112.5 C 1112.83,2113.17 1112.83,2113.17 1111.5,2112.5 Z"/></g>
<g><path style="opacity:0.004" fill="#000000" d="M 998.5,2117.5 C 999.833,2118.17 999.833,2118.17 998.5,2117.5 Z"/></g>
<g><path style="opacity:0.004" fill="#000000" d="M 1102.5,2127.5 C 1103.83,2128.17 1103.83,2128.17 1102.5,2127.5 Z"/></g>
<g><path style="opacity:0.004" fill="#000000" d="M 1101.5,2129.5 C 1102.83,2130.17 1102.83,2130.17 1101.5,2129.5 Z"/></g>
<g><path style="opacity:0.004" fill="#000000" d="M 989.5,2136.5 C 990.833,2137.17 990.833,2137.17 989.5,2136.5 Z"/></g>
<g><path style="opacity:0.008" fill="#000000" d="M 989.5,2139.5 C 988.833,2138.17 988.833,2138.17 989.5,2139.5 Z"/></g>
<g><path style="opacity:0.004" fill="#000000" d="M 1090.5,2148.5 C 1091.83,2149.17 1091.83,2149.17 1090.5,2148.5 Z"/></g>
<g><path style="opacity:0.004" fill="#000000" d="M 1089.5,2150.5 C 1090.83,2151.17 1090.83,2151.17 1089.5,2150.5 Z"/></g>
<g><path style="opacity:0.004" fill="#000000" d="M 978.5,2154.5 C 979.833,2155.17 979.833,2155.17 978.5,2154.5 Z"/></g>
<g><path style="opacity:0.008" fill="#000000" d="M 977.5,2156.5 C 978.833,2157.17 978.833,2157.17 977.5,2156.5 Z"/></g>
<g><path style="opacity:0.004" fill="#000000" d="M 1084.5,2157.5 C 1085.83,2158.17 1085.83,2158.17 1084.5,2157.5 Z"/></g>
<g><path style="opacity:0.004" fill="#000000" d="M 977.5,2159.5 C 976.833,2158.17 976.833,2158.17 977.5,2159.5 Z"/></g>
<g><path style="opacity:0.004" fill="#000000" d="M 1083.5,2159.5 C 1084.83,2160.17 1084.83,2160.17 1083.5,2159.5 Z"/></g>
<g><path style="opacity:0.004" fill="#000000" d="M 1082.5,2161.5 C 1083.83,2162.17 1083.83,2162.17 1082.5,2161.5 Z"/></g>
<g><path style="opacity:0.004" fill="#000000" d="M 1078.5,2167.5 C 1079.83,2168.17 1079.83,2168.17 1078.5,2167.5 Z"/></g>
<g><path style="opacity:0.004" fill="#000000" d="M 1077.5,2169.5 C 1078.83,2170.17 1078.83,2170.17 1077.5,2169.5 Z"/></g>
<g><path style="opacity:0.004" fill="#000000" d="M 965.5,2175.5 C 966.833,2176.17 966.833,2176.17 965.5,2175.5 Z"/></g>
<g><path style="opacity:0.004" fill="#000000" d="M 1072.5,2176.5 C 1073.83,2177.17 1073.83,2177.17 1072.5,2176.5 Z"/></g>
<g><path style="opacity:0.004" fill="#000000" d="M 964.5,2177.5 C 965.833,2178.17 965.833,2178.17 964.5,2177.5 Z"/></g>
<g><path style="opacity:0.004" fill="#000000" d="M 1071.5,2178.5 C 1072.83,2179.17 1072.83,2179.17 1071.5,2178.5 Z"/></g>
<g><path style="opacity:0.004" fill="#000000" d="M 1070.5,2179.5 C 1070.83,2179.5 1071.17,2179.5 1071.5,2179.5C 1071.31,2180.17 1070.98,2180.17 1070.5,2179.5 Z"/></g>
<g><path style="opacity:0.004" fill="#000000" d="M 1069.5,2181.5 C 1070.83,2182.17 1070.83,2182.17 1069.5,2181.5 Z"/></g>
<g><path style="opacity:0.004" fill="#000000" d="M 958.5,2185.5 C 959.833,2186.17 959.833,2186.17 958.5,2185.5 Z"/></g>
<g><path style="opacity:0.008" fill="#000000" d="M 958.5,2188.5 C 957.833,2187.17 957.833,2187.17 958.5,2188.5 Z"/></g>
<g><path style="opacity:0.004" fill="#000000" d="M 953.5,2192.5 C 954.833,2193.17 954.833,2193.17 953.5,2192.5 Z"/></g>
<g><path style="opacity:0.004" fill="#000000" d="M 1058.5,2197.5 C 1059.83,2198.17 1059.83,2198.17 1058.5,2197.5 Z"/></g>
<g><path style="opacity:0.004" fill="#000000" d="M 1057.5,2199.5 C 1058.83,2200.17 1058.83,2200.17 1057.5,2199.5 Z"/></g>
<g><path style="opacity:0.008" fill="#000000" d="M 1050.5,2208.5 C 1051.83,2209.17 1051.83,2209.17 1050.5,2208.5 Z"/></g>
<g><path style="opacity:0.004" fill="#000000" d="M 1049.5,2210.5 C 1050.83,2211.17 1050.83,2211.17 1049.5,2210.5 Z"/></g>
<g><path style="opacity:0.004" fill="#000000" d="M 1048.5,2211.5 C 1048.83,2211.5 1049.17,2211.5 1049.5,2211.5C 1049.31,2212.17 1048.98,2212.17 1048.5,2211.5 Z"/></g>
<g><path style="opacity:0.004" fill="#000000" d="M 1039.5,2225.5 C 1040.83,2226.17 1040.83,2226.17 1039.5,2225.5 Z"/></g>
<g><path style="opacity:0.004" fill="#000000" d="M 1037.5,2230.5 C 1038.83,2231.17 1038.83,2231.17 1037.5,2230.5 Z"/></g>
<g><path style="opacity:0.004" fill="#000000" d="M 1034.5,2236.5 C 1035.83,2237.17 1035.83,2237.17 1034.5,2236.5 Z"/></g>
<g><path style="opacity:0.297" fill="#000000" d="M 1088.5,2481.5 C 1091.41,2482.24 1094.41,2482.74 1097.5,2483C 1100.19,2483.78 1101.19,2485.28 1100.5,2487.5C 1095.12,2486.47 1089.79,2485.3 1084.5,2484C 1086.07,2483.39 1087.4,2482.56 1088.5,2481.5 Z"/></g>
</svg>
