<?xml version="1.0" encoding="UTF-8"?>
<svg xmlns="http://www.w3.org/2000/svg" viewBox="0 0 316 527">
  <defs>
    <style>
      .cls-1 {
        fill: #a31b11;
        font-family: Metropolis-Black, Metropolis;
        font-size: 22px;
        font-weight: 800;
      }

      .cls-2 {
        fill: #98a186;
      }

      .cls-2, .cls-3, .cls-4, .cls-5, .cls-6, .cls-7, .cls-8, .cls-9, .cls-10 {
        stroke-width: 0px;
      }

      .cls-3 {
        fill: #4e4027;
      }

      .cls-4 {
        fill: #bbbcb1;
      }

      .cls-6 {
        fill: #a09a90;
      }

      .cls-11 {
        fill: none;
        stroke-width: 20px;
      }

      .cls-11, .cls-12 {
        stroke: #fff;
        stroke-miterlimit: 10;
      }

      .cls-13 {
        letter-spacing: -.07em;
      }

      .cls-7, .cls-12 {
        fill: #fff;
      }

      .cls-8 {
        fill: #392a21;
      }

      .cls-9 {
        fill: #101a21;
      }

      .cls-10 {
        opacity: .1;
      }

      .cls-14 {
        letter-spacing: 0em;
      }
    </style>
  </defs>
  <g id="Layer_3" data-name="Layer 3">
    <path class="cls-11" d="M-.09-.72h315.66v527.35H-.09V-.72Z"/>
    <path class="cls-7" d="M.43,494.43h315.66v24.68H.43v-24.68Z"/>
    <path class="cls-12" d="M36.31,117.93h238.93v376.48H36.31V117.93Z"/>
    <path class="cls-3" d="M48.36,131.72h217.59v387.52H48.36V131.72Z"/>
    <rect class="cls-5" x="63.48" y="151.48" width="188.95" height="367.76"/>
    <g>
      <rect class="cls-6" x="63.48" y="151.48" width="181.5" height="367.76"/>
      <rect class="cls-4" x="75.4" y="163.52" width="157.26" height="352.07"/>
      <path class="cls-9" d="M113.26,195.25h30.17v31.46h-30.17v-31.46Z"/>
      <path class="cls-9" d="M165.12,195.25h30.17v31.46h-30.17v-31.46Z"/>
      <path class="cls-9" d="M113.26,248.78h30.17v31.46h-30.17v-31.46Z"/>
      <path class="cls-9" d="M165.12,248.78h30.17v31.46h-30.17v-31.46Z"/>
      <path class="cls-9" d="M113.26,302.32h30.17v31.46h-30.17v-31.46Z"/>
      <path class="cls-9" d="M165.12,302.32h30.17v31.46h-30.17v-31.46Z"/>
      <path class="cls-9" d="M205.76,287.39h11.78v59.05h-11.78v-59.05Z"/>
      <path class="cls-2" d="M209.38,294.7h4.54v43.08h-4.54v-43.08Z"/>
      <path class="cls-8" d="M75.4,474.12h158.23v40.62H75.4v-40.62Z"/>
    </g>
    <text class="cls-1" transform="translate(49.77 59.11)"><tspan x="0" y="0">TRANSFORM</tspan><tspan class="cls-13" x="144.14" y="0">A</tspan><tspan class="cls-14" x="159.13" y="0">TION </tspan><tspan x="72.46" y="26.4">ROOM </tspan></text>
  </g>
  <g id="Layer_11" data-name="Layer 11">
    <rect class="cls-10" x="63.48" y="151.48" width="188.95" height="367.76"/>
  </g>
</svg>