<?xml version="1.0" encoding="UTF-8"?>
<svg xmlns="http://www.w3.org/2000/svg" viewBox="0 0 316 527">
  <defs>
    <style>
      .cls-1 {
        fill: #a31b11;
        font-family: Metropolis-Black, Metropolis;
        font-size: 22px;
        font-weight: 800;
      }

      .cls-2 {
        fill: #98a186;
      }

      .cls-2, .cls-3, .cls-4, .cls-5, .cls-6, .cls-7, .cls-8, .cls-9, .cls-10 {
        stroke-width: 0px;
      }

      .cls-3 {
        fill: #4e4027;
      }

      .cls-4 {
        fill: #bbbcb1;
      }

      .cls-6 {
        fill: #a09a90;
      }

      .cls-11 {
        fill: none;
        stroke-width: 20px;
      }

      .cls-11, .cls-12 {
        stroke: #fff;
        stroke-miterlimit: 10;
      }

      .cls-13 {
        letter-spacing: -.07em;
      }

      .cls-7, .cls-12 {
        fill: #fff;
      }

      .cls-8 {
        fill: #392a21;
      }

      .cls-9 {
        fill: #101a21;
      }

      .cls-10 {
        opacity: .3;
      }

      .cls-14 {
        letter-spacing: 0em;
      }
    </style>
  </defs>
  <g id="Layer_5" data-name="Layer 5">
    <path class="cls-11" d="M.94-.17h315.66v527.35H.94V-.17Z"/>
    <path class="cls-7" d="M1.45,494.97h315.66v24.68H1.45v-24.68Z"/>
    <path class="cls-12" d="M37.33,118.48h238.93v376.48H37.33V118.48Z"/>
    <path class="cls-3" d="M49.38,132.26h217.59v387.52H49.38V132.26Z"/>
    <rect class="cls-5" x="64.5" y="152.02" width="188.95" height="367.76"/>
    <g>
      <rect class="cls-6" x="64.5" y="152.02" width="156.62" height="367.76"/>
      <rect class="cls-4" x="74.79" y="164.07" width="135.7" height="352.07"/>
      <path class="cls-9" d="M107.46,195.79h26.03v31.46h-26.03v-31.46Z"/>
      <path class="cls-9" d="M152.21,195.79h26.03v31.46h-26.03v-31.46Z"/>
      <path class="cls-9" d="M107.46,249.33h26.03v31.46h-26.03v-31.46Z"/>
      <path class="cls-9" d="M152.21,249.33h26.03v31.46h-26.03v-31.46Z"/>
      <path class="cls-9" d="M107.46,302.86h26.03v31.46h-26.03v-31.46Z"/>
      <path class="cls-9" d="M152.21,302.86h26.03v31.46h-26.03v-31.46Z"/>
      <path class="cls-9" d="M187.28,287.94h10.16v59.05h-10.16v-59.05Z"/>
      <path class="cls-2" d="M190.4,295.25h3.92v43.08h-3.92v-43.08Z"/>
      <path class="cls-8" d="M74.79,474.66h136.54v40.62H74.79v-40.62Z"/>
    </g>
    <text class="cls-1" transform="translate(50.8 59.66)"><tspan x="0" y="0">TRANSFORM</tspan><tspan class="cls-13" x="144.14" y="0">A</tspan><tspan class="cls-14" x="159.13" y="0">TION </tspan><tspan x="72.46" y="26.4">ROOM </tspan></text>
  </g>
  <g id="Layer_11" data-name="Layer 11">
    <rect class="cls-10" x="64.29" y="150.44" width="188.95" height="367.76"/>
  </g>
</svg>