<?xml version="1.0" encoding="utf-8"?>
<!-- Generator: Adobe Illustrator 28.1.0, SVG Export Plug-In . SVG Version: 6.00 Build 0)  -->
<svg version="1.1" id="Layer_2_00000089561648467827072220000013451323271719467422_"
	 xmlns="http://www.w3.org/2000/svg" xmlns:xlink="http://www.w3.org/1999/xlink" x="0px" y="0px" viewBox="0 0 32 32"
	 style="enable-background:new 0 0 32 32;" xml:space="preserve">
<style type="text/css">
	.st0{fill:#FFFFFF;stroke:#000000;stroke-width:0.3677;stroke-miterlimit:10;}
	.st1{fill:none;}
</style>
<g id="Layer_2-2">
	<g id="Layer_1-2">
		<path class="st0" d="M19.2,1.4c0.7,0.1,1.2,0.4,1.7,0.8c0.1,0.1,0.3,0.2,0.4,0.3c0.2,0.2,0.2,0.4,0.2,0.6c-0.1,0.4-0.1,0.8,0,1.2
			c0,0.1,0,0.1,0.1,0.2c0.2,0.3,0.4,0.6,0.6,0.9c0,0.1,0.1,0.1,0.1,0.2c0,0,0,0,0.1,0c0-0.1,0-0.2,0-0.2c-0.1-0.6-0.2-1.1-0.4-1.7
			c0-0.1,0-0.1-0.1-0.2c-0.2-0.3-0.2-0.5-0.1-0.8c0.1-0.3,0.2-0.3,0.5-0.3c0.4,0.1,0.8,0.3,1.1,0.6c0.2,0.2,0.4,0.4,0.6,0.6
			c0.4,0.6,0.6,1.2,0.8,1.9c0.1,0.9,0.1,1.7,0.1,2.6c0,0.2-0.1,0.5-0.2,0.7c-0.1,0.1-0.1,0.2-0.1,0.3C24.4,9.4,24.2,9.7,24,10
			c-0.4,0.4-0.6,0.8-0.7,1.3c-0.1,0.4-0.4,0.8-0.7,1.1c-0.2,0.2-0.5,0.4-0.7,0.7c-0.2,0.2-0.3,0.4-0.2,0.6c0,0.1,0,0.1-0.1,0.2
			c-0.4,0.5-0.8,1.1-1.3,1.6c-0.3,0.3-0.6,0.7-1,0.8c-0.2,0.1-0.3,0.2-0.3,0.4c0,0.2,0.1,0.3,0.2,0.3c0.1,0,0.3,0,0.4-0.1
			c0.4-0.3,0.8-0.6,1.2-0.9c0.4-0.4,0.7-0.8,1-1.2c0.1-0.1,0.2-0.2,0.4-0.4c0.3-0.3,0.6-0.7,1-1c0.5-0.4,0.7-0.9,0.9-1.5
			c0.1-0.3,0.3-0.5,0.6-0.7c0,0.1,0,0.1,0,0.1c-0.1,0.4-0.1,0.9-0.3,1.3c-0.2,0.5-0.5,1-0.7,1.5c-0.1,0.2-0.2,0.4-0.3,0.6
			c-0.5,0.6-1,1.2-1.6,1.7c-0.6,0.5-1.3,1-1.9,1.4c-0.2,0.1-0.4,0.2-0.6,0.2c-0.1,0-0.2,0.2-0.2,0.3c0,0.1,0.1,0.1,0.3,0.1
			c0.2-0.1,0.4-0.2,0.7-0.2c0.5-0.1,1-0.4,1.5-0.6c0.6-0.2,1.2-0.4,1.8-0.5c0.2-0.1,0.4,0,0.6,0.1c0.2,0.1,0.5,0.3,0.7,0.4
			c0.2,0.1,0.3,0.3,0.5,0.5c0.2,0.2,0.4,0.4,0.5,0.7c0.1,0.1,0.2,0.3,0.2,0.4c0,0,0,0.1,0,0.1c0,0-0.1,0-0.1,0
			c-0.4-0.2-0.8-0.4-1.1-0.7c-0.1-0.1-0.2-0.2-0.3-0.3c-0.1-0.1-0.2-0.2-0.4-0.3c0,0,0,0,0,0c-0.2-0.3-0.5-0.1-0.7,0
			c-0.2,0.1-0.4,0.1-0.7,0.2c-0.1,0-0.3,0.1-0.4,0.2c-0.7,0.3-1.5,0.6-2.2,0.9c-0.2,0.1-0.5,0.2-0.7,0.3c-0.1,0-0.2,0.1-0.2,0.2
			c0,0.1,0.1,0.2,0.2,0.2c0.2,0,0.4,0,0.6,0c0.7-0.2,1.4-0.5,2.1-0.8c0.5-0.2,0.9-0.4,1.5-0.3c0.1,0,0.1,0,0.2,0.1
			c0.6,0.3,1.2,0.7,1.6,1.4c0.2,0.4,0.3,0.8,0.5,1.2c0.1,0.2,0.1,0.4,0.3,0.6c0.2,0.2,0.3,0.4,0.1,0.7c-0.1,0.2-0.2,0.2-0.4,0.1
			c-0.1-0.1-0.2-0.2-0.3-0.4c-0.1-0.2-0.2-0.5-0.3-0.8c-0.1-0.1-0.1-0.3-0.2-0.4c-0.5-0.5-0.9-0.9-1.4-1.4c0,0,0,0-0.1-0.1
			c-0.2-0.2-0.3-0.2-0.5-0.1c-0.9,0.5-1.9,0.8-2.9,1c-0.3,0.1-0.7,0.1-1,0.2c-0.1,0-0.1,0.1-0.1,0.2c0,0.1,0.1,0.2,0.2,0.2
			c0.3,0,0.5,0,0.8,0c0.4-0.1,0.9-0.2,1.3-0.2c0.3,0,0.5-0.1,0.8-0.1c0.5,0,0.9,0.1,1.3,0.3c0.7,0.4,1.2,0.9,1.6,1.5
			c0.1,0.1,0.1,0.2,0.1,0.3c0,0.2,0.2,0.4,0.3,0.5c0.2,0.3,0.4,0.7,0.4,1.1c0,0.1-0.1,0.2-0.1,0.3c-0.1,0-0.3,0-0.4-0.2
			c-0.1-0.2-0.2-0.4-0.3-0.6c0-0.1-0.1-0.1-0.2-0.1c-0.2,0-0.4-0.1-0.5-0.3c-0.4-0.5-0.8-1-1.3-1.5c-0.1-0.1-0.2-0.2-0.3-0.3
			c-0.1,0-0.2,0-0.3,0c-0.5,0.3-1,0.3-1.6,0.3c-0.6,0.1-1.3,0.1-1.9,0.1c-0.3,0-0.4,0.1-0.5,0.4c-0.1,0.3-0.2,0.6-0.3,0.9
			c0,0.1-0.1,0.1-0.1,0.2c-0.1,0.1-0.1,0.3,0,0.4c0.1,0.2,0.1,0.5,0.1,0.8c0,0.1-0.1,0.2-0.1,0.3c-0.1,0.2-0.1,0.3,0,0.5
			s0.2,0.4,0.1,0.6c-0.1,0.2,0,0.3,0.1,0.5c0.1,0.1,0.1,0.3,0.2,0.4c0,0.1-0.1,0.3-0.2,0.4c-0.1,0.1-0.2,0.1-0.3,0.2
			c-0.1,0.1-0.1,0.4,0.1,0.4c0.2,0,0.4,0.1,0.6,0.1c0.5,0,0.8,0.1,1.2,0.4c0.2,0.2,0.4,0.5,0.6,0.7c0.1,0.2,0.1,0.3,0,0.4
			c-0.2,0.2-0.5,0.4-0.8,0.6c-0.2,0.1-0.5,0.1-0.7,0.1c-0.1,0-0.2,0-0.3,0c-0.3,0.1-0.6,0.1-0.9,0.1s-0.6,0.1-0.9,0.1
			c-0.4,0.1-0.7,0.1-1.1-0.1c-0.1,0-0.3,0-0.4,0c-0.2,0.1-0.4,0.1-0.6,0c-0.3-0.1-0.5-0.1-0.8-0.1c-0.4,0.1-0.7,0-1-0.2
			c-0.1-0.1-0.3-0.1-0.4-0.2c-0.2-0.1-0.4-0.2-0.6-0.4c-0.1,0-0.1-0.2-0.1-0.3c0.2-0.4,0.5-0.7,0.8-1c0.3-0.3,0.7-0.3,1.1-0.4
			c0,0,0.1-0.1,0.1-0.1c0-0.2,0-0.3,0-0.5c0-0.1,0-0.1-0.1-0.2c-0.2-0.1-0.1-0.2-0.1-0.4c0.1-0.2,0.2-0.4,0.3-0.6
			c0.1-0.1,0-0.2-0.1-0.2c-0.1,0-0.1-0.1-0.1-0.2c0.1-0.2,0.2-0.5,0.2-0.7c0,0-0.1-0.1-0.1-0.2c-0.1-0.1-0.1-0.2-0.1-0.3
			c0,0,0,0,0,0c0.1-0.3,0.2-0.7,0.2-1c0,0,0,0,0-0.1c-0.2-0.3-0.2-0.6-0.2-0.9c-0.1-0.5-0.1-0.5-0.6-0.5c-0.6,0-1.2,0-1.7,0
			c-0.4,0-0.7-0.1-1.1,0c-0.2,0-0.4,0.1-0.5,0.2c-0.2,0.2-0.3,0.4-0.5,0.6c0,0-0.1,0.1-0.1,0.1C9,23.4,8.8,23.7,8.7,24
			c-0.1,0.2-0.1,0.4,0,0.5c0,0.1-0.1,0.1-0.1,0.2c-0.1,0.2-0.1,0.4-0.1,0.6c0,0-0.1,0.1-0.1,0.1c-0.1,0-0.1-0.1-0.1-0.1
			c0-0.1,0-0.2,0-0.3c0-0.3,0-0.5-0.1-0.8c-0.1-0.3,0-0.7,0.2-0.9c0.2-0.3,0.3-0.6,0.6-0.9c0.1-0.1,0.2-0.2,0.4-0.3
			c0.2-0.2,0.4-0.3,0.7-0.5c0.1-0.1,0.2-0.1,0.4-0.2c0.5-0.1,0.9-0.1,1.4-0.2c0.5-0.1,1-0.1,1.6-0.1c0,0,0.1-0.1,0.1-0.1
			c0-0.1,0-0.2-0.1-0.2c-0.1-0.1-0.2-0.1-0.4-0.1c-0.1,0-0.3-0.1-0.4-0.1c-0.3-0.1-0.6-0.1-0.9-0.2c-0.5-0.1-1-0.1-1.4-0.4
			c-0.3-0.2-0.6-0.2-1-0.1C9,20,9,20,8.9,20c-0.5,0-0.8,0.3-1.1,0.6c-0.3,0.3-0.3,0.8-0.4,1.2c-0.1,0.3-0.2,0.6-0.4,0.9
			C7,22.9,6.9,23,6.8,23.1c-0.1,0.1-0.2,0.2-0.4,0.1c-0.2-0.1-0.2-0.2-0.1-0.4c0,0,0-0.1,0-0.1c0.3-0.4,0.3-1,0.6-1.4
			c0-0.1,0-0.2,0-0.3c0.1-0.4,0.2-0.8,0.5-1.1c0.1-0.1,0.1-0.2,0.2-0.3c0.1-0.2,0.3-0.5,0.6-0.6c0.2-0.1,0.4-0.2,0.7-0.2
			c0.2,0,0.5-0.1,0.7,0c0.6,0.1,1.1,0.2,1.6,0.5c0.6,0.2,1.2,0.5,1.8,0.6c0.1,0,0.2,0,0.2,0c0-0.1,0-0.3-0.1-0.3s-0.3-0.1-0.5-0.2
			c-0.7-0.2-1.3-0.3-2-0.5c-0.5-0.1-1-0.3-1.5-0.5c-0.1-0.1-0.3-0.2-0.4-0.2c-0.1,0-0.2,0-0.3,0c-0.2,0-0.4,0.1-0.5,0.1
			c-0.5,0-0.9,0-1.4,0c-0.1,0-0.3,0-0.4-0.1c-0.1,0-0.1-0.1,0-0.2c0.1-0.1,0.2-0.1,0.3-0.2c0.3-0.1,0.5-0.3,0.8-0.4
			c0.3-0.1,0.5-0.1,0.8-0.1c0,0,0.1,0,0.1,0c0.4-0.1,0.7,0,1,0.1c0.5,0.2,0.9,0.3,1.4,0.4c0.8,0.3,1.5,0.5,2.3,0.8
			c0.1,0,0.2,0,0.3,0c0-0.2-0.2-0.1-0.3-0.2c-0.9-0.3-1.7-0.6-2.5-1c-0.2-0.1-0.3-0.2-0.4-0.4c0,0-0.1-0.1-0.1-0.1
			c-0.6-0.3-0.8-0.8-1.3-1.2c0,0-0.1-0.1-0.1-0.1c-0.2-0.1-0.3-0.3-0.5-0.5c-0.1-0.2-0.3-0.4-0.5-0.5c-0.1-0.1-0.1-0.1-0.2-0.2
			c-0.2-0.2-0.3-0.5-0.5-0.7c-0.1-0.1-0.2-0.2-0.1-0.4c0,0,0-0.1,0-0.1c-0.1-0.2-0.2-0.3-0.3-0.5c0-0.1-0.1-0.2-0.1-0.3
			c0,0,0,0,0.1,0c0.2,0.2,0.4,0.4,0.6,0.6c0.2,0.2,0.4,0.4,0.6,0.6c0.1,0.1,0.3,0.2,0.4,0.3c0,0,0,0,0.1,0.1
			c0.1,0.1,0.2,0.3,0.3,0.4c0,0,0.1,0,0.2,0c0.1,0,0.2,0.1,0.2,0.1c0.1,0.2,0.1,0.4,0.4,0.4c0,0,0.1,0,0.1,0c0,0.2,0.2,0.3,0.3,0.4
			c0.1,0.2,0.3,0.3,0.5,0.3c0.1,0,0.1,0.1,0.2,0.1c0.1,0.2,0.2,0.5,0.3,0.8c0,0.1,0.1,0.2,0.2,0.3c0.7,0.3,1.3,0.7,2,1
			c0.1,0.1,0.2,0.1,0.4,0.2c0.1-0.2,0.1-0.4,0-0.6c-0.2-0.2-0.3-0.5-0.5-0.7c-0.4-0.4-0.5-0.9-0.7-1.4c0-0.1-0.1-0.2-0.1-0.3
			c0,0-0.1-0.1-0.1-0.1c-0.1,0-0.2-0.1-0.3-0.1c-0.5-0.6-1-1.1-1.5-1.7c-0.2-0.2-0.4-0.3-0.5-0.5c-0.2-0.2-0.5-0.5-0.5-0.8
			c0-0.1,0-0.1,0-0.2c0-0.2,0-0.3-0.1-0.5c0-0.1,0-0.1,0-0.2c0-0.1,0-0.3-0.1-0.4c-0.1-0.1-0.2-0.3-0.3-0.4C8,10,8,9.8,8,9.7
			c0-0.2-0.1-0.3-0.2-0.4C7.5,9.1,7.3,8.9,7,8.6c0,0,0-0.2,0-0.2c0,0,0-0.1,0-0.1C6.9,8,6.8,7.8,6.6,7.6C6.5,7.3,6.3,7.1,6.5,6.7
			c0,0,0-0.1,0-0.2C6.3,5.3,6.5,4.2,7.2,3.1c0.3-0.4,0.6-0.7,1-1C8.5,1.9,8.7,1.8,9,1.8c0.1,0,0.2,0,0.3,0c0,0.1,0,0.1-0.1,0.2
			C9.1,2.3,8.9,2.6,8.8,2.9C8.7,3.1,8.7,3.4,8.7,3.7c0,0.4,0.1,0.8,0.3,1.1C9.2,5,9.3,5.2,9.5,5.3c0.1,0.1,0.2,0.1,0.3,0
			C9.9,5.2,9.9,5.1,9.9,5c0-0.3,0-0.6,0-0.9c0-0.3,0-0.7,0-1c0-0.1,0-0.2,0.1-0.2c0.1-0.1,0.1-0.2,0.1-0.3c0-0.1,0-0.2,0.1-0.2
			c0,0,0.1,0,0.2,0c0.1,0,0.1,0,0.2,0C11,2.3,11.4,2.1,11.8,2c0,0,0.1,0,0.1,0c0,0,0,0,0,0c-0.1,0-0.1,0.1-0.2,0.1
			c-0.2,0.1-0.4,0.1-0.7,0.2c-0.2,0.1-0.4,0.2-0.5,0.2c0.5,0.9,0.6,1.8,0.7,2.8c0,0.2,0.2,0.3,0.3,0.5c0.4,0.3,0.9,0.6,1.3,0.8
			c0.4,0.2,0.8,0.4,1.2,0.6c0.2,0.1,0.4,0.3,0.6,0.4c0,0,0-0.1,0-0.2l0,0c0,0,0.1,0.1,0.1,0.1c0.2,0.5,0.4,1,0.6,1.6
			c0.1,0.2,0.1,0.5,0.1,0.7c0,0,0.1,0,0.1,0c0-0.1,0.1-0.1,0.1-0.2c0-0.6,0-1.1-0.1-1.7c0-0.2,0-0.2,0.1-0.3c0,0.1,0,0.1,0,0.2
			c0,0.1,0.1,0.2,0.1,0.4c0,0.1,0,0.1,0,0.2c0,0.4,0,0.8,0,1.2c0,0.1,0,0.2,0.1,0.3c0,0,0.1,0,0.1,0c0-0.1,0.1-0.2,0.1-0.3
			c0.1-0.5,0.2-0.9,0.3-1.4c0-0.2,0.1-0.4,0.2-0.6c0,0,0.1-0.1,0.1-0.1v0.2c0.1-0.1,0.1-0.1,0.2-0.1c0.2-0.2,0.4-0.5,0.7-0.7
			c0.3-0.2,0.7-0.5,1-0.7c0.6-0.4,1.1-0.7,1.7-1.1c0.1,0,0.1-0.2,0.1-0.3c0-0.3,0-0.6,0.1-0.9s0.2-0.6,0.3-0.9
			c0-0.1,0.1-0.1,0.1-0.2c0.2-0.1,0.1-0.2,0-0.4C20.5,2,20,1.8,19.5,1.6c-0.1,0-0.1,0-0.2,0c-0.1,0-0.2,0-0.3-0.1c0,0,0-0.1,0-0.1
			L19.2,1.4L19.2,1.4L19.2,1.4z M17.2,9.7C17.3,9.7,17.3,9.7,17.2,9.7c0,0.1,0,0.1,0,0.1C17.1,10,17,10.2,17,10.5c0,0,0,0.1,0,0.1
			c-0.1,0.2-0.1,0.4,0.1,0.6c0.3,0.2,0.4,0.5,0.5,0.8c0.2,0.4,0.3,0.8,0.4,1.2c0.1,0.2,0.2,0.3,0.4,0.2c0,0,0.1-0.1,0.1-0.1
			c0.6-0.4,1.2-0.8,1.8-1.2c0.1,0,0.1-0.1,0.1-0.2c0.1-0.4,0.3-0.7,0.6-0.9c0.1-0.1,0.2-0.2,0.3-0.3c0.1-0.1,0.1-0.2,0.1-0.3
			c0-0.3,0-0.6,0-0.8c0-0.2,0-0.5-0.1-0.7c-0.2-0.6-0.5-1.1-0.7-1.7c-0.1-0.2-0.2-0.5-0.2-0.7c0-0.2,0-0.4,0-0.6
			c0-0.3,0-0.5-0.1-0.8c0-0.1,0-0.1,0-0.2c-0.1,0-0.1,0.1-0.2,0.1c-0.4,0.3-0.9,0.6-1.3,0.8c-0.3,0.2-0.7,0.3-1,0.6
			c-0.4,0.3-0.7,0.7-1,1c-0.2,0.2-0.2,0.4-0.3,0.6c0,0.1,0,0.2-0.1,0.3c0,0.3,0,0.7-0.1,1c0,0,0.1,0.1,0.1,0.1
			c0.2,0,0.2,0.1,0.2,0.3c0,0.1,0,0.2,0.1,0.3C17,10.1,17.1,9.9,17.2,9.7L17.2,9.7L17.2,9.7z M14.6,9.2C14.6,9.2,14.6,9.2,14.6,9.2
			c0.1,0,0.2,0.1,0.2,0.1c0.1,0.1,0.1,0.3,0.2,0.4c0,0,0.1,0.1,0.1,0.1c0,0,0.1-0.1,0.1-0.1c-0.1-0.5-0.1-0.9-0.3-1.4
			c-0.1-0.3-0.3-0.5-0.6-0.7c-0.2-0.2-0.5-0.3-0.7-0.4c-0.5-0.2-1-0.5-1.4-0.7c-0.3-0.2-0.6-0.4-0.9-0.6c0,0.2,0,0.5-0.1,0.7
			c0,0.1-0.1,0.2-0.2,0.2c-0.2,0-0.2,0.1-0.3,0.3c0,0.1-0.1,0.2-0.1,0.2c-0.2,0.3-0.3,0.6-0.3,1c0,0.1-0.1,0.2-0.1,0.3
			c0,0-0.1,0.1-0.1,0.1C9.9,8.8,9.8,8.9,9.7,9.1c0.2,0.2,0.3,0.4,0.5,0.6c0,0,0,0,0,0c0.2,0,0.3,0.1,0.4,0.3
			c0.1,0.1,0.2,0.2,0.3,0.3c0.2,0.1,0.3,0.3,0.5,0.5c0.2,0.3,0.4,0.6,0.4,0.9c0,0.1,0.1,0.3,0.2,0.3c0.3,0.1,0.3,0.4,0.3,0.6
			c0,0.3,0.3,0.8,0.7,0.8c0.2,0,0.5,0.1,0.7,0.2c0.2,0,0.2,0,0.2-0.2c0-0.2,0-0.4,0.1-0.5c0.1-0.2,0.1-0.5,0.2-0.7
			c0.1-0.2,0.2-0.5,0.3-0.7c0.1-0.2,0.3-0.4,0.1-0.7c-0.1-0.2,0-0.4,0.2-0.5c0.1-0.1,0.2-0.1,0.1-0.3c-0.1-0.2-0.2-0.5-0.3-0.7
			C14.7,9.3,14.6,9.2,14.6,9.2L14.6,9.2L14.6,9.2z M10.2,3C10.1,3,10.1,3,10.2,3l-0.1,0.6c0,0,0,0,0,0C10.1,3.4,10.1,3.2,10.2,3z"/>
	</g>
</g>
<rect class="st1" width="32" height="32"/>
</svg>
