<svg width="507" height="575" viewBox="0 0 507 575" fill="none" xmlns="http://www.w3.org/2000/svg">
<path d="M185.479 91.4912C184.418 88.5171 183.781 86.6052 182.932 84.5871C180.917 79.595 178.264 74.7091 176.885 69.5045C174.763 61.9632 173.49 54.2095 171.793 46.562C171.687 45.9247 171.262 45.1812 170.838 44.8625C165.745 40.8263 164.897 38.0647 167.655 32.3291C169.14 29.1426 171.687 26.381 172.747 23.0884C174.127 18.8397 177.097 17.0341 180.917 15.7595C182.402 15.2284 184.099 14.8035 185.266 13.9538C192.056 8.85547 199.589 9.49277 207.122 11.4046C219.216 14.5911 228.446 21.8138 231.099 34.241C233.114 43.588 233.22 53.5722 228.658 62.813C228.34 63.4503 228.234 64.7248 228.552 65.1497C231.311 68.6548 229.295 71.204 227.491 74.178C226.643 75.665 226.218 78.6391 227.067 79.7012C230.78 83.8436 234.493 88.6233 239.268 91.1725C250.514 97.1206 262.184 102.113 273.96 106.892C280.538 109.548 282.978 112.309 283.084 119.426C283.19 123.781 283.402 128.454 284.888 132.384C294.86 158.407 296.027 185.917 297.831 213.214C299.104 232.439 292.951 250.814 287.328 269.19C283.508 281.617 280.007 294.15 277.143 306.896C276.188 311.251 277.355 316.137 271.414 317.73C270.671 317.943 270.141 319.748 269.929 320.917C268.974 325.378 267.807 329.839 267.382 334.406C265.897 349.701 264.306 364.89 263.351 380.185C263.032 385.708 263.351 391.656 265.26 396.755C269.61 408.013 272.369 419.591 273.43 431.381C274.384 442.215 273.536 453.155 273.96 463.989C274.384 476.31 275.021 488.631 275.87 500.952C276.294 506.263 274.278 509.662 269.716 512.105C268.231 512.954 266.746 515.185 266.64 516.778C266.321 524.001 265.897 531.223 266.746 538.34C267.594 545.138 264.73 549.068 259.319 551.723C256.879 552.891 254.015 553.529 251.256 553.635C245.421 553.954 239.586 554.378 233.857 553.741C228.128 553.104 226.537 550.13 228.658 545.138C230.356 541.101 233.114 537.596 235.236 533.773C239.374 526.762 242.344 519.327 241.177 510.936C239.692 499.359 237.995 487.887 236.509 476.416C235.448 467.282 234.812 458.147 233.751 449.013C233.22 443.914 232.159 439.028 231.417 433.93C230.674 428.725 231.523 422.777 229.083 418.635C225.9 413.218 224.627 407.801 223.672 401.959C223.354 399.729 222.611 397.498 222.081 395.268C219.428 383.371 216.67 371.475 214.018 359.685C212.108 351.401 210.092 343.116 208.182 334.831C207.546 334.831 206.909 334.831 206.379 334.831C205.636 336.53 204.681 338.124 204.257 339.929C200.968 353.843 197.467 367.651 194.815 381.778C192.056 396.011 190.147 410.35 187.919 424.583C186.858 431.487 184.842 438.391 184.842 445.295C184.736 462.502 180.174 478.859 177.203 495.429C176.036 501.695 175.294 507.962 173.914 514.123C172.641 519.752 170.307 525.275 169.459 530.905C167.973 539.933 167.549 549.068 166.276 558.202C165.958 560.858 166.912 565 161.714 565C143.36 564.894 124.9 565 106.546 564.894C103.151 564.894 100.392 560.964 102.408 558.415C104.424 555.759 107.713 553.104 110.789 552.467C115.457 551.511 119.913 552.785 123.839 547.687C127.658 542.588 130.204 537.703 127.764 530.905C126.809 531.117 125.854 531.33 124.794 531.542C115.988 532.817 114.29 530.586 116.73 522.195C117.579 519.115 117.261 515.822 117.791 512.636C118.11 510.618 119.171 508.812 119.913 506.9C120.55 505.201 121.717 503.395 121.717 501.696C121.399 490.118 121.611 478.647 114.715 468.238C107.182 457.085 100.817 445.189 93.6022 433.718C92.7535 432.337 89.889 430.531 89.1463 430.956C87.661 431.806 86.494 433.93 85.8574 435.842C82.1442 448.163 78.7492 460.59 74.9299 472.911C73.4446 477.797 71.0044 482.258 69.307 487.038C68.1399 490.437 67.079 494.048 66.6546 497.659C65.6998 505.625 65.1693 513.592 64.5328 521.558C64.4267 522.408 65.0632 523.257 65.1693 524.107C65.6998 528.568 66.8668 533.029 66.5485 537.49C66.1242 543.438 62.9414 548.324 56.5758 549.599C48.831 551.086 41.0863 552.573 33.3415 553.104C27.7186 553.529 25.5967 549.28 28.5673 544.288C31.5379 539.083 35.5694 534.516 38.0096 529.099C43.4203 517.203 48.1945 505.094 53.0748 492.986C53.9235 490.968 53.9235 488.525 54.0296 486.188C54.7722 466.432 55.5149 446.676 56.0453 427.026C56.2575 417.573 57.1063 407.907 55.5149 398.666C53.7113 388.045 54.454 378.273 58.0611 368.076C60.2891 361.703 61.4561 354.799 59.2281 347.895C56.2575 338.655 53.1808 329.414 50.7407 320.067C47.1335 305.94 42.5716 291.92 44.5873 276.943C44.6934 276.094 44.269 275.244 44.0569 274.288C40.768 280.873 38.54 287.459 36.4182 294.15C34.9329 298.93 36.206 305.091 29.31 307.002C28.5673 307.215 28.249 309.127 27.8247 310.189C26.9759 312.101 26.2333 314.119 25.1723 315.925C21.4591 321.873 22.7322 325.803 29.2039 327.821C25.8089 334.087 18.0641 336.637 12.8656 333.238C9.68278 331.113 9.04623 321.448 11.4864 317.412C14.5631 312.419 18.5946 307.427 14.3509 300.948C13.7143 299.992 14.0326 298.187 14.2448 296.806C17.0032 277.581 19.8677 258.356 22.7322 239.131C24.1114 229.678 25.4906 220.224 26.9759 210.877C28.6734 199.619 31.1135 188.466 32.0684 177.101C33.0232 166.054 32.3867 154.796 32.4927 143.749C32.4927 138.332 34.2963 134.402 39.9192 132.172C47.1336 129.304 54.2418 126.011 60.8195 121.869C64.8511 119.32 68.246 115.283 70.7923 111.247C71.641 109.866 68.7765 106.149 67.6095 103.494C67.079 102.325 66.5485 101.263 66.3364 99.9884C65.2754 93.8279 63.2597 88.4109 58.9099 83.4188C54.3479 78.2142 56.0454 73.5407 62.1987 71.0978C62.3048 70.7791 62.517 70.4605 62.517 70.1418C62.517 69.3983 62.6231 68.6548 62.4109 68.0175C59.8647 60.4762 63.4718 55.3779 69.307 51.3417C72.5958 49.0049 76.203 46.9868 79.9162 45.2874C91.056 39.9766 105.803 43.2693 112.062 53.5722C114.927 58.2457 116.624 64.5124 116.518 70.0356C116.306 77.3645 117.685 85.8617 109.516 90.8539C108.986 91.1725 108.986 92.3409 108.667 93.1906C107.5 96.0584 106.015 98.9262 105.166 101.9C104.636 104.025 103.893 107.105 104.954 108.379C114.396 119.957 127.976 124.524 141.981 129.623C143.36 124.524 144.421 119.851 145.906 115.39C148.028 108.592 151.741 104.131 159.38 102.113C167.867 99.776 176.249 95.3149 185.479 91.4912ZM138.904 468.238C139.434 462.396 139.859 456.554 140.601 450.818C141.768 441.471 143.466 432.124 144.315 422.777C144.951 416.511 148.664 410.35 145.694 403.765C145.482 403.34 145.588 402.703 145.588 402.172C146.543 393.674 147.497 385.177 148.452 376.68C148.558 375.511 148.877 374.131 148.452 373.069C143.678 360.429 146.224 347.046 144.421 334.194C143.784 329.839 143.572 325.484 143.148 321.554C138.904 320.598 135.085 319.43 131.265 318.899C130.204 318.792 128.295 319.855 127.658 320.917C124.794 326.015 122.353 331.22 119.489 336.318C118.004 339.08 116.412 341.947 114.29 344.072C110.047 348.32 108.667 352.781 109.622 358.836C111.001 367.864 111.532 377.105 111.956 386.239C112.062 388.045 110.789 390.7 109.304 391.656C105.485 394.205 104.424 397.71 107.713 400.897C115.139 408.013 117.261 417.467 119.595 426.92C120.868 432.231 122.672 437.329 124.475 442.533C126.597 448.8 128.825 455.173 131.371 461.334C132.538 464.095 134.872 466.326 136.676 468.769C137.525 468.556 138.267 468.344 138.904 468.238Z" fill="black"/>
</svg>
